<svg id="White_Bg_Icons" data-name="White Bg Icons" xmlns="http://www.w3.org/2000/svg" viewBox="0 0 49.24 49.24"><defs><style>.cls-1{fill:#951d26;}.cls-2{fill:none;stroke:#951d26;stroke-miterlimit:10;stroke-width:0.75px;}.cls-3{fill:#fff;}</style></defs><title>-icon_group_red</title><g id="Outer_Circle" data-name="Outer Circle"><path id="path11508" class="cls-1" d="M24.62,1.42a23.2,23.2,0,1,0,23.2,23.2,23.23,23.23,0,0,0-23.2-23.2m0,47.82A24.62,24.62,0,1,1,49.24,24.62,24.65,24.65,0,0,1,24.62,49.24"/></g><g id="Store_Group" data-name="Store Group"><circle class="cls-2" cx="24.8" cy="26.61" r="12.48"/><g id="Store_1" data-name="Store 1"><circle class="cls-3" cx="24.62" cy="12.78" r="7.88"/><g id="Upper_Cnt_Store" data-name="Upper Cnt Store"><path class="cls-1" d="M25,15.13a.91.91,0,1,0,.91.91A.9.9,0,0,0,25,15.13Zm0,1.46a.55.55,0,0,1-.54-.55A.54.54,0,0,1,25,15.5a.55.55,0,0,1,.55.54A.55.55,0,0,1,25,16.59Z"/><path class="cls-1" d="M27.89,15.13a.91.91,0,1,0,.91.91A.91.91,0,0,0,27.89,15.13Zm0,1.46a.55.55,0,0,1-.55-.55.55.55,0,0,1,.55-.54.54.54,0,0,1,.54.54A.55.55,0,0,1,27.89,16.59Z"/><path class="cls-1" d="M30.24,9.48h0v0l-.73-2.18a.17.17,0,0,0-.17-.12H19.9a.19.19,0,0,0-.17.12L19,9.45v0h0v8.74a.18.18,0,0,0,.18.18H30.07a.18.18,0,0,0,.18-.18V9.48Zm-1-2,.6,1.82H28.4L28,7.51Zm-1.59,0L28,9.33H26.6l-.2-1.82Zm.45,2.18v1.09H26.62V9.69ZM24.8,7.51H26l.2,1.82H24.8V7.51Zm0,2.18h1.45v1.09H24.8ZM21.62,7.51h1.23L22.79,8a.18.18,0,0,0,.16.2h0a.18.18,0,0,0,.18-.16l.06-.57h1.23V9.33H23l.06-.53a.18.18,0,1,0-.36,0l-.07.57H21.22Zm2.82,2.18v1.09H23V9.69Zm-1.81,0v1.09H21.17V9.69ZM20,7.51h1.22l-.4,1.82H19.43Zm-.67,2.18h1.45v1.09H19.36ZM19.72,18h-.36V13.32h.36Zm2.91,0H20.08V13.32h2.55Zm7.25,0H23v-.36h6.89V18Zm-3.63-3.27v2.54H23.71V14.77Zm-2.54-.36v-.36h2.54v.36Zm3.45.36h2v2.54H26.62V14.05h2.54v.36h-2a.18.18,0,0,0,0,.36Zm2.72,2.54h-.36V13.86a.18.18,0,0,0-.18-.18H23.53a.18.18,0,0,0-.18.18v3.45H23v-4h6.89Zm0-4.35H19.36V11.14H29.88V13Zm0-2.18H28.43V9.69h1.45Z"/><path class="cls-1" d="M26.93,12.28l-.73-.72a.19.19,0,0,0-.26,0l-.59.6-.6-.6a.19.19,0,0,0-.26,0l-.59.6-.6-.6a.19.19,0,0,0-.26,0l-.72.72a.17.17,0,0,0,0,.26.18.18,0,0,0,.25,0l.6-.6.6.6a.18.18,0,0,0,.25,0l.6-.6.6.6a.19.19,0,0,0,.26,0l.59-.6.6.6a.19.19,0,0,0,.26,0A.19.19,0,0,0,26.93,12.28Z"/></g></g><g id="Store_1-2" data-name="Store 1"><circle class="cls-3" cx="14.61" cy="30.97" r="7.88"/><g id="Upper_Cnt_Store-2" data-name="Upper Cnt Store"><path class="cls-1" d="M15,33.33a.91.91,0,1,0,.91.9A.9.9,0,0,0,15,33.33Zm0,1.45a.55.55,0,0,1-.55-.55.55.55,0,0,1,.55-.54.54.54,0,0,1,.54.54A.55.55,0,0,1,15,34.78Z"/><path class="cls-1" d="M17.87,33.33a.91.91,0,0,0,0,1.81.91.91,0,1,0,0-1.81Zm0,1.45a.55.55,0,0,1-.54-.55.54.54,0,0,1,.54-.54.55.55,0,0,1,.55.54A.55.55,0,0,1,17.87,34.78Z"/><path class="cls-1" d="M20.23,27.67h0v0l-.72-2.17a.19.19,0,0,0-.18-.13H9.89a.17.17,0,0,0-.17.13L9,27.64v0H9v8.74a.18.18,0,0,0,.18.18H20.05a.18.18,0,0,0,.18-.18V27.67Zm-1-2,.61,1.82H18.38L18,25.7Zm-1.58,0,.4,1.82H16.58l-.2-1.82Zm.44,2.18V29H16.6V27.88ZM14.79,25.7H16l.2,1.82H14.79V25.7Zm0,2.18h1.45V29H14.79ZM11.61,25.7h1.22l-.06.53a.18.18,0,0,0,.16.2h0a.18.18,0,0,0,.18-.16l.07-.57h1.22v1.82H13l.06-.53a.18.18,0,1,0-.36,0l-.06.57H11.2Zm2.81,2.18V29H13V27.88Zm-1.81,0V29H11.16V27.88ZM10,25.7h1.21l-.4,1.82H9.41Zm-.68,2.18H10.8V29H9.34Zm.37,8.35H9.34V31.51h.37Zm2.9,0H10.07V31.51h2.54Zm7.26,0H13v-.36h6.9v.36ZM16.24,33V35.5H13.7V33ZM13.7,32.6v-.36h2.54v.36Zm3.45.36h2V35.5H16.6V32.24h2.54v.36h-2a.18.18,0,0,0,0,.36Zm2.72,2.54h-.36V32.06a.2.2,0,0,0-.19-.19h-5.8a.19.19,0,0,0-.18.19V35.5H13v-4h6.9Zm0-4.35H9.34V29.33H19.87v1.82Zm0-2.18H18.42V27.88h1.45Z"/><path class="cls-1" d="M16.91,30.48l-.72-.73a.19.19,0,0,0-.26,0l-.6.6-.6-.6a.18.18,0,0,0-.25,0l-.6.6-.6-.6a.18.18,0,0,0-.25,0l-.73.73a.18.18,0,0,0,0,.25.19.19,0,0,0,.26,0l.59-.59.6.59a.19.19,0,0,0,.26,0l.6-.59.59.59a.19.19,0,0,0,.26,0l.6-.59.6.59a.16.16,0,0,0,.12.06.16.16,0,0,0,.13-.06A.18.18,0,0,0,16.91,30.48Z"/></g></g><g id="Store_1-3" data-name="Store 1"><circle class="cls-3" cx="34.64" cy="30.97" r="7.88"/><g id="Upper_Cnt_Store-3" data-name="Upper Cnt Store"><path class="cls-1" d="M35,33.33a.91.91,0,1,0,.91.9A.9.9,0,0,0,35,33.33Zm0,1.45a.55.55,0,0,1-.54-.55.54.54,0,1,1,1.08,0A.55.55,0,0,1,35,34.78Z"/><path class="cls-1" d="M37.9,33.33a.91.91,0,0,0,0,1.81.91.91,0,1,0,0-1.81Zm0,1.45a.55.55,0,0,1-.54-.55.54.54,0,0,1,.54-.54.55.55,0,0,1,.55.54A.55.55,0,0,1,37.9,34.78Z"/><path class="cls-1" d="M40.26,27.67h0v0l-.72-2.17a.19.19,0,0,0-.18-.13H29.92a.17.17,0,0,0-.17.13L29,27.64v0h0v8.74a.18.18,0,0,0,.18.18H40.08a.18.18,0,0,0,.18-.18V27.67Zm-1-2,.61,1.82H38.41L38,25.7Zm-1.58,0,.4,1.82H36.61l-.2-1.82Zm.44,2.18V29H36.63V27.88ZM34.82,25.7h1.23l.2,1.82H34.82V25.7Zm0,2.18h1.45V29H34.82ZM31.64,25.7h1.22l-.06.53a.18.18,0,0,0,.16.2h0a.18.18,0,0,0,.18-.16l.07-.57h1.23v1.82H33l.06-.53a.18.18,0,0,0-.36,0l-.06.57H31.23Zm2.82,2.18V29H33V27.88Zm-1.82,0V29H31.19V27.88ZM30.05,25.7h1.21l-.4,1.82H29.44Zm-.68,2.18h1.46V29H29.37Zm.37,8.35h-.37V31.51h.37Zm2.9,0H30.1V31.51h2.54Zm7.26,0H33v-.36h6.9v.36ZM36.27,33V35.5H33.73V33Zm-2.54-.36v-.36h2.54v.36Zm3.45.36h2V35.5H36.63V32.24h2.54v.36h-2a.18.18,0,0,0,0,.36ZM39.9,35.5h-.36V32.06a.19.19,0,0,0-.19-.19h-5.8a.19.19,0,0,0-.18.19V35.5H33v-4h6.9Zm0-4.35H29.37V29.33H39.9v1.82Zm0-2.18H38.45V27.88H39.9Z"/><path class="cls-1" d="M36.94,30.48l-.72-.73a.19.19,0,0,0-.26,0l-.6.6-.6-.6a.18.18,0,0,0-.25,0l-.6.6-.6-.6a.18.18,0,0,0-.25,0l-.73.73a.18.18,0,0,0,0,.25.19.19,0,0,0,.26,0l.59-.59.6.59a.19.19,0,0,0,.26,0l.6-.59.59.59a.19.19,0,0,0,.26,0l.6-.59.6.59a.16.16,0,0,0,.12.06.16.16,0,0,0,.13-.06A.18.18,0,0,0,36.94,30.48Z"/></g></g></g></svg>