<svg id="White_Bg_Icons" data-name="White Bg Icons" xmlns="http://www.w3.org/2000/svg" viewBox="0 0 49.24 49.24"><defs><style>.cls-1{fill:#951d26;}</style></defs><title>-icon_admin_red</title><g id="Outer_Circle" data-name="Outer Circle"><path id="path11508" class="cls-1" d="M24.62,1.42a23.2,23.2,0,1,0,23.2,23.2,23.23,23.23,0,0,0-23.2-23.2m0,47.82A24.62,24.62,0,1,1,49.24,24.62,24.65,24.65,0,0,1,24.62,49.24"/></g><g id="Settings"><path class="cls-1" d="M36.54,21.67H34.05A1,1,0,0,1,33.38,20l1.76-1.76a1.36,1.36,0,0,0,0-1.93L32.9,14.11a1.4,1.4,0,0,0-1.94,0L29.2,15.86a.94.94,0,0,1-1,.21.92.92,0,0,1-.59-.88V12.7a1.37,1.37,0,0,0-1.36-1.37H23a1.37,1.37,0,0,0-1.37,1.37v2.49a.92.92,0,0,1-.59.88.94.94,0,0,1-1-.21l-1.76-1.75a1.39,1.39,0,0,0-1.93,0l-2.24,2.24a1.33,1.33,0,0,0-.4,1,1.35,1.35,0,0,0,.4,1L15.86,20a1,1,0,0,1-.67,1.63H12.7A1.37,1.37,0,0,0,11.33,23v3.17a1.37,1.37,0,0,0,1.37,1.36h2.49a1,1,0,0,1,.67,1.63L14.11,31a1.35,1.35,0,0,0-.4,1,1.37,1.37,0,0,0,.4,1l2.24,2.24a1.41,1.41,0,0,0,1.93,0L20,33.38a.94.94,0,0,1,1-.21.92.92,0,0,1,.59.88v2.49A1.37,1.37,0,0,0,23,37.91h3.17a1.37,1.37,0,0,0,1.36-1.37V34.05a.92.92,0,0,1,.59-.88.94.94,0,0,1,1,.21L31,35.14a1.42,1.42,0,0,0,1.94,0l2.24-2.24a1.41,1.41,0,0,0,.4-1,1.4,1.4,0,0,0-.4-1L33.38,29.2a.94.94,0,0,1-.21-1,.92.92,0,0,1,.88-.59h2.49a1.37,1.37,0,0,0,1.37-1.36V23A1.37,1.37,0,0,0,36.54,21.67Zm.38,4.54a.38.38,0,0,1-.38.38H34.05a1.94,1.94,0,0,0-1.37,3.31l1.76,1.76a.38.38,0,0,1,0,.54L32.2,34.44a.38.38,0,0,1-.54,0L29.9,32.68a1.94,1.94,0,0,0-3.31,1.37v2.49a.38.38,0,0,1-.38.38H23a.39.39,0,0,1-.39-.38V34.05a1.92,1.92,0,0,0-1.19-1.79,2.06,2.06,0,0,0-.76-.15,1.94,1.94,0,0,0-1.36.57l-1.75,1.76a.39.39,0,0,1-.55,0L14.8,32.2a.38.38,0,0,1,0-.54l1.76-1.76a1.94,1.94,0,0,0-1.37-3.31H12.7a.38.38,0,0,1-.38-.38V23a.38.38,0,0,1,.38-.39h2.49a1.94,1.94,0,0,0,1.37-3.31L14.8,17.59a.39.39,0,0,1,0-.55L17,14.8a.39.39,0,0,1,.55,0l1.75,1.76a1.94,1.94,0,0,0,3.31-1.37V12.7a.39.39,0,0,1,.39-.38h3.17a.38.38,0,0,1,.38.38v2.49a1.94,1.94,0,0,0,3.31,1.37l1.76-1.76a.38.38,0,0,1,.54,0L34.44,17a.39.39,0,0,1,0,.55l-1.76,1.75a1.94,1.94,0,0,0,1.37,3.31h2.49a.38.38,0,0,1,.38.39Z"/><path class="cls-1" d="M24.62,20.19a4.43,4.43,0,1,0,4.43,4.43A4.44,4.44,0,0,0,24.62,20.19Zm0,7.88a3.45,3.45,0,1,1,3.45-3.45A3.45,3.45,0,0,1,24.62,28.07Z"/></g></svg>