<svg xmlns="http://www.w3.org/2000/svg" viewBox="0 0 384 384"><defs><style>.cls-1{fill:#fff;}</style></defs><g id="Layer_2" data-name="Layer 2"><g id="Layer_1-2" data-name="Layer 1"><path class="cls-1" d="M0,384V0H384V384ZM120,141c-2.6,0-4.59,0-6.59,0a29.81,29.81,0,0,0-29.36,29.57q-.19,78.4,0,156.81a29.56,29.56,0,0,0,29.24,29.64q78.77.26,157.52,0A29.43,29.43,0,0,0,300,327.76q.24-78.6,0-157.18a29.41,29.41,0,0,0-24.57-29c-3.63-.65-7.38-.62-11.38-.93v-4.52c0-28.26.05-56.52,0-84.78,0-13.41-10-24-23-24.39-7.24-.22-14.5-.11-21.75,0-4,0-5.58,1.93-6.57,5.79-.78,3.06-1.77,6.34-3.64,8.78-3.51,4.61-8.88,6.27-14.48,7C182.47,50,173.53,43.67,171.15,32c-.72-3.49-3-5-6.43-5-6.25,0-12.51,0-18.76,0-16,0-25.93,10-25.93,26q0,41.84,0,83.66Z"/><path d="M120,141V136.6q0-41.84,0-83.66c0-16,9.94-26,25.93-26,6.25,0,12.51,0,18.76,0,3.42,0,5.71,1.55,6.43,5,2.38,11.67,11.32,18,23.49,16.5,5.6-.68,11-2.34,14.48-7,1.87-2.44,2.86-5.72,3.64-8.78,1-3.86,2.62-5.75,6.57-5.79,7.25-.08,14.51-.19,21.75,0,13,.4,22.93,11,23,24.39.07,28.26,0,56.52,0,84.78v4.52c4,.31,7.75.28,11.38.93a29.41,29.41,0,0,1,24.57,29q.18,78.58,0,157.18a29.43,29.43,0,0,1-29.18,29.3q-78.75.26-157.52,0a29.56,29.56,0,0,1-29.24-29.64q-.16-78.41,0-156.81A29.81,29.81,0,0,1,113.43,141C115.43,141,117.42,141,120,141Zm72,12H116.29C103.24,153,96,160.18,96,173.11q0,76,0,151.93c0,12.77,7.23,20.09,19.89,20.09H268.18c12.52,0,19.89-7.3,19.89-19.72q0-76.34,0-152.67c0-12.42-7.37-19.71-19.89-19.71Zm59.66-12.18a4.44,4.44,0,0,0,.3-1c0-29.76.09-59.52,0-89.28,0-6.53-5.27-11.45-11.86-11.62-4.5-.11-9-.18-13.5.08a4.91,4.91,0,0,0-3.48,2.25C217,54,206.83,60.45,192.73,60.66c-14.71.21-25.38-6.14-31.85-19.48a4.56,4.56,0,0,0-3.19-2.12c-3.86-.26-7.75-.11-11.62-.1-9.42,0-14,4.62-14,14q0,42,0,84v3.82Z"/><path class="cls-1" d="M192.05,153h76.13c12.52,0,19.89,7.29,19.89,19.71q0,76.33,0,152.67c0,12.42-7.37,19.72-19.89,19.72H115.91C103.25,345.13,96,337.81,96,325q0-76,0-151.93c0-12.93,7.22-20.08,20.27-20.08Zm.17,12A84.09,84.09,0,0,0,108,248.8c-.1,46.35,37.54,84.3,83.65,84.33a84.17,84.17,0,0,0,84.4-84.36C276.06,202.79,238.28,165.06,192.22,165Z"/><path class="cls-1" d="M251.71,140.84H132V137q0-42,0-84c0-9.4,4.62-14,14-14,3.87,0,7.76-.16,11.62.1a4.56,4.56,0,0,1,3.19,2.12c6.47,13.34,17.14,19.69,31.85,19.48,14.1-.21,24.22-6.63,30.43-19.35a4.91,4.91,0,0,1,3.48-2.25c4.49-.26,9-.19,13.5-.08,6.59.17,11.84,5.09,11.86,11.62.1,29.76,0,59.52,0,89.28A4.44,4.44,0,0,1,251.71,140.84ZM199.22,115.3l-1.17-.66V111c0-11.63,0-23.25,0-34.88,0-3.39-1.19-5.89-4.54-6.9-4-1.22-7.45,1.94-7.47,6.89,0,11.87,0,23.75,0,35.62,0,1-.15,2-.23,3.08l-.93.5c-.92-1.18-1.78-2.42-2.78-3.53a44.93,44.93,0,0,0-3.47-3.43c-2.83-2.56-6.34-2.66-8.71-.3s-2.52,5.87.23,8.67c5.25,5.34,10.57,10.63,16,15.79,3.64,3.45,8.12,3.46,11.77,0,5.45-5.14,10.77-10.43,16-15.78,2.75-2.81,2.71-6.21.24-8.68s-6-2.34-8.7.32C203.26,110.53,201.3,113,199.22,115.3ZM150,93.17c0-4.62,0-9.24,0-13.86,0-4.39-2.33-7.15-5.9-7.21s-6.05,2.69-6.08,7Q138,93,138,106.85c0,4.32,2.5,7.09,6.08,7S150,111,150,106.66,150,97.67,150,93.17Zm0-35.7c0-1.12.06-2.25,0-3.37-.25-3.51-2.73-6-5.93-6a6.07,6.07,0,0,0-6,5.94c-.09,1.11,0,2.24,0,3.36,0,6.31,2,9.33,6.15,9.21S150,63.58,150,57.47Z"/><path d="M192.22,165c46.06,0,83.84,37.76,83.85,83.74a84.17,84.17,0,0,1-84.4,84.36c-46.11,0-83.75-38-83.65-84.33A84.09,84.09,0,0,1,192.22,165Zm.08,156.07c39.57,0,71.77-32.43,71.77-72.28,0-39.24-32.34-71.68-71.53-71.78C152.66,177,120,209.13,120,248.58A72,72,0,0,0,192.3,321.1Z"/><path d="M199.22,115.3c2.08-2.32,4-4.77,6.27-6.94,2.73-2.66,6.33-2.68,8.7-.32s2.51,5.87-.24,8.68c-5.25,5.35-10.57,10.64-16,15.78-3.65,3.46-8.13,3.45-11.77,0-5.45-5.16-10.77-10.45-16-15.79-2.75-2.8-2.71-6.21-.23-8.67s5.88-2.26,8.71.3a44.93,44.93,0,0,1,3.47,3.43c1,1.11,1.86,2.35,2.78,3.53l.93-.5c.08-1,.23-2,.23-3.08,0-11.87,0-23.75,0-35.62,0-4.95,3.45-8.11,7.47-6.89,3.35,1,4.55,3.51,4.54,6.9-.06,11.63,0,23.25,0,34.88v3.65Z"/><path d="M150,93.17c0,4.5,0,9,0,13.49s-2.34,7.15-5.9,7.22-6.05-2.71-6.08-7Q138,93,138,79.12c0-4.33,2.49-7.08,6.08-7s5.86,2.82,5.9,7.21C150.06,83.93,150,88.55,150,93.17Z"/><path d="M150,57.47c0,6.11-1.85,9-5.84,9.13S138,63.7,138,57.39c0-1.12-.06-2.25,0-3.36a6.07,6.07,0,0,1,6-5.94c3.2,0,5.68,2.5,5.93,6C150.08,55.22,150,56.35,150,57.47Z"/><path class="cls-1" d="M192.3,321.1A72,72,0,0,1,120,248.58c0-39.45,32.62-71.63,72.5-71.54,39.19.1,71.52,32.54,71.53,71.78C264.07,288.67,231.87,321.1,192.3,321.1Zm5.75-93c0-6.37,0-12.75,0-19.12,0-4.75-2.21-7.41-6-7.4s-6,2.66-6,7.43c0,11.25-.08,22.51,0,33.75a5.54,5.54,0,0,1-2.62,5.26c-6.56,4.57-13,9.31-19.46,14-3.63,2.67-4.42,6-2.27,9s5.68,3.31,9.25.76c7.92-5.68,15.76-11.47,23.68-17.14a7.77,7.77,0,0,0,3.4-7C198,241.07,198.05,234.57,198.05,228.06Zm-5.83-45a6,6,0,1,0,5.8,6.15A6,6,0,0,0,192.22,183.07ZM138,249.23a6,6,0,1,0-6.13,5.82A6,6,0,0,0,138,249.23Zm120-.16a6,6,0,1,0-6,6A6,6,0,0,0,258,249.07Zm-65.94,66a6,6,0,1,0-6-5.92A6.06,6.06,0,0,0,192.1,315.09Z"/><path d="M198.05,228.06c0,6.51-.08,13,0,19.51a7.77,7.77,0,0,1-3.4,7c-7.92,5.67-15.76,11.46-23.68,17.14-3.57,2.55-7.13,2.18-9.25-.76s-1.36-6.31,2.27-9c6.46-4.72,12.9-9.46,19.46-14a5.54,5.54,0,0,0,2.62-5.26c-.13-11.24-.07-22.5,0-33.75,0-4.77,2.18-7.43,6-7.43s6,2.65,6,7.4C198.07,215.31,198.05,221.69,198.05,228.06Z"/><path d="M192.22,183.07a6,6,0,1,1-6.14,5.8A6,6,0,0,1,192.22,183.07Z"/><path d="M138,249.23a6,6,0,1,1-5.82-6.12A6.05,6.05,0,0,1,138,249.23Z"/><path d="M258,249.07a6,6,0,1,1-6-6A6,6,0,0,1,258,249.07Z"/><path d="M192.1,315.09a6,6,0,1,1,5.92-6A6,6,0,0,1,192.1,315.09Z"/></g></g></svg>