<svg xmlns="http://www.w3.org/2000/svg" width="362" height="362" viewBox="0 0 362 362">
  <g id="Search_Card_Icon" data-name="Search Card Icon" transform="translate(-257 -323)">
    <g id="Group_2" data-name="Group 2" transform="translate(-427 -380)">
      <g id="Group_1" data-name="Group 1" transform="translate(772.75 791)">
        <g id="Rectangle_1" data-name="Rectangle 1" transform="translate(0.25)" fill="#fff" stroke="#951d26" stroke-linejoin="round" stroke-width="10">
          <rect width="225" height="142" rx="18" stroke="none"/>
          <rect x="5" y="5" width="215" height="132" rx="13" fill="none"/>
        </g>
        <g id="Rectangle_2" data-name="Rectangle 2" transform="translate(0.25 35)" fill="rgba(149,29,38,0.43)" stroke="#951d26" stroke-width="10">
          <rect width="225" height="36" stroke="none"/>
          <rect x="5" y="5" width="215" height="26" fill="none"/>
        </g>
      </g>
      <g id="Path_102" data-name="Path 102" transform="translate(733 868.844)" fill="#fff">
        <path d="M 54.2421875 105.9843673706055 C 47.25593566894531 105.9843673706055 40.47998809814453 104.6166687011719 34.10255432128906 101.9192352294922 C 27.94143676757812 99.31330108642578 22.40765380859375 95.5821533203125 17.65493774414062 90.82943725585938 C 12.90222072601318 86.07672119140625 9.17107105255127 80.54293823242188 6.565137386322021 74.38182067871094 C 3.867704153060913 68.00438690185547 2.500004053115845 61.22843933105469 2.500004053115845 54.2421875 C 2.500004053115845 47.25593566894531 3.867704153060913 40.47998809814453 6.565137386322021 34.10255432128906 C 9.17107105255127 27.94143676757812 12.90222072601318 22.40765380859375 17.65493774414062 17.65493774414062 C 22.40765380859375 12.90222072601318 27.94143676757812 9.17107105255127 34.10255432128906 6.565137386322021 C 40.47998809814453 3.867704153060913 47.25593566894531 2.500004053115845 54.2421875 2.500004053115845 C 61.22843933105469 2.500004053115845 68.00438690185547 3.867704153060913 74.38182067871094 6.565137386322021 C 80.54293823242188 9.17107105255127 86.07672119140625 12.90222072601318 90.82943725585938 17.65493774414062 C 95.5821533203125 22.40765380859375 99.31330108642578 27.94143676757812 101.9192352294922 34.10255432128906 C 104.6166687011719 40.47998809814453 105.9843673706055 47.25593566894531 105.9843673706055 54.2421875 C 105.9843673706055 61.22843933105469 104.6166687011719 68.00438690185547 101.9192352294922 74.38182067871094 C 99.31330108642578 80.54293823242188 95.5821533203125 86.07672119140625 90.82943725585938 90.82943725585938 C 86.07672119140625 95.5821533203125 80.54293823242188 99.31330108642578 74.38182067871094 101.9192352294922 C 68.00438690185547 104.6166687011719 61.22843933105469 105.9843673706055 54.2421875 105.9843673706055 Z" stroke="none"/>
        <path d="M 54.2421875 5.000007629394531 C 47.59233474731445 5.000007629394531 41.14404296875 6.301261901855469 35.07643890380859 8.867645263671875 C 29.21331787109375 11.3475341796875 23.94664001464844 14.89876556396484 19.42271423339844 19.42271423339844 C 14.89876556396484 23.94664001464844 11.3475341796875 29.21331787109375 8.867645263671875 35.07643890380859 C 6.301261901855469 41.14404296875 5.000007629394531 47.59233474731445 5.000007629394531 54.2421875 C 5.000007629394531 60.89204025268555 6.301261901855469 67.34033203125 8.867645263671875 73.40792846679688 C 11.3475341796875 79.27105712890625 14.89876556396484 84.53773498535156 19.42271423339844 89.06166076660156 C 23.94664001464844 93.58560180664062 29.21331787109375 97.1368408203125 35.07643890380859 99.61672973632812 C 41.14404296875 102.1831130981445 47.59233474731445 103.4843673706055 54.2421875 103.4843673706055 C 60.89204025268555 103.4843673706055 67.34033203125 102.1831130981445 73.40792846679688 99.61672973632812 C 79.27105712890625 97.1368408203125 84.53773498535156 93.58560180664062 89.06166076660156 89.06166076660156 C 93.58560180664062 84.53773498535156 97.1368408203125 79.27105712890625 99.61672973632812 73.40792846679688 C 102.1831130981445 67.34033203125 103.4843673706055 60.89204025268555 103.4843673706055 54.2421875 C 103.4843673706055 47.59233474731445 102.1831130981445 41.14404296875 99.61672973632812 35.07643890380859 C 97.1368408203125 29.21331787109375 93.58560180664062 23.94664001464844 89.06166076660156 19.42271423339844 C 84.53773498535156 14.89876556396484 79.27105712890625 11.3475341796875 73.40792846679688 8.867645263671875 C 67.34033203125 6.301261901855469 60.89204025268555 5.000007629394531 54.2421875 5.000007629394531 M 54.2421875 7.62939453125e-06 C 84.19931030273438 7.62939453125e-06 108.4843673706055 24.28505706787109 108.4843673706055 54.2421875 C 108.4843673706055 84.19931030273438 84.19931030273438 108.4843673706055 54.2421875 108.4843673706055 C 24.28505706787109 108.4843673706055 7.62939453125e-06 84.19931030273438 7.62939453125e-06 54.2421875 C 7.62939453125e-06 24.28505706787109 24.28505706787109 7.62939453125e-06 54.2421875 7.62939453125e-06 Z" stroke="none" fill="#951d26"/>
      </g>
      <path id="Icon_ionic-md-search" data-name="Icon ionic-md-search" d="M45.482,40.667H42.86l-.985-.822a21.762,21.762,0,0,0,5.083-13.973A21.229,21.229,0,1,0,25.811,47.242a21.97,21.97,0,0,0,13.934-5.1l.983.822V45.6L57.12,62.038l4.918-4.932Zm-19.671,0a14.8,14.8,0,1,1,14.753-14.8A14.713,14.713,0,0,1,25.811,40.667Z" transform="translate(753.973 889.817)" fill="#951d26"/>
    </g>
    <g id="Ellipse_5" data-name="Ellipse 5" transform="translate(257 323)" fill="none" stroke="#951d26" stroke-width="10">
      <circle cx="181" cy="181" r="181" stroke="none"/>
      <circle cx="181" cy="181" r="176" fill="none"/>
    </g>
  </g>
</svg>
