<svg xmlns="http://www.w3.org/2000/svg" width="362" height="362" viewBox="0 0 362 362">
  <g id="Totals_Report_Icon" data-name="Totals Report Icon" transform="translate(-1234 -448)">
    <g id="Ellipse_3" data-name="Ellipse 3" transform="translate(1234 448)" fill="none" stroke="#951d26" stroke-width="10">
      <circle cx="181" cy="181" r="181" stroke="none"/>
      <circle cx="181" cy="181" r="176" fill="none"/>
    </g>
    <g id="b" transform="translate(1316 530)">
      <g id="c" transform="translate(0 0)">
        <path id="Path_89" data-name="Path 89" d="M3.086,197.488H0V53.615a16.99,16.99,0,0,1,.365,1.671C2.967,78.836,23.143,97.664,46.9,98.7A49.534,49.534,0,0,0,97.818,58.583c.571-2.978.72-6.033,1.07-9.1H92.717A43.271,43.271,0,1,1,30.75,10.4a42.14,42.14,0,0,1,29.315-2.87C73.554,11.062,83.1,19.461,89.075,32.076c1.939-.869,3.718-1.666,5.493-2.453A49.256,49.256,0,0,0,60.038,1.178C57.894.741,55.749.391,53.615,0H160.459V6.228h8.568c-.566.72-.931,1.219-1.327,1.687C158.875,18.2,149.9,28.373,141.307,38.86c-2.7,3.312-5.441,5.086-9.648,4.341-2.484-.437-4.155.751-5.8,2.571q-29.091,32.169-58.346,64.2a3.76,3.76,0,0,1-2.433,1.059c-4.757.1-9.514.113-14.266,0a5.827,5.827,0,0,0-4.6,1.893q-15.706,15.822-31.5,31.536c-.447.447-.869.921-1.311,1.394,1.44,1.466,2.813,2.859,4.258,4.32.566-.514,1.08-1.029,1.574-1.5q15.066-15.058,30.132-30.148a4,4,0,0,1,3.2-1.3c4.69.077,9.381-.041,14.071.067a5.475,5.475,0,0,0,4.505-2.057c18.468-20.381,37.07-40.629,55.394-61.16,3.142-3.518,6.208-5.58,10.939-4.731,1.954.35,3.363-.55,4.629-2.057q14.611-17.18,29.315-34.272a12.033,12.033,0,0,0,.879-1.378l.581.375v6.4h6.089c0-4.716-.077-9.329.036-13.937A4.772,4.772,0,0,0,177.045,0h20.443V197.488H194.4V61.808h-6.171v129.37H169.814V30.858h18.515V43.1H194.4V31.49c0-4.31-2.51-6.8-6.84-6.8h-16.2c-5.7,0-7.817,2.1-7.817,7.761V191.209h-9.257V69.265c0-5.287-2.232-7.55-7.452-7.55H131.026c-5.41,0-7.591,2.181-7.591,7.6V191.2h-9.262V111.853c0-4.459-2.469-6.927-6.907-6.933H90.68c-5.107,0-7.36,2.273-7.36,7.437v78.826H74.058V148.836c0-4.428-2.494-6.886-6.948-6.9H50.524c-5.019.005-7.324,2.294-7.324,7.293v41.935H33.943V173.481c0-4.335-2.494-6.85-6.8-6.85H9.977c-4.459,0-6.892,2.453-6.892,6.943ZM52.458,74.115l1.229-.057c8.229-.2,14.287-6.249,14.179-14.138-.108-7.714-6.331-13.6-14.482-13.634-2.957,0-5.914.072-8.866,0a7.716,7.716,0,0,1-7.488-7.936,7.8,7.8,0,0,1,.483-2.474c1.193-3.23,4.058-5.019,8.08-5.019h16V24.609H52.4V18.638H46.23v5.992c-.514,0-.843.046-1.162.057-8.229.2-14.287,6.249-14.179,14.133.1,7.714,6.326,13.6,14.477,13.639,2.957,0,5.914-.067,8.866,0a7.662,7.662,0,0,1,7.5,7.817,7.556,7.556,0,0,1-.37,2.191c-1.116,3.559-4.037,5.4-8.573,5.4H37.152v6.249h9.19v5.971h6.115V74.115ZM7.308,152.529l-6,6,3.646,3.718,6.094-6.1-3.739-3.621ZM92.279,43.622l6.084-.874c-.463-2.247-.89-4.33-1.353-6.557l-5.93,1.687C91.493,39.847,91.868,41.658,92.279,43.622Zm96.044,11.829h5.971V49.506h-5.971Z" transform="translate(0 0)" fill="#fff"/>
        <path id="Path_90" data-name="Path 90" d="M6,220.8V196.887c0-4.49,2.433-6.943,6.892-6.943H30.053c4.31,0,6.789,2.51,6.8,6.845v17.687h9.257V172.541c0-4.994,2.3-7.282,7.324-7.282H70.024c4.454,0,6.943,2.469,6.948,6.9V214.5H86.23V135.666c0-5.143,2.253-7.432,7.36-7.437h16.586c4.438,0,6.907,2.474,6.907,6.933v79.345h9.257V92.62c0-5.415,2.181-7.6,7.591-7.6h15.814c5.22,0,7.452,2.263,7.452,7.55V214.523h9.257V55.761c0-5.657,2.114-7.761,7.812-7.761h16.2c4.341,0,6.85,2.494,6.85,6.8V66.417h-6.094V54.172H172.708v160.32h18.437V85.122h6.171V220.8ZM132.649,91.293V214.481h18.293V91.293Zm-21.863,123.25V134.555H92.5v79.988h18.283ZM52.441,171.5v43.026H70.688V171.5Zm-21.9,43.057v-18.34H12.29v18.34H30.537Z" transform="translate(-2.914 -23.314)" fill="#951d26"/>
        <path id="Path_91" data-name="Path 91" d="M53.615,0c2.134.391,4.279.741,6.4,1.178a49.244,49.244,0,0,1,34.53,28.445c-1.774.787-3.554,1.584-5.493,2.453C83.079,19.461,73.544,11.062,60.044,7.529A42.219,42.219,0,0,0,30.729,10.4,43.23,43.23,0,1,0,92.737,49.465h6.172c-.35,3.086-.514,6.125-1.07,9.1A49.534,49.534,0,0,1,46.924,98.682C23.143,97.664,2.967,78.836.365,55.286A16.99,16.99,0,0,0,0,53.615V45.129c.129-.617.283-1.234.381-1.857C3.4,23.827,14.02,10.327,32.334,3.158,36.386,1.543,40.855,1.029,45.129,0Z" transform="translate(0 0)" fill="#951d26"/>
        <path id="Path_92" data-name="Path 92" d="M189.737,0A4.757,4.757,0,0,1,191.7,4.474c-.113,4.629-.036,9.221-.036,13.937h-6.084v-6.4L185,11.638a12.031,12.031,0,0,1-.879,1.378q-14.673,17.141-29.315,34.272c-1.286,1.543-2.695,2.417-4.629,2.057-4.731-.849-7.8,1.214-10.939,4.731-18.324,20.515-36.926,40.778-55.394,61.16a5.475,5.475,0,0,1-4.505,2.057c-4.69-.108-9.381,0-14.071-.067a4,4,0,0,0-3.214,1.3q-15.02,15.112-30.112,30.148c-.514.514-1.029.967-1.574,1.5-1.445-1.461-2.818-2.854-4.258-4.32.442-.473.864-.946,1.311-1.394q15.745-15.753,31.47-31.516a5.827,5.827,0,0,1,4.6-1.893c4.752.1,9.509.082,14.266,0A3.76,3.76,0,0,0,80.188,110Q109.4,77.936,138.514,45.772c1.646-1.815,3.317-3,5.8-2.571,4.233.735,6.974-1.029,9.679-4.351C162.582,28.363,171.562,18.2,180.387,7.9c.4-.468.761-.967,1.327-1.687h-8.573V0h16.6Z" transform="translate(-12.682 0)" fill="#951d26"/>
        <path id="Path_93" data-name="Path 93" d="M45.129,0c-4.274,1.029-8.743,1.543-12.8,3.153C14.02,10.353,3.4,23.827.381,43.267c-.1.627-.252,1.245-.381,1.862V0Z" transform="translate(0 0)" fill="#fff"/>
        <path id="Path_94" data-name="Path 94" d="M81.6,91.717v5.992H75.484V91.737h-9.19V85.489H81.908c4.536,0,7.457-1.841,8.573-5.4a7.659,7.659,0,0,0-4.906-9.653,7.74,7.74,0,0,0-2.222-.375c-2.952-.087-5.909,0-8.866,0-8.152-.036-14.374-5.9-14.488-13.639-.1-7.884,5.976-13.937,14.189-14.133.319,0,.638-.031,1.162-.057V36.24h6.172v5.971h9.2V48.46H74.733c-4.022,0-6.886,1.79-8.08,5.019a7.714,7.714,0,0,0,7.02,10.409c2.952.1,5.909,0,8.866,0,8.152.036,14.4,5.9,14.482,13.634.108,7.889-5.961,13.937-14.179,14.138l-1.245.057Z" transform="translate(-29.141 -17.602)" fill="#951d26"/>
        <path id="Path_95" data-name="Path 95" d="M8.542,296.58l3.739,3.6L6.186,306.3,2.54,302.582Z" transform="translate(-1.234 -144.051)" fill="#951d26"/>
        <path id="Path_96" data-name="Path 96" d="M178.3,77.8c-.411-1.98-.787-3.775-1.2-5.745l5.93-1.687c.463,2.227.89,4.31,1.353,6.557Z" transform="translate(-86.019 -34.179)" fill="#951d26"/>
        <path id="Path_97" data-name="Path 97" d="M366.18,102.195V96.26h5.971v5.935Z" transform="translate(-177.857 -46.754)" fill="#951d26"/>
        <path id="Path_98" data-name="Path 98" d="M252.26,132.18h18.293V255.368H252.26Z" transform="translate(-122.525 -64.201)" fill="#fff"/>
        <path id="Path_99" data-name="Path 99" d="M192.483,296.288H174.2V216.3h18.283v79.988Z" transform="translate(-84.61 -105.059)" fill="#fff"/>
        <path id="Path_100" data-name="Path 100" d="M96.3,288.14h18.247v43.026H96.3Z" transform="translate(-46.774 -139.952)" fill="#fff"/>
        <path id="Path_101" data-name="Path 101" d="M36.477,354.54H18.23V336.2H36.477Z" transform="translate(-8.854 -163.295)" fill="#fff"/>
      </g>
    </g>
  </g>
</svg>
