<svg id="Nav_Icons" data-name="Nav Icons" xmlns="http://www.w3.org/2000/svg" viewBox="0 0 49.24 49.24"><defs><style>.cls-1{fill:none;stroke:#fff;stroke-miterlimit:10;stroke-width:0.75px;}.cls-2{fill:#464646;}.cls-3{fill:#fff;}</style></defs><title>icon_groups_white</title><g id="Groups"><circle class="cls-1" cx="24.62" cy="29.22" r="12.5"/><g id="Store_1" data-name="Store 1"><circle class="cls-2" cx="24.62" cy="15.42" r="7.9"/><g id="Upper_Cnt_Store" data-name="Upper Cnt Store"><path class="cls-3" d="M25,17.72a.9.9,0,1,0,.9.9A.9.9,0,0,0,25,17.72Zm0,1.5a.5.5,0,1,1,.5-.5A.54.54,0,0,1,25,19.22Z"/><path class="cls-3" d="M27.92,17.72a.9.9,0,1,0,.9.9A.9.9,0,0,0,27.92,17.72Zm0,1.5a.5.5,0,1,1,.5-.5A.54.54,0,0,1,27.92,19.22Z"/><path class="cls-3" d="M30.22,12.12h0l-.7-2.2c0-.1-.1-.1-.2-.1h-9.5c-.1,0-.1,0-.2.1l-.6,2.2h0v8.7a.22.22,0,0,0,.2.2h10.9a.22.22,0,0,0,.2-.2c-.1,0-.1-8.7-.1-8.7Zm-1-2,.6,1.8h-1.4l-.4-1.8Zm-1.6,0,.4,1.8h-1.4l-.2-1.8Zm.5,2.2v1.1h-1.5v-1.1Zm-3.3-2.2H26l.2,1.8h-1.4v-1.8Zm0,2.2h1.5v1.1h-1.5Zm-3.2-2.2h1.2v.5a.22.22,0,0,0,.2.2h0a.22.22,0,0,0,.2-.2l.1-.6h1.2v1.8H23l.1-.5a.2.2,0,1,0-.4,0l-.1.6h-1.4Zm2.8,2.2v1.1H23v-1.1Zm-1.8,0v1.1h-1.5v-1.1ZM20,10.12h1.2l-.4,1.8h-1.4Zm-.6,2.2h1.5v1.1h-1.5Zm.3,8.3h-.4v-4.7h.4Zm2.9,0h-2.5v-4.7h2.5Zm7.3,0H23v-.4h6.9v.4Zm-3.6-3.2v2.5h-2.5v-2.5Zm-2.6-.4v-.4h2.5V17Zm3.5.4h2v2.5h-2.5v-3.3h2.5V17h-2a.2.2,0,1,0,0,.4Zm2.7,2.5h-.4v-3.4a.22.22,0,0,0-.2-.2h-5.8a.22.22,0,0,0-.2.2v3.4H23v-4h6.9Zm0-4.3H19.42v-1.8h10.5v1.8Zm0-2.2h-1.5v-1.1h1.5Z"/><path class="cls-3" d="M26.92,14.92l-.7-.7a.19.19,0,0,0-.3,0l-.6.6-.6-.6a.19.19,0,0,0-.3,0l-.6.6-.6-.6a.19.19,0,0,0-.3,0l-.7.7a.21.21,0,1,0,.3.3l.6-.6.6.6a.19.19,0,0,0,.3,0l.6-.6.6.6a.19.19,0,0,0,.3,0l.6-.6.6.6.1.1a.1.1,0,0,0,.1-.1A.19.19,0,0,0,26.92,14.92Z"/></g></g><g id="Store_1-2" data-name="Store 1"><circle class="cls-2" cx="14.62" cy="33.62" r="7.9"/><g id="Upper_Cnt_Store-2" data-name="Upper Cnt Store"><path class="cls-3" d="M15,35.92a.9.9,0,1,0,.9.9A.9.9,0,0,0,15,35.92Zm0,1.5a.5.5,0,1,1,.5-.5A.54.54,0,0,1,15,37.42Z"/><path class="cls-3" d="M17.92,35.92a.9.9,0,1,0,.9.9A.9.9,0,0,0,17.92,35.92Zm0,1.5a.5.5,0,1,1,.5-.5A.54.54,0,0,1,17.92,37.42Z"/><path class="cls-3" d="M20.22,30.32h0l-.7-2.2c0-.1-.1-.1-.2-.1H9.82c-.1,0-.1,0-.2.1L9,30.22H9v8.7a.22.22,0,0,0,.2.2h10.9a.22.22,0,0,0,.2-.2c-.1.1-.1-8.6-.1-8.6Zm-1-2,.6,1.8h-1.4l-.4-1.8Zm-1.6,0,.4,1.8h-1.4l-.2-1.8Zm.5,2.2v1.1h-1.5v-1.1Zm-3.3-2.2H16l.2,1.8h-1.4v-1.8Zm0,2.2h1.5v1.1h-1.5Zm-3.2-2.2h1.2l-.1.5a.22.22,0,0,0,.2.2h0a.22.22,0,0,0,.2-.2l.1-.6h1.2V30H13l.1-.5a.2.2,0,0,0-.4,0l-.1.6h-1.4Zm2.8,2.2v1.1H13v-1.1Zm-1.8,0v1.1h-1.5v-1.1ZM10,28.32h1.2l-.4,1.8H9.42Zm-.7,2.2h1.5v1.1H9.32Zm.4,8.3h-.4v-4.7h.4Zm2.9,0h-2.5v-4.7h2.5Zm7.3,0H13v-.4h6.9v.4Zm-3.7-3.2v2.5h-2.5v-2.5Zm-2.5-.4v-.4h2.5v.4Zm3.4.4h2v2.5h-2.5v-3.3h2.5v.4h-2a.22.22,0,0,0-.2.2C17,35.52,17,35.62,17.12,35.62Zm2.8,2.5h-.4v-3.4a.22.22,0,0,0-.2-.2h-5.8a.22.22,0,0,0-.2.2v3.4H13v-4h6.9Zm0-4.4H9.32v-1.8h10.5v1.8Zm0-2.1h-1.5v-1.1h1.5Z"/><path class="cls-3" d="M16.92,33.12l-.7-.7a.19.19,0,0,0-.3,0l-.6.6-.6-.6a.19.19,0,0,0-.3,0l-.6.6-.6-.6a.19.19,0,0,0-.3,0l-.7.7a.21.21,0,0,0,.3.3l.6-.6.6.6a.19.19,0,0,0,.3,0l.6-.6.6.6a.19.19,0,0,0,.3,0l.6-.6.6.6.1.1a.1.1,0,0,0,.1-.1C17,33.32,17,33.12,16.92,33.12Z"/></g></g><g id="Store_1-3" data-name="Store 1"><circle class="cls-2" cx="34.62" cy="33.62" r="7.9"/><g id="Upper_Cnt_Store-3" data-name="Upper Cnt Store"><path class="cls-3" d="M35,35.92a.9.9,0,1,0,.9.9A.9.9,0,0,0,35,35.92Zm0,1.5a.5.5,0,1,1,.5-.5A.54.54,0,0,1,35,37.42Z"/><path class="cls-3" d="M37.92,35.92a.9.9,0,1,0,.9.9A.9.9,0,0,0,37.92,35.92Zm0,1.5a.5.5,0,1,1,.5-.5A.54.54,0,0,1,37.92,37.42Z"/><path class="cls-3" d="M40.32,30.32h0l-.7-2.2c0-.1-.1-.1-.2-.1h-9.5c-.1,0-.1,0-.2.1l-.7,2.1h0v8.7a.22.22,0,0,0,.2.2h10.9a.22.22,0,0,0,.2-.2v-8.6Zm-1.1-2,.6,1.8h-1.4l-.4-1.8Zm-1.6,0,.4,1.8h-1.4l-.2-1.8Zm.5,2.2v1.1h-1.5v-1.1Zm-3.3-2.2H36l.2,1.8h-1.4v-1.8Zm0,2.2h1.5v1.1h-1.5Zm-3.2-2.2h1.2l-.1.5a.22.22,0,0,0,.2.2h0a.22.22,0,0,0,.2-.2l.1-.6h1.2V30H33l.1-.5a.2.2,0,0,0-.4,0l-.1.6h-1.4Zm2.9,2.2v1.1H33v-1.1Zm-1.9,0v1.1h-1.5v-1.1ZM30,28.32h1.2l-.4,1.8h-1.4Zm-.6,2.2h1.5v1.1h-1.5Zm.3,8.3h-.4v-4.7h.4Zm2.9,0h-2.5v-4.7h2.5Zm7.3,0H33v-.4h6.9v.4Zm-3.6-3.2v2.5h-2.5v-2.5Zm-2.6-.4v-.4h2.5v.4Zm3.5.4h2v2.5h-2.5v-3.3h2.5v.4h-2a.2.2,0,0,0,0,.4Zm2.7,2.5h-.4v-3.4a.22.22,0,0,0-.2-.2h-5.8a.22.22,0,0,0-.2.2v3.4H33v-4h6.9Zm0-4.4H29.42v-1.8h10.5v1.8Zm0-2.1h-1.5v-1.1h1.5Z"/><path class="cls-3" d="M36.92,33.12l-.7-.7a.19.19,0,0,0-.3,0l-.6.6-.6-.6a.19.19,0,0,0-.3,0l-.6.6-.6-.6a.19.19,0,0,0-.3,0l-.7.7a.21.21,0,0,0,.3.3l.6-.6.6.6a.19.19,0,0,0,.3,0l.6-.6.6.6a.19.19,0,0,0,.3,0l.6-.6.6.6.1.1a.1.1,0,0,0,.1-.1C37,33.32,37,33.12,36.92,33.12Z"/></g></g></g></svg>