<?xml version="1.0" encoding="UTF-8"?><svg id="a" xmlns="http://www.w3.org/2000/svg" viewBox="0 0 384 384"><defs><style>.d{fill:#fff;}.e{fill:#921c25;}</style></defs><g id="b"><g id="c"><path class="e" d="M384,252.75v131.25H0v-85.5c1.78,2.81,3.79,5.25,7.56,5.25h31.12c2.97,.12,5.71-1.6,6.9-4.33,2.44-5-1.17-10.51-7.12-10.61-7.71-.14-15.42,0-23.16,0V106.92h5.52c71,0,142,0,213,0,1.75,.06,3.49-.04,5.22-.29,3.98-.74,6.6-4.57,5.86-8.55-.58-3.08-3.05-5.46-6.16-5.91-1.74-.2-3.48-.28-5.23-.23H15.29V48.64h30.1c2.87,18.11,10.47,26.73,23.89,27.36,5.67,.29,11.26-1.49,15.72-5,7.34-5.56,10.14-13.3,10-22.3h35.38c2.15,17.12,9.92,26.25,22.85,27.2,5.65,.51,11.31-1.02,15.93-4.31,7.9-5.59,10.84-13.59,10.84-22.97h35.58c1.12,4.6,1.45,9.28,3.43,13.11,2.02,4,4.99,7.43,8.66,10,3.56,2.35,8.21,3.49,12.54,4.12,5.48,.8,10.59-1.19,15.09-4.46,7.72-5.62,10.4-13.64,10.35-22.68h30.35V198c-26.51-1.86-49.79,5.76-69.43,23.42-19.85,17.84-29.24,40.58-29.76,67.36H108.47c-1.37-.06-2.75-.02-4.12,.11-3.74,.53-6.54,3.71-6.61,7.49,.1,3.92,3.18,7.12,7.1,7.36,1.12,.09,2.25,0,3.38,0,28.87,0,57.75-.02,86.62-.05,2.53,0,3.48,.55,4.17,3.26,9.44,37.07,32.76,61.21,70,69.09s68.12-5.09,91.43-35.24c7.13-9.39,12.12-20.22,14.6-31.75,.77-3.36-.08-6.27-3-8.21-2.77-1.82-5.92-2-8.35,.21-1.69,1.62-2.88,3.68-3.45,5.95-7.76,31.54-37.7,53.16-65.92,55.89-48.49,4.71-89.42-38.42-81.24-86.42,5.33-31.24,23.81-52.54,54.42-60.93,30.81-8.45,57.2,.9,78.13,25,3.77,4.33,6.53,9.54,10.29,15.14-1.59-.26-1.93-.26-2.24-.37-5.61-1.93-9.53-.59-11.2,3.84-1.58,4.18,.49,7.88,5.69,10.14,5,2.19,10.07,4.38,15.12,6.53,6.14,2.61,9.69,1.25,12.4-4.69,2.77-6.13,5.54-12.25,8.31-18.38Zm-311,7.65c17.42-.35,31.25-14.75,30.9-32.17-.34-16.98-14.07-30.64-31.06-30.9-17.42-.26-31.75,13.64-32.01,31.06-.26,17.42,13.64,31.75,31.06,32.01,.37,0,.74,0,1.11,0ZM156.5,127.91c-17.13-.72-31.56,12.83-32.45,30.49-.87,17.11,13.11,31.88,30.82,32.58,17,.67,31.54-13.17,32.24-30.75,.68-17.15-12.99-31.58-30.61-32.32Zm53.07,31.47c-.03,17.44,14.08,31.59,31.52,31.62,17.44,.03,31.59-14.08,31.62-31.52s-14.08-31.59-31.52-31.62c-.04,0-.08,0-.12,0-17.35,.13-31.38,14.17-31.5,31.52Zm70.2,121.09h-23c-7.33,0-10.74,2.34-10.8,7.4s3.47,7.6,10.63,7.6h23.16v5.11c0,7.12-.11,14.25,.06,21.37,0,4.04,3.27,7.31,7.31,7.31,.05,0,.11,0,.16,0,4.11,0,7.17-3,7.43-7.36,.1-1.49,0-3,0-4.5v-21.77c1.14-.07,1.87-.15,2.59-.15h23.24c4.88-.06,8-3.16,7.95-7.59-.06-4.27-3.12-7.19-7.8-7.36-1.87-.07-3.74,0-5.62,0h-20.31v-4.55c0-7.12,.07-14.25,0-21.37-.07-5.24-3.94-8.57-8.77-7.78-3.74,.6-6.15,3.68-6.18,8.17-.09,8.29-.05,16.64-.05,25.47h0Zm-131-47.83c-2.57-2.62-4.8-5-7.11-7.24-3.7-3.64-8.11-4-11.28-.93s-3,7.68,.72,11.55,7.65,7.88,11.53,11.77c4.42,4.44,8.56,4.38,12.84-.25,5.51-5.95,11-12,16.43-18,3.19-3.5,6.55-6.88,9.5-10.58,2.6-3.12,2.18-7.76-.94-10.37-1.05-.88-2.33-1.44-3.69-1.63-3.18-.42-5.49,1-7.54,3.26-6.69,7.4-13.45,14.78-20.46,22.42h0Zm-82.77-72.81c-2.72-2.74-5-5.17-7.48-7.5-3.52-3.38-7.95-3.58-11-.59s-3.11,7.44,.29,11c4.13,4.34,8.33,8.61,12.61,12.8,3.84,3.77,8,3.64,11.77-.26,2.17-2.25,4.24-4.58,6.34-6.89,6.56-7.19,13.14-14.37,19.66-21.6,2.42-2.68,3-5.74,1.13-9-1.76-3.06-4.62-4.4-7.93-3.48-1.98,.67-3.76,1.85-5.15,3.42-6.75,7.27-13.32,14.55-20.24,22.1Zm6.83,129c-4.12-.09-7.53,3.18-7.62,7.3-.09,4.12,3.18,7.53,7.31,7.62h0c4.12,.09,7.53-3.18,7.62-7.3,.09-4.12-3.18-7.53-7.31-7.62ZM270.39,92.07c-3.97,0-7.17,3.23-7.17,7.19,0,.1,0,.19,0,.29,.04,4.07,3.37,7.34,7.44,7.3h0c4.08-.08,7.33-3.45,7.25-7.53s-3.45-7.33-7.53-7.25h0Z"/><path class="d" d="M384,252.75c-2.77,6.12-5.54,12.24-8.32,18.37-2.71,5.94-6.26,7.3-12.4,4.69-5-2.15-10.08-4.34-15.12-6.53-5.2-2.26-7.27-6-5.69-10.14,1.67-4.43,5.59-5.77,11.2-3.84,.31,.11,.65,.11,2.24,.37-3.76-5.6-6.52-10.81-10.29-15.14-20.93-24.08-47.32-33.43-78.13-25-30.61,8.39-49.09,29.69-54.42,60.93-8.18,48,32.75,91.13,81.24,86.42,28.22-2.73,58.16-24.35,65.92-55.89,.57-2.27,1.76-4.33,3.45-5.95,2.43-2.2,5.58-2,8.35-.21,3,1.94,3.81,4.85,3,8.21-2.48,11.53-7.47,22.36-14.6,31.75-23.27,30.21-54.13,43.14-91.43,35.26s-60.55-32.05-70-69.05c-.69-2.71-1.64-3.27-4.17-3.26-28.87,.08-57.75,.1-86.62,.05-1.13,0-2.26,.05-3.38,0-3.92-.24-7-3.44-7.1-7.36,.07-3.78,2.87-6.96,6.61-7.49,1.37-.13,2.75-.17,4.12-.11h88.37c.52-26.78,9.91-49.52,29.76-67.36,19.65-17.74,42.93-25.36,69.41-23.47V48.68h-30.39c.05,9-2.63,17.06-10.35,22.68-4.5,3.27-9.61,5.26-15.09,4.46-4.33-.63-9-1.77-12.54-4.12-3.67-2.57-6.64-6-8.66-10-2-3.83-2.31-8.51-3.43-13.11h-35.54c0,9.35-2.9,17.39-10.81,23-4.62,3.29-10.28,4.82-15.93,4.31-12.93-1-20.7-10.08-22.85-27.2h-35.41c.15,9-2.65,16.74-10,22.33-4.47,3.5-10.05,5.27-15.72,4.97-13.42-.59-21-9.21-23.89-27.32H15.29v43.23H233.51c1.75-.05,3.49,.03,5.23,.23,4.01,.58,6.79,4.3,6.21,8.3-.45,3.11-2.82,5.58-5.91,6.16-1.73,.25-3.47,.35-5.22,.29H15.3v181.86c7.74,0,15.45-.1,23.16,0,5.95,.1,9.56,5.57,7.12,10.61-1.19,2.73-3.93,4.45-6.9,4.33H7.56c-3.77,0-5.78-2.44-7.56-5.25V39c1.8-4.23,5.06-5.75,9.56-5.62,6.24,.18,12.49,0,18.74,0h17.1c2.82-18.32,10.15-26.83,23.35-27.55,5.79-.43,11.54,1.25,16.19,4.72,7.5,5.62,10.22,13.5,10.06,22.56h35.36c2.26-17.9,10.42-27,24.25-27.3,14.4-.31,22.29,8.07,25.63,27.35h36.13c-.19-7.13,1.27-13.6,6-18.92,8.5-9.78,23.14-11.28,33.45-3.42,7.29,5.63,9.88,13.44,9.74,22.59h35.22c8.18,0,10.44,2.26,10.44,10.46V200.77c26.16,7.89,45.17,23.87,57.52,47.93,5.24-7.23,10.09-7.27,15.26-.46v4.51ZM164.8,41c0-3.49,.14-7,0-10.47-.3-6-4.18-9.78-9.67-9.71-5.29,.07-9.16,3.84-9.33,9.64-.21,6.84-.19,13.7,0,20.55,.15,6,4.09,9.91,9.47,9.93s9.29-3.92,9.56-9.85c.1-3.36-.03-6.73-.03-10.09Zm-85-.18c0-3.62,.17-7.24,0-10.84-.33-5.56-4.13-9.15-9.36-9.16-5.12-.13-9.38,3.92-9.51,9.05,0,.14,0,.28,0,.41-.18,7.1-.19,14.21,0,21.31-.03,5.14,4.08,9.34,9.22,9.41,5.37,.11,9.29-3.55,9.61-9.29,.24-3.66,.04-7.28,.03-10.89h.01Zm151.69,0h0c0,3.74-.19,7.49,0,11.21,.11,4.99,4.22,8.97,9.21,8.92,5.11,.17,9.4-3.83,9.57-8.94v-.06c.26-7.34,.25-14.7,0-22-.06-5.07-4.21-9.13-9.28-9.07-.07,0-.13,0-.2,0-5.22,0-9,3.63-9.34,9.16-.13,3.54,.03,7.16,.03,10.77h.01Z"/><path class="e" d="M384,248.25c-5.17-6.81-10-6.77-15.26,.46-12.35-24.06-31.36-40-57.52-47.93V43.88c0-8.2-2.26-10.46-10.44-10.46h-35.22c.14-9.15-2.45-17-9.74-22.59-10.31-7.86-24.95-6.36-33.45,3.42-4.73,5.32-6.19,11.79-6,18.92h-36.13c-3.34-19.29-11.24-27.67-25.63-27.36-13.83,.29-22,9.4-24.25,27.3h-35.36c.16-9.06-2.56-16.94-10.06-22.56-4.65-3.47-10.4-5.15-16.19-4.72-13.2,.72-20.53,9.23-23.35,27.58H28.3c-6.25,0-12.5,.14-18.74,0C5.06,33.24,1.8,34.76,0,39V0H384V248.25Z"/><path class="d" d="M73,260.4c-17.42,.12-31.63-13.91-31.75-31.33s13.91-31.63,31.33-31.75c17.42-.12,31.63,13.91,31.75,31.33,0,.06,0,.12,0,.18,.04,17.36-13.97,31.48-31.33,31.57Zm-.19-15c9.04,.08,16.44-7.18,16.52-16.22v-.06c.14-9.13-7.15-16.64-16.28-16.78-9.13-.14-16.64,7.15-16.78,16.28s7.15,16.64,16.28,16.78c.08,0,.16,0,.24,0h.02Z"/><path class="d" d="M156.5,127.91c17.62,.74,31.29,15.17,30.61,32.32-.7,17.58-15.21,31.42-32.24,30.75-17.71-.7-31.69-15.47-30.82-32.58,.89-17.66,15.32-31.21,32.45-30.49Zm-1,15c-9.16,.03-16.56,7.48-16.53,16.63,.03,9.16,7.48,16.56,16.63,16.53,9.16-.03,16.56-7.48,16.53-16.63,0-.08,0-.16,0-.24-.17-9.06-7.56-16.33-16.62-16.34v.05Z"/><path class="d" d="M209.57,159.38c.03-17.44,14.18-31.55,31.62-31.52s31.55,14.18,31.52,31.62c-.03,17.44-14.18,31.55-31.62,31.52h-.09c-17.38-.12-31.42-14.24-31.43-31.62Zm15,0c-.05,9.16,7.33,16.62,16.49,16.67,9.16,.05,16.62-7.33,16.67-16.49,.05-9.1-7.25-16.54-16.35-16.67-9.17-.05-16.68,7.3-16.82,16.47v.02Z"/><path class="d" d="M279.77,280.47v-25.53c0-4.49,2.44-7.57,6.18-8.17,4.83-.79,8.7,2.54,8.77,7.78,.11,7.12,0,14.25,0,21.37v4.55h20.36c1.88,0,3.75-.05,5.62,0,4.68,.17,7.74,3.09,7.8,7.36,.06,4.43-3.07,7.53-7.95,7.59-7.74,.09-15.49,0-23.24,0-.72,0-1.45,.08-2.59,.15v21.83c0,1.5,.06,3,0,4.5-.26,4.35-3.32,7.35-7.43,7.36-4.04,.09-7.38-3.11-7.47-7.15,0-.05,0-.11,0-.16-.17-7.12-.06-14.25-.06-21.37v-5.11h-23.15c-7.16,0-10.68-2.52-10.63-7.6s3.47-7.4,10.8-7.4h22.99Z"/><path class="d" d="M148.77,232.64c7-7.67,13.77-15,20.46-22.42,2.05-2.27,4.36-3.68,7.54-3.26,4.03,.57,6.83,4.29,6.26,8.31-.19,1.36-.76,2.63-1.63,3.69-3,3.7-6.31,7.08-9.5,10.58-5.47,6-10.92,12-16.43,18-4.28,4.63-8.42,4.69-12.84,.25-3.88-3.86-7.72-7.79-11.53-11.79-3.74-3.87-4-8.42-.72-11.55s7.58-2.71,11.28,.93c2.34,2.29,4.54,4.62,7.11,7.26Z"/><path class="d" d="M66,159.83c6.9-7.55,13.47-14.88,20.22-22,1.39-1.57,3.17-2.75,5.15-3.42,3.31-.92,6.17,.42,7.93,3.48,1.86,3.21,1.29,6.27-1.13,9-6.52,7.23-13.1,14.41-19.66,21.6-2.1,2.31-4.17,4.64-6.34,6.89-3.77,3.9-7.93,4-11.77,.26-4.27-4.2-8.48-8.47-12.61-12.8-3.4-3.57-3.43-7.95-.29-11s7.5-2.79,11,.59c2.5,2.23,4.8,4.66,7.5,7.4Z"/><path class="d" d="M72.85,288.8c4.12,.05,7.42,3.42,7.38,7.54-.05,4.12-3.42,7.42-7.54,7.38s-7.42-3.42-7.38-7.54v-.07c.17-4.06,3.48-7.27,7.54-7.31Z"/><path class="e" d="M270.39,92.07c4.08-.08,7.45,3.17,7.53,7.25s-3.17,7.45-7.25,7.53h0c-4.07,.04-7.4-3.23-7.44-7.3h0c-.17-3.96,2.91-7.31,6.87-7.47,.1,0,.19,0,.29,0Z"/><path class="e" d="M164.8,41c0,3.36,.13,6.73,0,10.09-.27,5.93-4.18,9.87-9.56,9.85s-9.32-4-9.47-9.93c-.17-6.85-.19-13.71,0-20.55,.17-5.8,4-9.57,9.33-9.64,5.49-.07,9.37,3.74,9.67,9.71,.17,3.47,.03,6.98,.03,10.47Z"/><path class="e" d="M79.79,40.82c0,3.61,.17,7.23,0,10.84-.32,5.74-4.24,9.4-9.61,9.29-5.13-.05-9.27-4.23-9.26-9.36-.2-7.1-.19-14.21,0-21.31-.1-5.12,3.97-9.36,9.1-9.46,.14,0,.28,0,.41,0,5.23,0,9,3.6,9.36,9.16,.21,3.6,0,7.22,0,10.84Z"/><path class="e" d="M231.48,40.81c0-3.61-.16-7.23,0-10.83,.3-5.53,4.12-9.14,9.34-9.16,5.07-.17,9.31,3.81,9.48,8.87,0,.07,0,.13,0,.2,.24,7.35,.25,14.71,0,22-.14,5.11-4.4,9.14-9.51,9h-.06c-4.97,.03-9.05-3.92-9.18-8.89-.23-3.72,0-7.47,0-11.21l-.07,.02Z"/><path class="e" d="M72.79,245.4c-9.07,.06-16.47-7.24-16.54-16.31,0-9.13,7.39-16.53,16.52-16.54,9.13,0,16.53,7.39,16.54,16.52v.02c-.03,9.04-7.39,16.34-16.43,16.31h-.09Z"/><path class="e" d="M155.51,142.86c9.16,.18,16.43,7.74,16.26,16.9-.17,8.85-7.25,16-16.1,16.25-9.15,.26-16.79-6.94-17.05-16.09-.26-9.15,6.94-16.79,16.09-17.05,.27,0,.53,0,.8,0h0Z"/><path class="e" d="M224.56,159.36c.03-9.16,7.48-16.55,16.64-16.52,9.16,.03,16.55,7.48,16.52,16.64-.03,9.16-7.48,16.55-16.64,16.52-.06,0-.12,0-.18,0-9.08-.15-16.36-7.56-16.34-16.64Z"/></g></g></svg>