<svg xmlns="http://www.w3.org/2000/svg" viewBox="0 0 384 384"><defs><style>.cls-1{fill:#fff;}</style></defs><g id="Layer_2" data-name="Layer 2"><g id="Layer_1-2" data-name="Layer 1"><path class="cls-1" d="M384,252.75V384H0V298.5c1.78,2.81,3.79,5.25,7.56,5.25,10.37,0,20.75,0,31.12,0a7.22,7.22,0,0,0,6.9-4.33c2.44-5-1.17-10.51-7.12-10.61-7.71-.14-15.42,0-23.16,0V106.92h5.52q106.5,0,213,0a29.28,29.28,0,0,0,5.22-.29,7.33,7.33,0,0,0-.3-14.46,36.5,36.5,0,0,0-5.23-.23H15.29V48.64h30.1C48.26,66.75,55.86,75.37,69.28,76A23.5,23.5,0,0,0,85,71C92.34,65.44,95.14,57.7,95,48.7h35.38c2.15,17.12,9.92,26.25,22.85,27.2a23.75,23.75,0,0,0,15.93-4.31C177.06,66,180,58,180,48.62h35.58c1.12,4.6,1.45,9.28,3.43,13.11a27.18,27.18,0,0,0,8.66,10c3.56,2.35,8.21,3.49,12.54,4.12,5.48.8,10.59-1.19,15.09-4.46,7.72-5.62,10.4-13.64,10.35-22.68H296V198c-26.51-1.86-49.79,5.76-69.43,23.42-19.85,17.84-29.24,40.58-29.76,67.36H108.47a29.72,29.72,0,0,0-4.12.11,7.7,7.7,0,0,0-6.61,7.49,7.56,7.56,0,0,0,7.1,7.36c1.12.09,2.25,0,3.38,0q43.31,0,86.62-.05c2.53,0,3.48.55,4.17,3.26,9.44,37.07,32.76,61.21,70,69.09s68.12-5.09,91.43-35.24a80.45,80.45,0,0,0,14.6-31.75c.77-3.36-.08-6.27-3-8.21-2.77-1.82-5.92-2-8.35.21a12.47,12.47,0,0,0-3.45,5.95c-7.76,31.54-37.7,53.16-65.92,55.89-48.49,4.71-89.42-38.42-81.24-86.42,5.33-31.24,23.81-52.54,54.42-60.93,30.81-8.45,57.2.9,78.13,25,3.77,4.33,6.53,9.54,10.29,15.14-1.59-.26-1.93-.26-2.24-.37-5.61-1.93-9.53-.59-11.2,3.84-1.58,4.18.49,7.88,5.69,10.14,5,2.19,10.07,4.38,15.12,6.53,6.14,2.61,9.69,1.25,12.4-4.69Q379.85,261.94,384,252.75ZM73,260.4a31.54,31.54,0,0,0-.16-63.07A31.54,31.54,0,1,0,73,260.4ZM156.5,127.91c-17.13-.72-31.56,12.83-32.45,30.49-.87,17.11,13.11,31.88,30.82,32.58,17,.67,31.54-13.17,32.24-30.75C187.79,143.08,174.12,128.65,156.5,127.91Zm53.07,31.47a31.57,31.57,0,1,0,31.5-31.52A31.74,31.74,0,0,0,209.57,159.38Zm70.2,121.09h-23c-7.33,0-10.74,2.34-10.8,7.4s3.47,7.6,10.63,7.6h23.16v5.11c0,7.12-.11,14.25.06,21.37a7.31,7.31,0,0,0,7.47,7.31c4.11,0,7.17-3,7.43-7.36.1-1.49,0-3,0-4.5V295.63c1.14-.07,1.87-.15,2.59-.15,7.75,0,15.5,0,23.24,0,4.88-.06,8-3.16,7.95-7.59-.06-4.27-3.12-7.19-7.8-7.36-1.87-.07-3.74,0-5.62,0H294.77v-4.55c0-7.12.07-14.25,0-21.37-.07-5.24-3.94-8.57-8.77-7.78-3.74.6-6.15,3.68-6.18,8.17C279.73,263.29,279.77,271.64,279.77,280.47Zm-131-47.83c-2.57-2.62-4.8-5-7.11-7.24-3.7-3.64-8.11-4-11.28-.93s-3,7.68.72,11.55,7.65,7.88,11.53,11.77c4.42,4.44,8.56,4.38,12.84-.25,5.51-5.95,11-12,16.43-18,3.19-3.5,6.55-6.88,9.5-10.58a7.36,7.36,0,0,0-4.63-12c-3.18-.42-5.49,1-7.54,3.26C162.54,217.62,155.78,225,148.77,232.64ZM66,159.83c-2.72-2.74-5-5.17-7.48-7.5-3.52-3.38-7.95-3.58-11-.59s-3.11,7.44.29,11q6.19,6.51,12.61,12.8c3.84,3.77,8,3.64,11.77-.26,2.17-2.25,4.24-4.58,6.34-6.89,6.56-7.19,13.14-14.37,19.66-21.6,2.42-2.68,3-5.74,1.13-9-1.76-3.06-4.62-4.4-7.93-3.48a12.07,12.07,0,0,0-5.15,3.42C79.49,145,72.92,152.28,66,159.83Zm6.83,129a7.46,7.46,0,0,0-.31,14.92,7.46,7.46,0,1,0,.31-14.92ZM270.39,92.07a7.18,7.18,0,0,0-7.16,7.48,7.37,7.37,0,0,0,7.44,7.3,7.39,7.39,0,1,0-.28-14.78Z"/><path d="M384,252.75q-4.15,9.18-8.32,18.37c-2.71,5.94-6.26,7.3-12.4,4.69-5-2.15-10.08-4.34-15.12-6.53-5.2-2.26-7.27-6-5.69-10.14,1.67-4.43,5.59-5.77,11.2-3.84.31.11.65.11,2.24.37-3.76-5.6-6.52-10.81-10.29-15.14-20.93-24.08-47.32-33.43-78.13-25-30.61,8.39-49.09,29.69-54.42,60.93-8.18,48,32.75,91.13,81.24,86.42,28.22-2.73,58.16-24.35,65.92-55.89a12.47,12.47,0,0,1,3.45-5.95c2.43-2.2,5.58-2,8.35-.21,3,1.94,3.81,4.85,3,8.21a80.45,80.45,0,0,1-14.6,31.75C337.16,371,306.3,383.93,269,376.05S208.45,344,199,307c-.69-2.71-1.64-3.27-4.17-3.26q-43.31.12-86.62.05c-1.13,0-2.26.05-3.38,0a7.56,7.56,0,0,1-7.1-7.36,7.7,7.7,0,0,1,6.61-7.49,29.72,29.72,0,0,1,4.12-.11h88.37c.52-26.78,9.91-49.52,29.76-67.36C246.24,203.73,269.52,196.11,296,198V48.68H265.61c.05,9-2.63,17.06-10.35,22.68-4.5,3.27-9.61,5.26-15.09,4.46-4.33-.63-9-1.77-12.54-4.12a27.18,27.18,0,0,1-8.66-10c-2-3.83-2.31-8.51-3.43-13.11H180c0,9.35-2.9,17.39-10.81,23a23.75,23.75,0,0,1-15.93,4.31c-12.93-1-20.7-10.08-22.85-27.2H95c.15,9-2.65,16.74-10,22.33A23.5,23.5,0,0,1,69.28,76c-13.42-.59-21-9.21-23.89-27.32H15.29V91.91H233.51a36.5,36.5,0,0,1,5.23.23,7.33,7.33,0,0,1,.3,14.46,29.28,29.28,0,0,1-5.22.29q-106.5,0-213,0H15.3V288.75c7.74,0,15.45-.1,23.16,0,5.95.1,9.56,5.57,7.12,10.61a7.22,7.22,0,0,1-6.9,4.33c-10.37,0-20.75,0-31.12,0-3.77,0-5.78-2.44-7.56-5.25V39c1.8-4.23,5.06-5.75,9.56-5.62,6.24.18,12.49,0,18.74,0H45.4C48.22,15.06,55.55,6.55,68.75,5.83a24.07,24.07,0,0,1,16.19,4.72c7.5,5.62,10.22,13.5,10.06,22.56h35.36c2.26-17.9,10.42-27,24.25-27.3,14.4-.31,22.29,8.07,25.63,27.35h36.13c-.19-7.13,1.27-13.6,6-18.92a24.58,24.58,0,0,1,33.45-3.42c7.29,5.63,9.88,13.44,9.74,22.59h35.22c8.18,0,10.44,2.26,10.44,10.46v156.9c26.16,7.89,45.17,23.87,57.52,47.93,5.24-7.23,10.09-7.27,15.26-.46ZM164.8,41c0-3.49.14-7,0-10.47-.3-6-4.18-9.78-9.67-9.71-5.29.07-9.16,3.84-9.33,9.64-.21,6.84-.19,13.7,0,20.55.15,6,4.09,9.91,9.47,9.93s9.29-3.92,9.56-9.85C164.93,47.73,164.8,44.36,164.8,41Zm-85-.18c0-3.62.17-7.24,0-10.84-.33-5.56-4.13-9.15-9.36-9.16a9.28,9.28,0,0,0-9.51,9.46c-.18,7.1-.19,14.21,0,21.31A9.35,9.35,0,0,0,70.15,61c5.37.11,9.29-3.55,9.61-9.29C80,48.05,79.8,44.43,79.79,40.82Zm151.69,0h0c0,3.74-.19,7.49,0,11.21a9.12,9.12,0,0,0,9.21,8.92,9.26,9.26,0,0,0,9.57-9c.26-7.34.25-14.7,0-22a9.18,9.18,0,0,0-9.48-9.07c-5.22,0-9,3.63-9.34,9.16C231.32,33.58,231.48,37.2,231.48,40.81Z"/><path class="cls-1" d="M384,248.25c-5.17-6.81-10-6.77-15.26.46-12.35-24.06-31.36-40-57.52-47.93V43.88c0-8.2-2.26-10.46-10.44-10.46H265.56c.14-9.15-2.45-17-9.74-22.59a24.58,24.58,0,0,0-33.45,3.42c-4.73,5.32-6.19,11.79-6,18.92H180.24C176.9,13.88,169,5.5,154.61,5.81c-13.83.29-22,9.4-24.25,27.3H95c.16-9.06-2.56-16.94-10.06-22.56A24.07,24.07,0,0,0,68.75,5.83c-13.2.72-20.53,9.23-23.35,27.58H28.3c-6.25,0-12.5.14-18.74,0C5.06,33.24,1.8,34.76,0,39V0H384Z"/><path d="M73,260.4a31.54,31.54,0,1,1,31.33-31.57A31.5,31.5,0,0,1,73,260.4Zm-.19-15a16.37,16.37,0,0,0,16.52-16.28A16.53,16.53,0,1,0,72.79,245.4Z"/><path d="M156.5,127.91c17.62.74,31.29,15.17,30.61,32.32-.7,17.58-15.21,31.42-32.24,30.75-17.71-.7-31.69-15.47-30.82-32.58C124.94,140.74,139.37,127.19,156.5,127.91Zm-1,15a16.58,16.58,0,1,0,16.63,16.29A16.65,16.65,0,0,0,155.51,142.86Z"/><path d="M209.57,159.38A31.57,31.57,0,1,1,241,191,31.64,31.64,0,0,1,209.57,159.38Zm15,0a16.58,16.58,0,1,0,16.81-16.49A16.73,16.73,0,0,0,224.56,159.36Z"/><path d="M279.77,280.47c0-8.83,0-17.18,0-25.53,0-4.49,2.44-7.57,6.18-8.17,4.83-.79,8.7,2.54,8.77,7.78.11,7.12,0,14.25,0,21.37v4.55h20.36c1.88,0,3.75-.05,5.62,0,4.68.17,7.74,3.09,7.8,7.36.06,4.43-3.07,7.53-7.95,7.59-7.74.09-15.49,0-23.24,0-.72,0-1.45.08-2.59.15V317.4c0,1.5.06,3,0,4.5-.26,4.35-3.32,7.35-7.43,7.36a7.31,7.31,0,0,1-7.47-7.31c-.17-7.12-.06-14.25-.06-21.37v-5.11H256.61c-7.16,0-10.68-2.52-10.63-7.6s3.47-7.4,10.8-7.4Z"/><path d="M148.77,232.64c7-7.67,13.77-15,20.46-22.42,2.05-2.27,4.36-3.68,7.54-3.26a7.36,7.36,0,0,1,4.63,12c-3,3.7-6.31,7.08-9.5,10.58-5.47,6-10.92,12-16.43,18-4.28,4.63-8.42,4.69-12.84.25Q136.81,242,131.1,236c-3.74-3.87-4-8.42-.72-11.55s7.58-2.71,11.28.93C144,227.67,146.2,230,148.77,232.64Z"/><path d="M66,159.83c6.9-7.55,13.47-14.88,20.22-22a12.07,12.07,0,0,1,5.15-3.42c3.31-.92,6.17.42,7.93,3.48,1.86,3.21,1.29,6.27-1.13,9-6.52,7.23-13.1,14.41-19.66,21.6-2.1,2.31-4.17,4.64-6.34,6.89-3.77,3.9-7.93,4-11.77.26q-6.41-6.3-12.61-12.8c-3.4-3.57-3.43-7.95-.29-11s7.5-2.79,11,.59C61,154.66,63.3,157.09,66,159.83Z"/><path d="M72.85,288.8a7.46,7.46,0,1,1-7.54,7.31A7.62,7.62,0,0,1,72.85,288.8Z"/><path d="M270.39,92.07a7.39,7.39,0,1,1,.28,14.78,7.37,7.37,0,0,1-7.44-7.3A7.18,7.18,0,0,1,270.39,92.07Z"/><path class="cls-1" d="M164.8,41c0,3.36.13,6.73,0,10.09-.27,5.93-4.18,9.87-9.56,9.85s-9.32-4-9.47-9.93c-.17-6.85-.19-13.71,0-20.55.17-5.8,4-9.57,9.33-9.64,5.49-.07,9.37,3.74,9.67,9.71C164.94,34,164.8,37.51,164.8,41Z"/><path class="cls-1" d="M79.79,40.82c0,3.61.17,7.23,0,10.84-.32,5.74-4.24,9.4-9.61,9.29a9.35,9.35,0,0,1-9.26-9.36c-.2-7.1-.19-14.21,0-21.31a9.28,9.28,0,0,1,9.51-9.46c5.23,0,9,3.6,9.36,9.16C80,33.58,79.79,37.2,79.79,40.82Z"/><path class="cls-1" d="M231.48,40.81c0-3.61-.16-7.23,0-10.83.3-5.53,4.12-9.14,9.34-9.16a9.18,9.18,0,0,1,9.48,9.07c.24,7.35.25,14.71,0,22a9.26,9.26,0,0,1-9.57,9A9.12,9.12,0,0,1,231.55,52c-.23-3.72,0-7.47,0-11.21Z"/><path class="cls-1" d="M72.79,245.4a16.43,16.43,0,0,1-16.54-16.31,16.53,16.53,0,1,1,33.06,0A16.37,16.37,0,0,1,72.79,245.4Z"/><path class="cls-1" d="M155.51,142.86a16.58,16.58,0,0,1,.16,33.15,16.58,16.58,0,1,1-.16-33.15Z"/><path class="cls-1" d="M224.56,159.36A16.58,16.58,0,1,1,240.9,176,16.61,16.61,0,0,1,224.56,159.36Z"/></g></g></svg>