<svg xmlns="http://www.w3.org/2000/svg" width="362" height="362" viewBox="0 0 362 362">
  <g id="Employee_Hours_Report_Icon" data-name="Employee Hours Report Icon" transform="translate(-811 -486)">
    <g id="b" transform="translate(864 539)">
      <g id="c">
        <path id="Path_75" data-name="Path 75" d="M0,255.9V0H255.9V255.9ZM79.967,93.962H75.576A19.864,19.864,0,0,0,56.01,113.667q-.13,52.249,0,104.5A19.7,19.7,0,0,0,75.5,237.916q52.489.17,104.97,0a19.614,19.614,0,0,0,19.452-19.5q.16-52.379,0-104.744a19.6,19.6,0,0,0-16.373-19.325c-2.419-.433-4.918-.413-7.584-.62V90.716c0-18.832.033-37.665,0-56.5,0-8.936-6.664-15.993-15.327-16.253-4.825-.147-9.663-.073-14.494,0-2.666,0-3.718,1.286-4.378,3.858a16.28,16.28,0,0,1-2.426,5.851c-2.339,3.072-5.918,4.178-9.649,4.665-8.09.98-14.048-3.239-15.634-11.016-.48-2.326-2-3.332-4.285-3.332h-12.5c-10.662,0-17.28,6.664-17.28,17.326V91.07l-.02,2.892Z" fill="#fff"/>
        <path id="Path_76" data-name="Path 76" d="M107.983,102.891V44.208c0-10.662,6.624-17.326,17.28-17.326h12.5c2.279,0,3.805,1.033,4.285,3.332,1.586,7.777,7.544,12,15.654,11,3.732-.453,7.33-1.559,9.649-4.665a16.28,16.28,0,0,0,2.426-5.851c.666-2.572,1.746-3.832,4.378-3.858,4.831-.053,9.669-.127,14.494,0,8.663.267,15.28,7.33,15.327,16.253.047,18.832,0,37.665,0,56.5V102.6c2.666.207,5.165.187,7.584.62a19.6,19.6,0,0,1,16.373,19.325q.12,52.369,0,104.744a19.609,19.609,0,0,1-19.445,19.525q-52.479.17-104.97,0A19.7,19.7,0,0,1,84.032,227.06q-.11-52.249,0-104.5A19.868,19.868,0,0,1,103.6,102.891h4.378Zm47.98,8H105.51c-8.7,0-13.521,4.785-13.521,13.4V225.534c0,8.51,4.818,13.388,13.255,13.388H206.729c8.343,0,13.255-4.865,13.255-13.141V124.042c0-8.277-4.911-13.135-13.255-13.135Zm39.757-8.117a2.949,2.949,0,0,0,.2-.666c0-19.832.06-39.664,0-59.5a7.832,7.832,0,0,0-7.9-7.743c-3-.073-6-.12-9,.053a3.258,3.258,0,0,0-2.319,1.5c-4.078,8.5-10.856,12.795-20.252,12.935-9.8.14-16.913-4.092-21.225-12.981a3.035,3.035,0,0,0-2.126-1.413c-2.572-.173-5.165-.073-7.743-.067-6.277,0-9.33,3.079-9.33,9.33v58.523Z" transform="translate(-28.015 -8.929)" fill="#951d26"/>
        <path id="Path_77" data-name="Path 77" d="M160.007,153H210.74c8.343,0,13.255,4.858,13.255,13.135V267.87c0,8.277-4.911,13.141-13.255,13.141H109.268c-8.437.02-13.268-4.858-13.268-13.395V166.371c0-8.616,4.811-13.381,13.508-13.381h50.5Zm.113,8A56.037,56.037,0,0,0,104,216.844c-.067,30.887,25.016,56.177,55.744,56.2A56.087,56.087,0,0,0,215.984,217.1v-.28A56.09,56.09,0,0,0,160.12,161Z" transform="translate(-32.026 -51.038)" fill="#fff"/>
        <path id="Path_78" data-name="Path 78" d="M211.774,106.839H132V48.3c0-6.264,3.079-9.33,9.33-9.33,2.579,0,5.171-.107,7.743.067a3.035,3.035,0,0,1,2.126,1.413c4.312,8.89,11.422,13.121,21.225,12.981,9.4-.14,16.14-4.418,20.278-12.895a3.258,3.258,0,0,1,2.319-1.5c2.992-.173,6-.127,9-.053a7.841,7.841,0,0,1,7.9,7.744c.067,19.832,0,39.664,0,59.5A2.833,2.833,0,0,1,211.774,106.839ZM176.8,89.82l-.78-.44V63.71c0-2.259-.793-3.925-3.025-4.6-2.666-.813-4.965,1.293-4.978,4.591V87.441c0,.666-.1,1.333-.153,2.052l-.62.333c-.613-.786-1.186-1.613-1.853-2.352a28.789,28.789,0,0,0-2.312-2.286c-1.886-1.706-4.225-1.773-5.8-.2a3.9,3.9,0,0,0,.153,5.778c3.5,3.559,7.044,7.084,10.662,10.522a5.317,5.317,0,0,0,7.843,0c3.632-3.425,7.177-6.951,10.662-10.516,1.833-1.873,1.806-4.138.16-5.784s-4-1.559-5.8.213C179.487,86.641,178.181,88.287,176.8,89.82ZM144,75.072V65.836c0-2.925-1.553-4.765-3.932-4.8s-4.032,1.793-4.052,4.665Q136,74.962,136,84.189c0,2.879,1.666,4.725,4.052,4.665S144,86.954,144,84.062Zm0-23.79c0-.746.04-1.5,0-2.246a3.975,3.975,0,1,0-7.95-.04c-.06.74,0,1.493,0,2.239,0,4.2,1.333,6.217,4.1,6.137S144,55.354,144,51.282Z" transform="translate(-44.036 -12.984)" fill="#fff"/>
        <path id="Path_79" data-name="Path 79" d="M164.13,165a56.011,56.011,0,0,1-.087,112.021h-.28c-30.727,0-55.811-25.323-55.744-56.2A56.039,56.039,0,0,1,164.13,165Zm.053,104a48,48,0,0,0,.16-96C137.768,173,116,194.408,116,220.7a47.981,47.981,0,0,0,47.634,48.327h.546V269Z" transform="translate(-36.036 -55.045)" fill="#951d26"/>
        <path id="Path_80" data-name="Path 80" d="M188.839,99.837c1.386-1.546,2.666-3.179,4.178-4.625a3.985,3.985,0,0,1,5.8-.213,3.913,3.913,0,0,1-.16,5.784c-3.5,3.565-7.044,7.09-10.662,10.516a5.317,5.317,0,0,1-7.843,0c-3.632-3.439-7.177-6.964-10.662-10.522-1.833-1.866-1.806-4.138-.153-5.778s3.918-1.506,5.8.2a28.786,28.786,0,0,1,2.312,2.286c.666.74,1.24,1.566,1.853,2.352l.62-.333c.053-.666.153-1.333.153-2.052V73.714c0-3.3,2.3-5.4,4.978-4.591,2.232.666,3.032,2.339,3.025,4.6-.04,7.75,0,15.494,0,23.244V99.4Z" transform="translate(-56.08 -23.001)" fill="#951d26"/>
        <path id="Path_81" data-name="Path 81" d="M146,86.147v8.99c0,2.992-1.559,4.765-3.932,4.811s-4.032-1.806-4.052-4.665q-.01-9.246-.013-18.5c0-2.885,1.659-4.718,4.052-4.665s3.905,1.879,3.932,4.8C146.037,79.99,146,83.068,146,86.147Z" transform="translate(-46.038 -24.059)" fill="#951d26"/>
        <path id="Path_82" data-name="Path 82" d="M145.988,54.341c0,4.072-1.233,6-3.892,6.084s-4.1-1.933-4.1-6.137c0-.746-.04-1.5,0-2.239a3.975,3.975,0,1,1,7.95.04A16.978,16.978,0,0,1,145.988,54.341Z" transform="translate(-46.029 -16.043)" fill="#951d26"/>
        <path id="Path_83" data-name="Path 83" d="M168.18,273.041A47.98,47.98,0,0,1,120,225.26v-.546c0-26.289,21.738-47.734,48.314-47.674a48,48,0,0,1-.133,96Zm3.832-61.975V198.325c0-3.165-1.473-4.938-4-4.931s-4,1.773-4,4.951c0,7.5-.053,15,0,22.491a3.685,3.685,0,0,1-1.746,3.505c-4.372,3.045-8.663,6.2-12.968,9.33-2.419,1.779-2.945,4-1.513,6s3.785,2.206,6.164.506c5.278-3.785,10.5-7.644,15.78-11.422A5.19,5.19,0,0,0,172,224.087c-.02-4.378.013-8.71.013-13.048Zm-3.885-29.988a4,4,0,1,0,3.865,4.125v-.027a4,4,0,0,0-3.865-4.118v.02ZM132,225.147a4,4,0,1,0-4.118,3.878h.033A4,4,0,0,0,132,225.147Zm79.967-.107a4,4,0,1,0-4,4,4,4,0,0,0,4-4ZM168.02,269.022a4,4,0,1,0-4-4v.053a4.043,4.043,0,0,0,4.025,3.958Z" transform="translate(-40.033 -59.061)" fill="#fff"/>
        <path id="Path_84" data-name="Path 84" d="M185.539,219.2c0,4.338-.053,8.663,0,13a5.191,5.191,0,0,1-2.266,4.665c-5.278,3.778-10.5,7.637-15.78,11.422-2.379,1.7-4.751,1.453-6.164-.506s-.906-4.2,1.513-6c4.3-3.145,8.6-6.3,12.968-9.33a3.685,3.685,0,0,0,1.746-3.505c-.087-7.49-.047-14.994,0-22.491,0-3.179,1.453-4.951,4-4.951s4,1.766,4,4.931C185.553,210.706,185.539,214.958,185.539,219.2Z" transform="translate(-53.56 -67.225)" fill="#951d26"/>
        <path id="Path_85" data-name="Path 85" d="M190.171,183.069a4,4,0,1,1-4.092,3.905v-.04A4,4,0,0,1,190.171,183.069Z" transform="translate(-62.077 -61.073)" fill="#951d26"/>
        <path id="Path_86" data-name="Path 86" d="M134,247.188a4,4,0,1,1-3.918-4.078h.04A4.034,4.034,0,0,1,134,247.188Z" transform="translate(-42.034 -81.102)" fill="#951d26"/>
        <path id="Path_87" data-name="Path 87" d="M254,247.068a4,4,0,1,1-4-4A4,4,0,0,1,254,247.068Z" transform="translate(-82.067 -81.089)" fill="#951d26"/>
        <path id="Path_88" data-name="Path 88" d="M190.072,311.087a4,4,0,1,1,3.945-4.052v.053A4,4,0,0,1,190.072,311.087Z" transform="translate(-62.057 -101.112)" fill="#951d26"/>
      </g>
    </g>
    <g id="Ellipse_4" data-name="Ellipse 4" transform="translate(811 486)" fill="none" stroke="#951d26" stroke-width="10">
      <circle cx="181" cy="181" r="181" stroke="none"/>
      <circle cx="181" cy="181" r="176" fill="none"/>
    </g>
  </g>
</svg>
