<svg id="White_Bg_Icons" data-name="White Bg Icons" xmlns="http://www.w3.org/2000/svg" viewBox="0 0 49.24 49.24"><defs><style>.cls-1,.cls-2{fill:#951d26;}.cls-2{opacity:0.4;isolation:isolate;}</style></defs><title>-icon_cards_red</title><g id="Outer_Circle" data-name="Outer Circle"><path id="path11508" class="cls-1" d="M24.62,1.42a23.2,23.2,0,1,0,23.2,23.2,23.23,23.23,0,0,0-23.2-23.2m0,47.82A24.62,24.62,0,1,1,49.24,24.62,24.65,24.65,0,0,1,24.62,49.24"/></g><g id="Cards"><path id="path13806" class="cls-1" d="M14.66,18.17a.94.94,0,0,0-.94.94v11a.94.94,0,0,0,.94.94H34.58a1,1,0,0,0,1-.94v-11a1,1,0,0,0-1-.94Zm19.92,14H14.66a2.07,2.07,0,0,1-2.07-2.07v-11A2.07,2.07,0,0,1,14.66,17H34.58a2.07,2.07,0,0,1,2.07,2.07v11a2.07,2.07,0,0,1-2.07,2.07"/><path id="path13808" class="cls-1" d="M36.07,21.76H13.31V20.64H36.07Z"/><path id="path13810" class="cls-1" d="M36.07,24.79H13.15V23.66H36.07Z"/><path id="path13824" class="cls-2" d="M36.07,24.23H13.15V21.41H36.07Z"/></g></svg>