<svg xmlns="http://www.w3.org/2000/svg" width="362" height="362" viewBox="0 0 362 362">
  <g id="CC_Trans_Report_Icon" data-name="CC Trans Report Icon" transform="translate(-1016 -22)">
    <g id="b" transform="translate(1093 99)">
      <g id="c" transform="translate(0 0)">
        <path id="Path_37" data-name="Path 37" d="M207.116,183.732v23.4H0V.02H78.325c-1.662,1.2-2.132,2.813-2.127,4.847q.073,48.138.035,96.283v2.123h6.928V7.045H165.8V36.63c0,3.69.994,4.7,4.648,4.7q13.622.013,27.247,0h2.379V179.285h-47.9V186c.443.04.717.084.985.084q24.927,0,49.854.024a4.622,4.622,0,0,0,4.1-2.379ZM93.405,103.416H152.06v68.9h33.194c3.493,0,4.6-1.107,4.6-4.588V73.485c0-3.5-1.04-4.52-4.6-4.52H98.071c-3.61,0-4.666,1.062-4.67,4.708q-.013,13.822,0,27.645l0,2.1ZM72.7,206.733H126.6c11.24,0,18.462-7.16,18.475-18.371q.03-29.881,0-59.748a22.229,22.229,0,0,0-.363-4.613c-1.8-8.411-8.679-13.745-17.707-13.75q-54.1,0-108.188,0c-11.158.011-18.407,7.3-18.409,18.482v59.54c0,11.2,7.238,18.453,18.4,18.457Q45.759,206.75,72.7,206.733Zm44.688-151.58c6.658,0,13.316.022,19.971,0,3.074-.015,4.3-1.255,4.312-4.285.018-7.526-.013-15.064.018-22.594a3.944,3.944,0,0,0-3.032-4.181c-6.445-2.109-12.855-4.329-19.321-6.366a6.532,6.532,0,0,0-3.688.029c-6.339,1.992-12.63,4.135-18.931,6.242-2.669.885-3.32,1.757-3.32,4.562q-.023,11,0,21.99c0,3.468,1.131,4.586,4.619,4.6,6.452.02,12.915.009,19.372.007Zm69.018-6.764H148.656v6.618H186.41Zm-27.667-7.134V34.549H148.691v6.707Z" transform="translate(0 -0.016)" fill="#fff"/>
        <path id="Path_38" data-name="Path 38" d="M475.178,183.716a4.61,4.61,0,0,1-4.1,2.39q-24.927-.053-49.854-.024c-.268,0-.533-.044-.985-.084v-6.729h47.9V41.32H438.506c-3.645,0-4.637-1.014-4.648-4.7q-.013-13.626,0-27.249V7.03H351.223v96.223H344.3V101.13q0-48.141-.035-96.283c0-2.034.465-3.648,2.127-4.847h92.051c.983.9,1.992,1.771,2.939,2.7q15.495,15.468,30.965,30.963c.985.987,1.892,2.052,2.835,3.079ZM440.9,12.4V34.272h21.9Z" transform="translate(-268.062 0)" fill="#951d26"/>
        <path id="Path_39" data-name="Path 39" d="M806.49,36.762c-.943-1.027-1.85-2.092-2.835-3.079q-15.478-15.5-30.972-30.965c-.934-.927-1.95-1.8-2.933-2.7h36.742V36.762Z" transform="translate(-599.374 -0.016)" fill="#fff"/>
        <path id="Path_40" data-name="Path 40" d="M422,345.946V316.2c0-3.645,1.06-4.708,4.67-4.708h87.179c3.564,0,4.6,1.018,4.6,4.52v94.242c0,3.484-1.107,4.584-4.6,4.588q-15.638.017-31.277,0h-1.921V345.946Zm58.5-27.4H429.028v6.567H480.5Zm-51.492,20.352h51.466v-6.607H429.008Zm82.453-20.339H487.643v6.565h23.818Zm-.013,20.383v-6.669H487.654v6.669Zm.031,7.136H487.62v6.578h23.858Zm-.058,34.148v-6.673H487.647v6.673Zm.044,7.151H487.614v6.609h23.845Zm-.044,20.454v-6.594H487.66v6.594Zm-23.787-48.055v6.64H511.39v-6.64Z" transform="translate(-328.595 -242.545)" fill="#951d26"/>
        <path id="Path_41" data-name="Path 41" d="M74.128,594.506H20.234c-11.167,0-18.4-7.26-18.4-18.457v-59.54c0-11.184,7.251-18.477,18.409-18.488H128.429c9.026,0,15.9,5.33,17.707,13.75a22.43,22.43,0,0,1,.363,4.613q.033,29.881,0,59.748c-.013,11.2-7.236,18.36-18.475,18.371q-26.949.023-53.9,0Zm.02-6.877H128.23c7.134,0,11.361-4.152,11.366-11.211q.027-30.17,0-60.339c0-6.948-4.256-11.164-11.215-11.167H20.013c-7.039,0-11.3,4.276-11.3,11.319q-.013,29.967,0,59.934c0,7.3,4.205,11.461,11.558,11.463Q47.21,587.633,74.148,587.629Z" transform="translate(-1.425 -387.789)" fill="#951d26"/>
        <path id="Path_42" data-name="Path 42" d="M445.946,116.574c-6.456,0-12.911.011-19.367,0-3.488-.022-4.619-1.129-4.619-4.6q-.023-11,0-21.99c0-2.8.646-3.67,3.32-4.562,6.3-2.107,12.592-4.247,18.931-6.242a6.537,6.537,0,0,1,3.683-.033c6.465,2.032,12.875,4.252,19.321,6.352a3.933,3.933,0,0,1,3.032,4.181c-.031,7.526,0,15.062-.018,22.594,0,3.03-1.237,4.27-4.312,4.285C459.261,116.594,452.6,116.572,445.946,116.574Zm-17.112-24.89.186.618h34.219l.177-.474a7.925,7.925,0,0,0-1.348-.766c-4.962-1.673-9.923-3.355-14.914-4.934a4.386,4.386,0,0,0-2.5.113c-4.73,1.516-9.433,3.114-14.139,4.7-.578.195-1.122.489-1.682.739Zm6.78,17.849V99.46h-6.589v10.073Zm13.787-.018V99.478h-6.558v10.038Zm7.174-10.053V109.5h6.775v-8.581c0-.454-.064-.905-.1-1.454Z" transform="translate(-328.554 -61.434)" fill="#951d26"/>
        <path id="Path_43" data-name="Path 43" d="M709.374,218.55v6.618H671.62V218.55Z" transform="translate(-522.964 -170.176)" fill="#951d26"/>
        <path id="Path_44" data-name="Path 44" d="M681.827,162.727H671.78V156.02h10.047Z" transform="translate(-523.089 -121.487)" fill="#951d26"/>
        <path id="Path_45" data-name="Path 45" d="M780.88,56.02l21.9,21.873h-21.9Z" transform="translate(-608.041 -43.621)" fill="#fff"/>
        <path id="Path_46" data-name="Path 46" d="M505.218,343.35v6.567H453.75V343.35Z" transform="translate(-353.317 -267.353)" fill="#fff"/>
        <path id="Path_47" data-name="Path 47" d="M453.66,412.057V405.45h51.466v6.607Z" transform="translate(-353.247 -315.708)" fill="#fff"/>
        <path id="Path_48" data-name="Path 48" d="M742.388,343.41v6.565H718.57V343.41Z" transform="translate(-559.522 -267.4)" fill="#fff"/>
        <path id="Path_49" data-name="Path 49" d="M742.414,412.039H718.62V405.37h23.794Z" transform="translate(-559.561 -315.646)" fill="#fff"/>
        <path id="Path_50" data-name="Path 50" d="M742.328,467.74v6.578H718.47V467.74Z" transform="translate(-559.444 -364.211)" fill="#fff"/>
        <path id="Path_51" data-name="Path 51" d="M742.364,598.543H718.59V591.87h23.774Z" transform="translate(-559.538 -460.866)" fill="#fff"/>
        <path id="Path_52" data-name="Path 52" d="M742.285,654.32v6.609H718.44V654.32Z" transform="translate(-559.421 -509.493)" fill="#fff"/>
        <path id="Path_53" data-name="Path 53" d="M742.411,723.544H718.65V716.95h23.761Z" transform="translate(-559.585 -558.261)" fill="#fff"/>
        <path id="Path_54" data-name="Path 54" d="M718.53,529.63h23.756v6.64H718.53Z" transform="translate(-559.491 -412.402)" fill="#fff"/>
        <path id="Path_55" data-name="Path 55" d="M98.341,611.877H44.458c-7.351,0-11.556-4.17-11.558-11.463V540.479c0-7.043,4.265-11.317,11.3-11.319H152.572c6.959,0,11.209,4.219,11.215,11.167q.03,30.17,0,60.339c0,7.059-4.232,11.209-11.366,11.211Q125.386,611.88,98.341,611.877ZM53.467,563.614c3.291,0,6.583.038,9.874,0,2.751-.04,3.964-1.217,3.984-3.931q.06-9.771,0-19.544c-.015-2.822-1.259-4.066-4.068-4.079q-9.671-.047-19.345,0c-2.8,0-4.106,1.29-4.128,4.055q-.046,9.671,0,19.343c0,2.906,1.244,4.115,4.205,4.15,3.165.038,6.321.009,9.478.007Zm87.912,20.724c-3.836,0-7.672-.029-11.51,0-2.636.026-3.889,1.193-3.931,3.792q-.1,6.458,0,12.917c.04,2.669,1.348,3.92,4.044,3.929q11.4.043,22.8,0c2.838,0,4.084-1.244,4.1-4.044q.05-6.255,0-12.512c-.016-2.877-1.166-4.062-4.015-4.086C149.05,584.311,145.214,584.336,141.378,584.338Zm-1.645-13.619H126.075v6.711c4.307,0,8.462.029,12.616-.049.354,0,.972-.693,1-1.091.108-1.786.049-3.606.049-5.571h0ZM64.1,570.63v6.64H77.588v-6.64Zm34.15.073H84.691v6.609H98.25V570.7ZM43.407,591.091h13.5V584.5h-13.5Zm61.924,0h13.5v-6.627h-13.5ZM56.953,570.672h-13.5v6.64h13.5Zm61.948,0H105.336v6.62H118.9Zm-13.566-24.358h6.627v-6.64h-6.627Zm48.031.049v-6.691H146.8v6.691Zm-34.21-6.72v6.684h6.618v-6.684Zm13.809,6.687h6.64v-6.622h-6.64Z" transform="translate(-25.618 -412.036)" fill="#fff"/>
        <path id="Path_56" data-name="Path 56" d="M453.06,116.652c.56-.25,1.107-.545,1.682-.739,4.706-1.589,9.409-3.187,14.139-4.7a4.386,4.386,0,0,1,2.5-.113c4.991,1.578,9.96,3.26,14.914,4.934a8.189,8.189,0,0,1,1.348.766l-.177.474H453.246Z" transform="translate(-352.78 -86.402)" fill="#fff"/>
        <path id="Path_57" data-name="Path 57" d="M460.509,181.873H453.92V171.8h6.589Z" transform="translate(-353.45 -133.774)" fill="#fff"/>
        <path id="Path_58" data-name="Path 58" d="M522.913,181.918H516.35V171.88h6.563Z" transform="translate(-402.061 -133.836)" fill="#fff"/>
        <path id="Path_59" data-name="Path 59" d="M578.39,171.81h6.669c.04.549.1,1,.1,1.454v8.581H578.39Z" transform="translate(-450.37 -133.782)" fill="#fff"/>
        <path id="Path_60" data-name="Path 60" d="M77.656,587.8c-3.156,0-6.313.029-9.469,0-2.966-.035-4.205-1.244-4.205-4.15q-.033-9.671,0-19.343c.013-2.765,1.317-4.053,4.119-4.066q9.671-.043,19.345,0c2.809.013,4.053,1.257,4.068,4.079q.05,9.771,0,19.544c-.016,2.714-1.228,3.891-3.984,3.931C84.239,587.845,80.947,587.8,77.656,587.8Zm-6.68-20.585v13.544H84.464V567.221H70.976Z" transform="translate(-49.807 -436.223)" fill="#951d26"/>
        <path id="Path_61" data-name="Path 61" d="M468.587,778.408c3.834,0,7.669-.026,11.51,0,2.849.024,4,1.2,4.015,4.086q.04,6.255,0,12.512c-.02,2.8-1.266,4.035-4.1,4.044q-11.4.037-22.8,0c-2.7,0-4-1.259-4.044-3.929q-.093-6.458,0-12.917c.042-2.6,1.295-3.763,3.931-3.792,3.82-.033,7.656,0,11.49,0Zm-8.411,13.628h16.957v-6.6H460.176Z" transform="translate(-352.827 -606.107)" fill="#951d26"/>
        <path id="Path_62" data-name="Path 62" d="M467.521,716.92c0,1.966.06,3.774-.049,5.571-.024.4-.642,1.085-1,1.091-4.154.077-8.309.049-12.616.049V716.92Z" transform="translate(-353.403 -558.237)" fill="#951d26"/>
        <path id="Path_63" data-name="Path 63" d="M173.86,716.52h13.488v6.64H173.86Z" transform="translate(-135.378 -557.926)" fill="#951d26"/>
        <path id="Path_64" data-name="Path 64" d="M280.449,716.85v6.609H266.89V716.85Z" transform="translate(-207.817 -558.183)" fill="#951d26"/>
        <path id="Path_65" data-name="Path 65" d="M80.38,785.779V779.19h13.5v6.589Z" transform="translate(-62.589 -606.725)" fill="#951d26"/>
        <path id="Path_66" data-name="Path 66" d="M360.15,785.66v-6.64h13.5v6.64Z" transform="translate(-280.435 -606.592)" fill="#951d26"/>
        <path id="Path_67" data-name="Path 67" d="M94.082,716.71v6.64H80.58v-6.64Z" transform="translate(-62.744 -558.074)" fill="#951d26"/>
        <path id="Path_68" data-name="Path 68" d="M373.736,716.74v6.62H360.17v-6.62Z" transform="translate(-280.45 -558.097)" fill="#951d26"/>
        <path id="Path_69" data-name="Path 69" d="M360.17,583.3v-6.64H366.8v6.64Z" transform="translate(-280.45 -449.022)" fill="#951d26"/>
        <path id="Path_70" data-name="Path 70" d="M554.078,583.341H547.52V576.65h6.558Z" transform="translate(-426.332 -449.015)" fill="#951d26"/>
        <path id="Path_71" data-name="Path 71" d="M422.61,576.52h6.618V583.2H422.61Z" transform="translate(-329.07 -448.913)" fill="#951d26"/>
        <path id="Path_72" data-name="Path 72" d="M485,583.432V576.81h6.64v6.622Z" transform="translate(-377.65 -449.139)" fill="#951d26"/>
        <path id="Path_73" data-name="Path 73" d="M95.64,591.84h13.488v13.542H95.64Z" transform="translate(-74.471 -460.843)" fill="#fff"/>
        <path id="Path_74" data-name="Path 74" d="M485,816.808v-6.6h16.957v6.6Z" transform="translate(-377.65 -630.879)" fill="#fff"/>
      </g>
    </g>
    <g id="Ellipse_2" data-name="Ellipse 2" transform="translate(1016 22)" fill="none" stroke="#951d26" stroke-width="10">
      <circle cx="181" cy="181" r="181" stroke="none"/>
      <circle cx="181" cy="181" r="176" fill="none"/>
    </g>
  </g>
</svg>
