<svg xmlns="http://www.w3.org/2000/svg" viewBox="0 0 935.74 935.74"><defs><style>.cls-1{fill:#fff;}</style></defs><g id="Layer_2" data-name="Layer 2"><g id="Layer_1-2" data-name="Layer 1"><path class="cls-1" d="M935.74,830V935.74H0V0H353.87c-7.51,5.42-9.63,12.71-9.61,21.9q.33,217.48.16,435v9.59h31.3V31.74H749.08V42.29q0,61.56,0,123.11c0,16.67,4.49,21.23,21,21.25q61.55.06,123.1,0h10.75V809.91H687.51v30.35c2,.18,3.24.38,4.45.38q112.62,0,225.24.11C925.84,840.77,931.36,836.63,935.74,830ZM422,467.14H687V778.42h8.66q70.65,0,141.31,0c15.78,0,20.77-5,20.78-20.73q0-212.88,0-425.78c0-15.82-4.7-20.42-20.8-20.42q-196.94,0-393.87,0c-16.31,0-21.08,4.8-21.1,21.27q-.06,62.44,0,124.9ZM328.47,933.92q121.75,0,243.49,0c50.78,0,83.41-32.35,83.47-83q.14-135,0-269.94c0-7-.2-14.08-1.64-20.84-8.15-38-39.21-62.1-80-62.12Q329.37,498,85,498C34.59,498.05,1.84,531,1.83,581.5q0,134.5,0,269c0,50.59,32.7,83.37,83.15,83.39Q206.74,934,328.47,933.92Zm201.9-684.83c30.08,0,60.16.1,90.23,0,13.89-.07,19.44-5.67,19.48-19.36.08-34-.06-68.06.08-102.08,0-9.86-4.29-15.82-13.7-18.89C597.34,99.23,568.38,89.2,539.17,80a29.52,29.52,0,0,0-16.66.13c-28.64,9-57.06,18.68-85.53,28.2-12.06,4-15,7.94-15,20.61q-.11,49.68,0,99.35c0,15.67,5.11,20.72,20.87,20.77C472,249.15,501.2,249.1,530.37,249.09Zm311.82-30.56H671.62v29.9H842.19Zm-125-32.23V156H671.78V186.3Z"/><path d="M935.74,830c-4.38,6.68-9.9,10.82-18.54,10.8q-112.62-.24-225.24-.11c-1.21,0-2.41-.2-4.45-.38V809.91h216.4V186.66H893.16q-61.54,0-123.1,0c-16.47,0-20.95-4.58-21-21.25q-.06-61.56,0-123.11V31.74H375.72V466.47h-31.3v-9.59q0-217.5-.16-435c0-9.19,2.1-16.48,9.61-21.9H769.75c4.44,4.06,9,8,13.28,12.19q70,69.89,139.9,139.89c4.45,4.46,8.55,9.27,12.81,13.91ZM780.88,56v98.82h98.94Z"/><path class="cls-1" d="M935.74,166c-4.26-4.64-8.36-9.45-12.81-13.91Q853,82.07,783,12.19C778.78,8,774.19,4.06,769.75,0h166Z"/><path d="M422,467.14v-9.5q0-62.44,0-124.9c0-16.47,4.79-21.27,21.1-21.27q196.94,0,393.87,0c16.1,0,20.79,4.6,20.8,20.42q0,212.9,0,425.78c0,15.74-5,20.71-20.78,20.73q-70.65.08-141.31,0H687V467.14Zm264.3-123.81H453.75V373H686.28ZM453.66,435.28H686.18V405.43H453.66Zm372.52-91.89H718.57v29.66H826.18Zm-.06,92.09V405.35H718.62v30.13Zm.14,32.24H718.47v29.72H826.26ZM826,622V591.85H718.59V622Zm.2,32.31H718.44v29.86H826.17ZM826,746.72V716.93H718.65v29.79ZM718.53,529.61v30H825.86v-30Z"/><path d="M328.47,933.92q-121.74,0-243.49,0c-50.45,0-83.14-32.8-83.15-83.39q0-134.5,0-269C1.84,531,34.59,498.05,85,498q244.4,0,488.8,0c40.78,0,71.84,24.08,80,62.12,1.44,6.76,1.63,13.88,1.64,20.84q.15,135,0,269.94c-.06,50.61-32.69,82.95-83.47,83Q450.22,934,328.47,933.92Zm.09-31.07q122.18,0,244.34,0c32.23,0,51.33-18.76,51.35-50.65q.12-136.31,0-272.61c0-31.39-19.23-50.44-50.67-50.45q-244.8,0-489.6,0c-31.8,0-51.06,19.32-51.07,51.14q-.06,135.39,0,270.78c0,33,19,51.78,52.22,51.79Q206.85,902.87,328.56,902.85Z"/><path d="M530.37,249.1c-29.17,0-58.33.05-87.5,0C427.11,249,422,244,422,228.31q-.11-49.68,0-99.35c0-12.67,2.92-16.58,15-20.61,28.47-9.52,56.89-19.19,85.53-28.2A29.52,29.52,0,0,1,539.17,80c29.21,9.18,58.17,19.21,87.29,28.7,9.41,3.07,13.73,9,13.7,18.89-.14,34,0,68.05-.08,102.08,0,13.69-5.59,19.29-19.48,19.36C590.53,249.19,560.45,249.09,530.37,249.1ZM453.06,136.65l.84,2.79H608.5l.8-2.14c-2-1.17-3.92-2.72-6.09-3.46-22.42-7.56-44.83-15.16-67.38-22.29-3.4-1.07-7.8-.62-11.29.51-21.37,6.85-42.62,14.07-63.88,21.25C458.05,134.19,455.59,135.52,453.06,136.65Zm30.63,80.64V171.78H453.92v45.51Zm62.29-.08V171.86H516.35v45.35Zm32.41-45.42v45.34H609c0-13.4,0-26.09,0-38.77,0-2.05-.29-4.09-.47-6.57Z"/><path d="M842.19,218.53v29.9H671.62v-29.9Z"/><path d="M717.17,186.3H671.78V156h45.39Z"/><path class="cls-1" d="M780.88,56l98.94,98.82H780.88Z"/><path class="cls-1" d="M686.28,343.33V373H453.75V343.33Z"/><path class="cls-1" d="M453.66,435.28V405.43H686.18v29.85Z"/><path class="cls-1" d="M826.18,343.39v29.66H718.57V343.39Z"/><path class="cls-1" d="M826.12,435.48H718.62V405.35h107.5Z"/><path class="cls-1" d="M826.26,467.72v29.72H718.47V467.72Z"/><path class="cls-1" d="M826,622H718.59V591.85H826Z"/><path class="cls-1" d="M826.17,654.3v29.86H718.44V654.3Z"/><path class="cls-1" d="M826,746.72H718.65V716.93H826Z"/><path class="cls-1" d="M718.53,529.61H825.86v30H718.53Z"/><path class="cls-1" d="M328.56,902.85q-121.73,0-243.44,0c-33.21,0-52.21-18.84-52.22-51.79q0-135.39,0-270.78c0-31.82,19.27-51.13,51.07-51.14q244.8,0,489.6,0c31.44,0,50.64,19.06,50.67,50.45q.13,136.3,0,272.61c0,31.89-19.12,50.64-51.35,50.65Q450.74,902.87,328.56,902.85ZM125.82,684.8c14.87,0,29.74.17,44.61,0,12.43-.18,17.91-5.5,18-17.76q.27-44.15,0-88.3c-.07-12.75-5.69-18.37-18.38-18.43q-43.7-.21-87.4,0C70,560.32,64.1,566.14,64,578.63q-.21,43.7,0,87.39c0,13.13,5.62,18.59,19,18.75C97.3,684.94,111.56,684.81,125.82,684.8ZM523,778.43c-17.33,0-34.66-.13-52,0-11.91.12-17.57,5.39-17.76,17.13q-.47,29.17,0,58.36c.18,12.06,6.09,17.71,18.27,17.75q51.53.19,103,0c12.82,0,18.45-5.62,18.54-18.27q.23-28.26,0-56.53c-.07-13-5.27-18.35-18.14-18.46C557.66,778.31,540.33,778.42,523,778.43Zm-7.43-61.53H453.86v30.32c19.46,0,38.23.13,57-.22,1.6,0,4.39-3.13,4.5-4.93C515.85,734,515.58,725.78,515.58,716.9Zm-341.72-.4v30H234.8v-30Zm154.29.33H266.89v29.86h61.26ZM80.38,808.94h61V779.17h-61Zm279.77,0h61V779h-61ZM141.58,716.69h-61v30h61Zm279.88,0H360.17v29.91h61.29ZM360.17,606.64h29.94v-30H360.17Zm217,.22V576.63H547.52v30.23ZM422.61,576.5v30.2h29.9V576.5ZM485,606.71H515V576.79H485Z"/><path class="cls-1" d="M453.06,136.65c2.53-1.13,5-2.46,7.6-3.34,21.26-7.18,42.51-14.4,63.88-21.25,3.49-1.13,7.89-1.58,11.29-.51,22.55,7.13,45,14.73,67.38,22.29,2.17.74,4.06,2.29,6.09,3.46l-.8,2.14H453.9Z"/><path class="cls-1" d="M483.69,217.29H453.92V171.78h29.77Z"/><path class="cls-1" d="M546,217.21H516.35V171.86H546Z"/><path class="cls-1" d="M578.39,171.79h30.13c.18,2.48.46,4.52.47,6.57,0,12.68,0,25.37,0,38.77H578.39Z"/><path d="M125.82,684.81c-14.26,0-28.52.13-42.78,0-13.4-.16-19-5.62-19-18.75q-.15-43.69,0-87.39c.06-12.49,5.95-18.31,18.61-18.37q43.69-.19,87.4,0c12.69.06,18.31,5.68,18.38,18.43q.23,44.14,0,88.3c-.07,12.26-5.55,17.58-18,17.76C155.56,685,140.69,684.8,125.82,684.81Zm-30.18-93V653h60.94V591.82Z"/><path d="M523,778.43c17.32,0,34.65-.12,52,0,12.87.11,18.07,5.43,18.14,18.46q.18,28.26,0,56.53c-.09,12.65-5.72,18.23-18.54,18.27q-51.52.16-103,0c-12.18,0-18.09-5.69-18.27-17.75q-.42-29.18,0-58.36c.19-11.74,5.85-17,17.76-17.13C488.35,778.3,505.68,778.43,523,778.43ZM485,840h76.61V810.19H485Z"/><path d="M515.58,716.9c0,8.88.27,17.05-.22,25.17-.11,1.8-2.9,4.9-4.5,4.93-18.77.35-37.54.22-57,.22V716.9Z"/><path d="M173.86,716.5H234.8v30H173.86Z"/><path d="M328.15,716.83v29.86H266.89V716.83Z"/><path d="M80.38,808.94V779.17h61v29.77Z"/><path d="M360.15,809V779h61v30Z"/><path d="M141.58,716.69v30h-61v-30Z"/><path d="M421.46,716.72v29.91H360.17V716.72Z"/><path d="M360.17,606.64v-30h29.94v30Z"/><path d="M577.15,606.86H547.52V576.63h29.63Z"/><path d="M422.61,576.5h29.9v30.2h-29.9Z"/><path d="M485,606.71V576.79H515v29.92Z"/><path class="cls-1" d="M95.64,591.82h60.94V653H95.64Z"/><path class="cls-1" d="M485,840V810.19h76.61V840Z"/></g></g></svg>