<?xml version="1.0" encoding="UTF-8" standalone="no"?>
<!-- Created with Inkscape (http://www.inkscape.org/) -->

<svg
   xmlns:dc="http://purl.org/dc/elements/1.1/"
   xmlns:cc="http://creativecommons.org/ns#"
   xmlns:rdf="http://www.w3.org/1999/02/22-rdf-syntax-ns#"
   xmlns:svg="http://www.w3.org/2000/svg"
   xmlns="http://www.w3.org/2000/svg"
   xmlns:sodipodi="http://sodipodi.sourceforge.net/DTD/sodipodi-0.dtd"
   xmlns:inkscape="http://www.inkscape.org/namespaces/inkscape"
   width="49.243"
   height="49.243"
   viewBox="0 0 49.243001 49.243001"
   id="svg20298"
   version="1.1"
   inkscape:version="0.92.3 (2405546, 2018-03-11)"
   sodipodi:docname="icon_machines.svg">
  <defs
     id="defs20300" />
  <sodipodi:namedview
     id="base"
     pagecolor="#ffffff"
     bordercolor="#666666"
     borderopacity="1.0"
     inkscape:pageopacity="0.0"
     inkscape:pageshadow="2"
     inkscape:zoom="10.29588"
     inkscape:cx="8.8384878"
     inkscape:cy="24.6215"
     inkscape:document-units="px"
     inkscape:current-layer="layer1"
     showgrid="false"
     inkscape:window-width="1920"
     inkscape:window-height="1017"
     inkscape:window-x="-8"
     inkscape:window-y="-8"
     inkscape:window-maximized="1"
     units="px" />
  <metadata
     id="metadata20303">
    <rdf:RDF>
      <cc:Work
         rdf:about="">
        <dc:format>image/svg+xml</dc:format>
        <dc:type
           rdf:resource="http://purl.org/dc/dcmitype/StillImage" />
        <dc:title></dc:title>
      </cc:Work>
    </rdf:RDF>
  </metadata>
  <g
     inkscape:label="Layer 1"
     inkscape:groupmode="layer"
     id="layer1"
     transform="translate(0,-1003.1192)">
    <path
       d="m 24.6215,1004.5389 c -12.79388,0 -23.202736,10.4087 -23.202736,23.2023 0,12.7936 10.408856,23.201 23.202736,23.201 12.79388,0 23.202736,-10.4074 23.202736,-23.201 0,-12.7936 -10.408856,-23.2023 -23.202736,-23.2023 m 0,47.8233 C 11.045112,1052.3622 0,1041.3161 0,1027.7412 c 0,-13.5761 11.045112,-24.621 24.6215,-24.621 13.576388,0 24.6215,11.0449 24.6215,24.621 0,13.5749 -11.045112,24.621 -24.6215,24.621"
       style="fill:#951d26;fill-opacity:1;fill-rule:nonzero;stroke:none"
       id="path11496"
       inkscape:connector-curvature="0" />
    <path
       d="m 34.046496,1020.7447 -18.850192,0 0,-3.0175 c 0,-0.7275 0.592506,-1.32 1.321264,-1.32 l 16.083913,0 c 0.796258,0 1.445015,0.6475 1.445015,1.4438 l 0,2.8937 z m -18.850192,0.895 18.850192,0 0,17.1435 c 0,0.7275 -0.592506,1.32 -1.321264,1.32 l -16.207664,0 c -0.728758,0 -1.321264,-0.5925 -1.321264,-1.32 l 0,-17.1435 z m 17.443927,-6.1287 -16.122663,0 c -1.222513,0 -2.217523,0.995 -2.217523,2.2162 l 0,21.056 c 0,1.2213 0.99501,2.2163 2.217523,2.2163 l 16.207664,0 c 1.223763,0 2.217523,-0.995 2.217523,-2.2163 l 0,-20.9697 c 0,-1.27 -1.032511,-2.3025 -2.302524,-2.3025"
       style="fill:#951d26;fill-opacity:1;fill-rule:nonzero;stroke:none"
       id="path13620"
       inkscape:connector-curvature="0" />
    <path
       d="m 18.524038,1030.6424 c 0,-3.36 2.733778,-6.0937 6.093812,-6.0937 3.360034,0 6.093812,2.7337 6.093812,6.0937 0,3.3599 -2.733778,6.0937 -6.093812,6.0937 -3.360034,0 -6.093812,-2.7338 -6.093812,-6.0937 m 6.093812,-6.99 c -3.855039,0 -6.990071,3.1363 -6.990071,6.99 0,3.8537 3.135032,6.9887 6.990071,6.9887 3.853789,0 6.990071,-3.135 6.990071,-6.9887 0,-3.8537 -3.136282,-6.99 -6.990071,-6.99"
       style="fill:#951d26;fill-opacity:1;fill-rule:nonzero;stroke:none"
       id="path13632"
       inkscape:connector-curvature="0" />
    <path
       d="m 22.970083,1030.484 c 0.878759,0.8612 2.288773,0.8612 3.167532,0 0.423755,0.4175 0.98626,0.6462 1.585016,0.6462 0.452505,0 0.883759,-0.1312 1.251263,-0.3762 -0.06125,2.3549 -1.98627,4.2549 -4.356294,4.2549 -2.345024,0 -4.250043,-1.8625 -4.347544,-4.1837 0.855008,0.4875 1.96252,0.38 2.700027,-0.3412 m 5.716308,-0.6475 c -0.533755,0.5325 -1.398764,0.53 -1.930019,0 l -0.618757,-0.6188 -0.620006,0.6188 c -0.256253,0.2562 -0.598756,0.3987 -0.96376,0.3987 -0.365003,0 -0.707507,-0.1425 -0.965009,-0.3987 l -0.618757,-0.6188 -0.618756,0.6175 c -0.257503,0.2575 -0.600006,0.4 -0.96501,0.4 -0.365004,0 -0.707507,-0.1425 -0.96501,-0.4 l -0.07875,-0.079 c 0.410004,-1.985 2.171272,-3.4812 4.275043,-3.4812 2.070021,0 3.798789,1.4499 4.246293,3.3849 l -0.177502,0.1763 z m -4.068791,-4.4562 c -2.698777,0 -4.9038,2.0487 -5.202553,4.6699 l -0.02375,0.023 0.02,0.02 c -0.02,0.1825 -0.05625,0.3613 -0.05625,0.55 0,2.9012 2.360023,5.2612 5.262553,5.2612 2.901279,0 5.263803,-2.36 5.263803,-5.2612 0,-2.9024 -2.362524,-5.2624 -5.263803,-5.2624"
       style="fill:#951d26;fill-opacity:1;fill-rule:nonzero;stroke:none"
       id="path13636"
       inkscape:connector-curvature="0" />
    <path
       d="m 22.970083,1030.484 c 0.878759,0.8612 2.288773,0.8612 3.167532,0 0.423755,0.4175 0.98626,0.6462 1.585016,0.6462 0.452505,0 0.883759,-0.1312 1.251263,-0.3762 -0.06125,2.3549 -1.98627,4.2549 -4.356294,4.2549 -2.345024,0 -4.250043,-1.8625 -4.347544,-4.1837 0.855008,0.4875 1.96252,0.38 2.700027,-0.3412"
       style="opacity:0.39999402;fill:#951d26;fill-opacity:1;fill-rule:nonzero;stroke:none"
       id="path13652"
       inkscape:connector-curvature="0" />
    <path
       d="m 22.279476,1019.3151 c -0.485005,0 -1.406264,0.082 -1.237512,-0.645 0.07875,-0.345 0.380004,-0.8725 0.752507,-0.97 0.370004,-0.096 0.693757,0.2612 0.890009,0.5312 0.02375,0.031 0.03,0.076 0.0275,0.1275 0.235002,0.049 -0.148752,0.9538 -0.432505,0.9563 m -3.99504,-0.6525 c -0.128752,0.3325 -0.390004,0.78 -0.783758,0.835 -0.321254,0.045 -0.590006,-0.18 -0.637507,-0.4888 -0.130001,-0.8487 0.697507,-1.6262 1.482515,-1.1924 0.105001,0.059 0.065,0.2662 -0.03125,0.4737 0.04875,0.04 0.05625,0.1475 -0.03,0.3725 m 14.317645,-2.2562 -16.083913,0 c -0.728758,0 -1.321264,0.5925 -1.321264,1.3212 l 0,3.0162 18.850192,0 0,-2.8924 c 0,-0.7963 -0.648757,-1.445 -1.445015,-1.445"
       style="opacity:0.39999402;fill:#951d26;fill-opacity:1;fill-rule:nonzero;stroke:none"
       id="path13668"
       inkscape:connector-curvature="0" />
    <path
       d="m 18.281811,1018.5538 c 0,0.2362 -0.191252,0.4275 -0.427505,0.4275 -0.236252,0 -0.427504,-0.1913 -0.427504,-0.4275 0,-0.235 0.191252,-0.4263 0.427504,-0.4263 0.236253,0 0.427505,0.1913 0.427505,0.4263 m -0.427505,-1.2012 c -0.662506,0 -1.202512,0.5387 -1.202512,1.2012 0,0.6625 0.540006,1.2012 1.202512,1.2012 0.662507,0 1.201262,-0.5387 1.201262,-1.2012 0,-0.6625 -0.538755,-1.2012 -1.201262,-1.2012"
       style="fill:#951d26;fill-opacity:1;fill-rule:nonzero;stroke:none"
       id="path13624"
       inkscape:connector-curvature="0" />
    <path
       d="m 22.567354,1018.5538 c 0,0.2362 -0.191252,0.4275 -0.427504,0.4275 -0.236253,0 -0.427505,-0.1913 -0.427505,-0.4275 0,-0.235 0.191252,-0.4263 0.427505,-0.4263 0.236252,0 0.427504,0.1913 0.427504,0.4263 m -0.427504,-1.2012 c -0.662507,0 -1.201262,0.5387 -1.201262,1.2012 0,0.6625 0.538755,1.2012 1.201262,1.2012 0.662507,0 1.201262,-0.5387 1.201262,-1.2012 0,-0.6625 -0.538755,-1.2012 -1.201262,-1.2012"
       style="fill:#951d26;fill-opacity:1;fill-rule:nonzero;stroke:none"
       id="path13628"
       inkscape:connector-curvature="0" />
  </g>
</svg>
