<svg width="22" height="20" viewBox="0 0 22 20" fill="none" xmlns="http://www.w3.org/2000/svg">
<path d="M14.3335 17.5V15.8333C14.3335 14.9493 13.9823 14.1014 13.3572 13.4763C12.7321 12.8512 11.8842 12.5 11.0002 12.5H5.16683C4.28277 12.5 3.43493 12.8512 2.80981 13.4763C2.18469 14.1014 1.8335 14.9493 1.8335 15.8333V17.5M15.1668 9.16667L16.8335 10.8333L20.1668 7.5M11.4168 5.83333C11.4168 7.67428 9.92444 9.16667 8.0835 9.16667C6.24255 9.16667 4.75016 7.67428 4.75016 5.83333C4.75016 3.99238 6.24255 2.5 8.0835 2.5C9.92444 2.5 11.4168 3.99238 11.4168 5.83333Z" stroke="#F0484B" stroke-width="2" stroke-linecap="round" stroke-linejoin="round"/>
</svg>
