<svg width="22" height="20" viewBox="0 0 22 20" fill="none" xmlns="http://www.w3.org/2000/svg">
<path d="M20.1666 3.33331V8.33332M20.1666 8.33332H15.1666M20.1666 8.33332L16.2999 4.69998C15.4043 3.80391 14.2963 3.14932 13.0792 2.79729C11.8622 2.44527 10.5758 2.40727 9.34016 2.68686C8.10447 2.96645 6.95975 3.55451 6.01281 4.39616C5.06586 5.23782 4.34756 6.30564 3.92492 7.49998M1.83325 16.6666V11.6666M1.83325 11.6666H6.83325M1.83325 11.6666L5.69992 15.3C6.59554 16.1961 7.70356 16.8506 8.92059 17.2027C10.1376 17.5547 11.424 17.5927 12.6597 17.3131C13.8954 17.0335 15.0401 16.4455 15.987 15.6038C16.934 14.7621 17.6523 13.6943 18.0749 12.5" stroke="white" stroke-width="2" stroke-linecap="round" stroke-linejoin="round"/>
</svg>
