<svg id="Nav_Icons" data-name="Nav Icons" xmlns="http://www.w3.org/2000/svg" viewBox="0 0 49.24 49.24"><defs><style>.cls-1{fill:#fff;}</style></defs><title>icon_language_white</title><g id="Language"><path class="cls-1" d="M24.62,7.35A17.27,17.27,0,1,0,41.89,24.62,17.27,17.27,0,0,0,24.62,7.35ZM39.56,30.67l-4.92.85a25.52,25.52,0,0,0,.91-6.32h5.17A16,16,0,0,1,39.56,30.67Zm-31-5.47h5.17a26,26,0,0,0,.91,6.32l-4.91-.85A15.81,15.81,0,0,1,8.52,25.2Zm1.17-6.63,4.91-.85a26.08,26.08,0,0,0-.91,6.33H8.52A15.87,15.87,0,0,1,9.69,18.57Zm15.51-2a38.67,38.67,0,0,1,6.17.56l2,.35a24.91,24.91,0,0,1,1,6.54H25.2ZM31.56,16a41.09,41.09,0,0,0-6.36-.58V8.54c3.3.31,6.16,3.34,7.79,7.73Zm-7.51-.58a41.11,41.11,0,0,0-6.37.58l-1.42.25c1.62-4.4,4.49-7.42,7.79-7.74Zm-6.17,1.72a38.57,38.57,0,0,1,6.17-.56v7.45h-9.2a24.49,24.49,0,0,1,1-6.54Zm-3,8h9.2v7.45a39.77,39.77,0,0,1-6.17-.57l-2-.35A24.47,24.47,0,0,1,14.85,25.2Zm2.83,8a41.11,41.11,0,0,0,6.37.58v6.91c-3.3-.32-6.17-3.34-7.79-7.74Zm7.52.58a41.09,41.09,0,0,0,6.36-.58L33,33c-1.63,4.4-4.49,7.42-7.79,7.74Zm6.17-1.72a39.88,39.88,0,0,1-6.17.57V25.2h9.2a24.89,24.89,0,0,1-1,6.53Zm4.18-8a25.6,25.6,0,0,0-.91-6.33l4.92.85a16.09,16.09,0,0,1,1.16,5.48ZM39,17.3l-4.7-.81a15.85,15.85,0,0,0-4.58-7.16A16.16,16.16,0,0,1,39,17.3Zm-19.41-8A15.77,15.77,0,0,0,15,16.49l-4.71.81A16.18,16.18,0,0,1,19.56,9.33ZM10.27,31.94l4.71.81a15.85,15.85,0,0,0,4.58,7.17A16.2,16.2,0,0,1,10.27,31.94Zm19.42,8a15.93,15.93,0,0,0,4.58-7.17l4.7-.81A16.18,16.18,0,0,1,29.69,39.92Z"/></g></svg>