<svg xmlns="http://www.w3.org/2000/svg" viewBox="0 0 384 384"><defs><style>.cls-1{fill:#fff;}</style></defs><g id="Layer_2" data-name="Layer 2"><g id="Layer_1-2" data-name="Layer 1"><path class="cls-1" d="M384,267V384H56.25c2.81-.5,5.64-.91,8.43-1.51C77.25,379.77,89.19,376,95.55,363c14.87,7.78,30.64,9.52,47,7.49,9.89-1.23,19.39-3.68,27.62-9.65,6-4.38,9.2-10.05,9.14-17.82q-.3-39.18,0-78.37c0-7-2.48-12.53-7.94-16.49a56.92,56.92,0,0,0-12-6.66c-10.75-4.3-22.08-5-33.53-4.54-1.31.06-2.63,0-4.21,0v-4.84c0-29.75-.1-59.5.07-89.24,0-7.17-2.5-13-8.34-16.6a85.94,85.94,0,0,0-18.58-8.42c-5.6-1.8-11.68-2.09-17.63-3.06V69.31c23.43,10.24,46.54,10.13,69.78.06a11.35,11.35,0,0,1,.26,1.6c0,13.24.06,26.49-.06,39.74a7.3,7.3,0,0,1-1.72,3.89c-3.49,4.56-7.27,8.91-10.66,13.54a6,6,0,0,0,1.42,8.64,6.26,6.26,0,0,0,8.48-.84,38.24,38.24,0,0,0,2.55-3.24C161.34,114.33,178,98.66,198.2,87a6.15,6.15,0,0,1,4-.77A78.4,78.4,0,0,1,210.3,89c-5.18,4.84-10.11,9.4-15,14-3.76,3.54-4.28,7.12-1.55,10.11s6.45,2.78,10.19-.68c7.43-6.88,14.8-13.82,22.24-20.68A37.25,37.25,0,0,1,230.4,89v6.19c0,4.62-.14,9.26.11,13.87a6.29,6.29,0,0,0,6.69,6.17c3.37-.2,5.77-2.75,6-6.49.11-2.37,0-4.75,0-7.12,0-3.93,0-7.85,0-12.91a48.93,48.93,0,0,1,4.4,3.09c7.53,7,15,14,22.51,21,3.24,3,6.7,3.21,9.39.79,2.95-2.67,2.88-6.71-.41-9.86-5.12-4.92-10.36-9.71-15.82-14.81A36.15,36.15,0,0,0,268.84,87c3-1.59,5.4-1,8.23.72A176.34,176.34,0,0,1,308,111.9c29.2,28.75,47.22,63.76,57.18,103.17,5,19.74,8,39.69,4.59,60.08-3.58,21.22-14.09,37.67-33.49,47.81-13.35,7-27.7,9.84-42.64,9.88-28.5.08-57,0-85.49,0a31.37,31.37,0,0,0-4.12.1,5.75,5.75,0,0,0-5.41,5.31c-.43,3.23.86,5.7,4,6.78a15,15,0,0,0,4.78.57c28.62,0,57.25.25,85.87-.11a123.21,123.21,0,0,0,26.34-2.95c31-7.27,52.41-25.35,60.9-56.87C382.14,279.6,382.86,273.24,384,267ZM230.2,230.15c-7.09-.27-11.8-4.8-12.61-11.79-.59-5.08-3.11-7.5-7.27-7-3.83.47-5.88,3.62-5.46,8.38a25.56,25.56,0,0,0,19.42,22.62c1.91.47,3.86.71,5.85,1.06.73,5-1.48,12,6.38,12.27,8.62.25,5.93-7.4,6.88-12.18,16.85-3.32,25.43-12.24,25.32-26.15-.11-13.75-8.88-22.7-25.57-25.76V166.76c7.26-.2,11.72,4.18,12.79,12.16.6,4.49,3.2,6.88,7.09,6.53,3.73-.33,5.76-3,5.65-7.43a25.29,25.29,0,0,0-18.78-23.48c-2.13-.56-4.33-.83-6.76-1.28,0-2,.06-3.86,0-5.71-.16-4.07-2.47-6.54-6.11-6.64s-6.38,2.47-6.62,6.6c-.12,2,0,3.92,0,5.79-15.83,2.55-25,11.57-25.54,24.74A25,25,0,0,0,210,194.52c5,6.7,12,9.84,20.25,10.45Zm69.3,90c3.32-.51,8.81-1,14.12-2.26,16-3.81,29.49-11.28,37.47-26.53a63.56,63.56,0,0,0,7.29-28.31,6.74,6.74,0,0,0-6.15-7.22c-3.26-.23-6.28,2.33-6.92,6.07-.27,1.59-.11,3.25-.29,4.86-1.81,15.59-8.24,28.09-23.31,34.81a64.36,64.36,0,0,1-24.65,5.37c-5.14.16-8.19,3-7.94,7S292.41,320.25,299.5,320.15Z"/><path d="M384,267c-1.14,6.24-1.86,12.6-3.5,18.7-8.49,31.52-29.89,49.6-60.9,56.87a123.21,123.21,0,0,1-26.34,2.95c-28.62.36-57.25.14-85.87.11a15,15,0,0,1-4.78-.57c-3.14-1.08-4.43-3.55-4-6.78A5.75,5.75,0,0,1,204,333a31.37,31.37,0,0,1,4.12-.1c28.5,0,57,.05,85.49,0,14.94,0,29.29-2.91,42.64-9.88,19.4-10.14,29.91-26.59,33.49-47.81,3.44-20.39.4-40.34-4.59-60.08-10-39.41-28-74.42-57.18-103.17a176.34,176.34,0,0,0-30.92-24.22c-2.83-1.75-5.24-2.31-8.23-.72a36.15,36.15,0,0,1-5.57,1.88c5.46,5.1,10.7,9.89,15.82,14.81,3.29,3.15,3.36,7.19.41,9.86-2.69,2.42-6.15,2.21-9.39-.79-7.53-7-15-14-22.51-21a48.93,48.93,0,0,0-4.4-3.09c0,5.06,0,9,0,12.91,0,2.37.07,4.75,0,7.12-.19,3.74-2.59,6.29-6,6.49a6.29,6.29,0,0,1-6.69-6.17c-.25-4.61-.09-9.25-.11-13.87V89a37.25,37.25,0,0,0-4.21,2.78c-7.44,6.86-14.81,13.8-22.24,20.68-3.74,3.46-7.47,3.66-10.19.68s-2.21-6.57,1.55-10.11c4.88-4.6,9.81-9.16,15-14a78.4,78.4,0,0,0-8.09-2.75,6.15,6.15,0,0,0-4,.77C178,98.66,161.34,114.33,147.13,132.7a38.24,38.24,0,0,1-2.55,3.24,6.26,6.26,0,0,1-8.48.84,6,6,0,0,1-1.42-8.64c3.39-4.63,7.17-9,10.66-13.54a7.3,7.3,0,0,0,1.72-3.89c.12-13.25.07-26.5.06-39.74a11.35,11.35,0,0,0-.26-1.6c-23.24,10.07-46.35,10.18-69.78-.06v45.51c6,1,12,1.26,17.63,3.06a85.94,85.94,0,0,1,18.58,8.42c5.84,3.57,8.38,9.43,8.34,16.6-.17,29.74-.07,59.49-.07,89.24V237c1.58,0,2.9.05,4.21,0,11.45-.46,22.78.24,33.53,4.54a56.92,56.92,0,0,1,12,6.66c5.46,4,8,9.51,7.94,16.49q-.25,39.18,0,78.37c.06,7.77-3.1,13.44-9.14,17.82-8.23,6-17.73,8.42-27.62,9.65-16.35,2-32.12.29-47-7.49-6.36,13-18.3,16.76-30.87,19.48-2.79.6-5.62,1-8.43,1.51H39.75c-5-1-10.07-1.67-14.95-3.08C14,377.81,4.21,373.15,0,361.5V323.25c2.85-8.29,9.07-13.18,16.77-16.54A20,20,0,0,1,21.3,305c3.7-.62,4.35-2.7,4.34-6.21-.12-51.48,0-103-.19-154.45,0-9.17,3.76-15.5,11.16-20.16a55,55,0,0,1,23.22-7.84c3.35-.4,4.21-1.59,4.19-4.87-.16-19.37,0-38.74-.13-58.11,0-7,2.58-12.47,8-16.47A48.5,48.5,0,0,1,82.6,30.81c14.05-5.58,28.67-6.32,43.49-4.13,9,1.33,17.56,3.87,25,9.34,5.89,4.34,9.09,9.89,8.93,17.54-.29,13.74-.08,27.49-.08,41.23v3.86l28.74-21.77c-16.72-17.26-22.13-38.74-22.51-62C166,4,175.94-2.1,185.62,3.05a49.26,49.26,0,0,1,7.94,5.56c6.26,5.1,14.71,6,20.74,1,5.31-4.33,10.88-7.79,17.45-9.64h9.75c6.58,1.82,12.17,5.25,17.47,9.6,6,4.94,14.48,4.11,20.75-.95a50.71,50.71,0,0,1,8.61-5.9c9.13-4.66,18.84,1.36,18.94,11.61a54.82,54.82,0,0,1-.52,8.59c-.51,3.44.42,5.09,4,6.47,17,6.59,29.11,30.52,11.13,48.72a10.16,10.16,0,0,0-1,1.57c1.81.5,3.24.87,4.66,1.29,10.79,3.21,20.84,7.75,28.59,16.27,3,3.26,3,7.13.3,9.68s-6.42,2.28-9.56-.9c-11.33-11.48-26-14.19-41.16-15.65a48.07,48.07,0,0,0,4.84,4.65c1.77,1.58,3.57,3.13,5.29,4.77,35.82,34,56.63,76.13,66.45,124.06,1.65,8.05,2.53,16.24,3.76,24.37ZM108.78,158.61A80.22,80.22,0,0,1,73.5,166.5a80.8,80.8,0,0,1-34.88-7.76V301.27c15.56-1.64,30.32.35,44.6,7.35,0-15.28.13-29.88,0-44.49-.09-6.54,2.24-12,7.41-15.54a87.82,87.82,0,0,1,15.13-7.93c2.33-1,3.18-1.94,3.13-4.49-.17-9.12-.06-18.24-.06-27.36ZM96,280.19v4.18c0,19.5.1,39-.08,58.48a8.68,8.68,0,0,0,4.56,8.31,37.59,37.59,0,0,0,5.66,2.87c10.33,4,21.07,5,32,4,8-.71,15.81-2.28,22.91-6.34,3.62-2.07,5.51-4.81,5.46-9.36-.23-19.24-.1-38.49-.1-57.73v-4.49a82.37,82.37,0,0,1-70.44,0ZM256.62,76.58a26,26,0,0,0,16.9-7C284.37,60,289.86,47.43,292.44,33.5c1.16-6.25,1.55-12.64,2.29-19l-1.15-.35c-1.69,1.23-3.46,2.35-5.06,3.69-12.6,10.49-27.73,10.39-40.17-.31-7.42-6.38-16-6.4-23.36,0-12.41,10.73-27.55,10.85-40.17.37-1.64-1.36-3.49-2.46-5.83-4.1.25,17.49,3.33,33.21,13,47.05,4.48,6.43,9.88,12,17.66,14.43a83,83,0,0,0,8.47,1.67c-1.17-2.23-1.88-3.39-2.4-4.63-3.53-8.51-7.17-17-10.45-25.58-1.35-3.57.67-6.85,4.14-8,3.22-1,6.42.54,7.86,3.95.43,1,.58,2.19,1.06,3.19,4.4,9.34,8.87,18.64,13.28,28,1.11,2.34,2.85,3,5.39,3a5.32,5.32,0,0,0,5.1-2.88A123.11,123.11,0,0,0,255.9,44.2c1.32-4.32,4.16-6.33,7.57-5.69,4.17.77,6.41,4.67,4.68,9.28C264.56,57.33,260.59,66.73,256.62,76.58ZM131.19,249.65c-10.71,0-20.13,1.76-27.29,5.28-3.33,1.64-7.56,3.18-7.65,7.38s4.12,6.08,7.5,7.46a70.07,70.07,0,0,0,54.91,0c3.39-1.39,7.59-3.23,7.5-7.47s-4.32-5.79-7.68-7.37C149.85,250.85,140.63,249.65,131.19,249.65ZM73.52,128.07c-10.83,0-20.22,1.77-27.34,5.32-3.33,1.66-7.57,3.22-7.55,7.48,0,4,4.06,5.86,7.36,7.22,18.42,7.59,36.95,7.61,55.35-.07,3.27-1.37,7.28-3.15,7.21-7.3s-4.11-5.68-7.33-7.23C92.48,129.27,83.11,128.05,73.52,128.07ZM48,339.13c10.82,0,20.56-1.84,27.63-5.41,3.2-1.62,7.27-3.17,7.36-7.21s-3.9-5.94-7.17-7.31c-18.48-7.72-37.08-7.72-55.57,0C17,320.54,13,322.36,13,326.47s4.11,5.67,7.33,7.22C29.06,337.9,38.41,339.14,48,339.13ZM112,63.92l.22,1c8-1.65,16.12-3,24-5.11,3.34-.91,6.4-3.27,9.25-5.42,2.41-1.82,2.34-4.47.08-6.46A23.43,23.43,0,0,0,139,43.63a70.35,70.35,0,0,0-54.33.11c-3.38,1.37-7.59,3.11-7.63,7.41s4.22,5.86,7.55,7.46C93.25,62.74,102.5,63.93,112,63.92ZM12.78,344.41c0,3,.37,5.75-.07,8.38-1.24,7.43,2.86,11.07,8.93,13.56,10.75,4.42,22,5.51,33.4,4.53,7.87-.68,15.64-2.08,22.48-6.27,2.21-1.36,5-3.56,5.35-5.76.83-4.61.25-9.48.25-14.44C59.47,354.8,36.3,354.66,12.78,344.41ZM285.69,75.72c11.06,3,23.95-1.32,29.5-9.38,6.33-9.2,0-23.58-11.2-25.22A77.87,77.87,0,0,1,285.69,75.72Z"/><path class="cls-1" d="M231.75,0c-6.57,1.85-12.14,5.31-17.45,9.64-6,4.92-14.48,4.07-20.74-1a49.26,49.26,0,0,0-7.94-5.56C175.94-2.1,166,4,166.17,14.87c.38,23.27,5.79,44.75,22.51,62L159.94,98.65V94.79c0-13.74-.21-27.49.08-41.23.16-7.65-3-13.2-8.93-17.54-7.44-5.47-16-8-25-9.34-14.82-2.19-29.44-1.45-43.49,4.13a48.5,48.5,0,0,0-10.69,6.06c-5.44,4-8.07,9.52-8,16.47.14,19.37,0,38.74.13,58.11,0,3.28-.84,4.47-4.19,4.87a55,55,0,0,0-23.22,7.84c-7.4,4.66-11.2,11-11.16,20.16.22,51.49.07,103,.19,154.45,0,3.51-.64,5.59-4.34,6.21a20,20,0,0,0-4.53,1.73C9.07,310.07,2.85,315,0,323.25V0Z"/><path class="cls-1" d="M384,248.25c-1.23-8.13-2.11-16.32-3.76-24.37-9.82-47.93-30.63-90-66.45-124.06-1.72-1.64-3.52-3.19-5.29-4.77a48.07,48.07,0,0,1-4.84-4.65c15.18,1.46,29.83,4.17,41.16,15.65,3.14,3.18,6.76,3.54,9.56.9s2.66-6.42-.3-9.68c-7.75-8.52-17.8-13.06-28.59-16.27-1.42-.42-2.85-.79-4.66-1.29a10.16,10.16,0,0,1,1-1.57c18-18.2,5.88-42.13-11.13-48.72-3.56-1.38-4.49-3-4-6.47a54.82,54.82,0,0,0,.52-8.59c-.1-10.25-9.81-16.27-18.94-11.61a50.71,50.71,0,0,0-8.61,5.9C273.45,13.71,265,14.54,259,9.6c-5.3-4.35-10.89-7.78-17.47-9.6H384Z"/><path class="cls-1" d="M0,361.5c4.21,11.65,14,16.31,24.8,19.42,4.88,1.41,10,2.08,15,3.08H0Z"/><path d="M230.2,230.15V205C222,204.36,215,201.22,210,194.52A25,25,0,0,1,204.82,178c.53-13.17,9.71-22.19,25.54-24.74,0-1.87-.1-3.83,0-5.79.24-4.13,2.87-6.7,6.62-6.6s5.95,2.57,6.11,6.64c.08,1.85,0,3.71,0,5.71,2.43.45,4.63.72,6.76,1.28A25.29,25.29,0,0,1,268.67,178c.11,4.43-1.92,7.1-5.65,7.43-3.89.35-6.49-2-7.09-6.53-1.07-8-5.53-12.36-12.79-12.16v24.85c16.69,3.06,25.46,12,25.57,25.76.11,13.91-8.47,22.83-25.32,26.15-.95,4.78,1.74,12.43-6.88,12.18-7.86-.24-5.65-7.3-6.38-12.27-2-.35-3.94-.59-5.85-1.06a25.56,25.56,0,0,1-19.42-22.62c-.42-4.76,1.63-7.91,5.46-8.38,4.16-.51,6.68,1.91,7.27,7C218.4,225.35,223.11,229.88,230.2,230.15ZM243.37,205V230a12.09,12.09,0,0,0,12.52-11.81C256.17,210.87,251.27,205.53,243.37,205Zm-13.2-38.36c-7.47.4-12.78,6-12.59,12.9a12.55,12.55,0,0,0,12.59,12.22Z"/><path d="M299.5,320.15c-7.09.1-10.13-2.2-10.38-6.21s2.8-6.84,7.94-7a64.36,64.36,0,0,0,24.65-5.37c15.07-6.72,21.5-19.22,23.31-34.81.18-1.61,0-3.27.29-4.86.64-3.74,3.66-6.3,6.92-6.07a6.74,6.74,0,0,1,6.15,7.22,63.56,63.56,0,0,1-7.29,28.31c-8,15.25-21.48,22.72-37.47,26.53C308.31,319.16,302.82,319.64,299.5,320.15Z"/><path class="cls-1" d="M108.78,158.61v50.2c0,9.12-.11,18.24.06,27.36,0,2.55-.8,3.48-3.13,4.49a87.82,87.82,0,0,0-15.13,7.93c-5.17,3.58-7.5,9-7.41,15.54.18,14.61,0,29.21,0,44.49-14.28-7-29-9-44.6-7.35V158.74A80.8,80.8,0,0,0,73.5,166.5,80.22,80.22,0,0,0,108.78,158.61Z"/><path class="cls-1" d="M96,280.19a82.37,82.37,0,0,0,70.44,0v4.49c0,19.24-.13,38.49.1,57.73.05,4.55-1.84,7.29-5.46,9.36-7.1,4.06-14.88,5.63-22.91,6.34-11,1-21.7,0-32-4a37.59,37.59,0,0,1-5.66-2.87,8.68,8.68,0,0,1-4.56-8.31c.18-19.49.08-39,.08-58.48Z"/><path class="cls-1" d="M256.62,76.58c4-9.85,7.94-19.25,11.53-28.79,1.73-4.61-.51-8.51-4.68-9.28-3.41-.64-6.25,1.37-7.57,5.69A123.11,123.11,0,0,1,242.07,74a5.32,5.32,0,0,1-5.1,2.88c-2.54,0-4.28-.65-5.39-3-4.41-9.34-8.88-18.64-13.28-28-.48-1-.63-2.16-1.06-3.19-1.44-3.41-4.64-5-7.86-3.95-3.47,1.14-5.49,4.42-4.14,8,3.28,8.6,6.92,17.07,10.45,25.58.52,1.24,1.23,2.4,2.4,4.63a83,83,0,0,1-8.47-1.67c-7.78-2.44-13.18-8-17.66-14.43C182.32,47,179.24,31.28,179,13.79c2.34,1.64,4.19,2.74,5.83,4.1,12.62,10.48,27.76,10.36,40.17-.37,7.34-6.36,15.94-6.34,23.36,0,12.44,10.7,27.57,10.8,40.17.31,1.6-1.34,3.37-2.46,5.06-3.69l1.15.35c-.74,6.33-1.13,12.72-2.29,19-2.58,13.93-8.07,26.47-18.92,36.11A26,26,0,0,1,256.62,76.58Z"/><path class="cls-1" d="M131.19,249.65c9.44,0,18.66,1.2,27.29,5.28,3.36,1.58,7.59,3.19,7.68,7.37s-4.11,6.08-7.5,7.47a70.07,70.07,0,0,1-54.91,0c-3.38-1.38-7.59-3.19-7.5-7.46s4.32-5.74,7.65-7.38C111.06,251.41,120.48,249.66,131.19,249.65Z"/><path class="cls-1" d="M73.52,128.07c9.59,0,19,1.2,27.7,5.42,3.22,1.55,7.26,3.14,7.33,7.23s-3.94,5.93-7.21,7.3c-18.4,7.68-36.93,7.66-55.35.07-3.3-1.36-7.33-3.18-7.36-7.22,0-4.26,4.22-5.82,7.55-7.48C53.3,129.84,62.69,128.09,73.52,128.07Z"/><path class="cls-1" d="M48,339.13c-9.57,0-18.92-1.23-27.63-5.44-3.22-1.55-7.27-3.15-7.33-7.22s3.93-5.93,7.21-7.29c18.49-7.7,37.09-7.7,55.57,0,3.27,1.37,7.27,3.19,7.17,7.31s-4.16,5.59-7.36,7.21C68.54,337.29,58.8,339.13,48,339.13Z"/><path class="cls-1" d="M112,63.92c-9.45,0-18.7-1.18-27.33-5.31C81.29,57,77,55.47,77.07,51.15s4.25-6,7.63-7.41A70.35,70.35,0,0,1,139,43.63,23.43,23.43,0,0,1,145.5,48c2.26,2,2.33,4.64-.08,6.46-2.85,2.15-5.91,4.51-9.25,5.42-7.88,2.13-16,3.46-24,5.11Z"/><path class="cls-1" d="M12.78,344.41c23.52,10.25,46.69,10.39,70.34,0,0,5,.58,9.83-.25,14.44-.39,2.2-3.14,4.4-5.35,5.76-6.84,4.19-14.61,5.59-22.48,6.27-11.45,1-22.65-.11-33.4-4.53-6.07-2.49-10.17-6.13-8.93-13.56C13.15,350.16,12.78,347.4,12.78,344.41Z"/><path class="cls-1" d="M285.69,75.72A77.87,77.87,0,0,0,304,41.12c11.24,1.64,17.53,16,11.2,25.22C309.64,74.4,296.75,78.67,285.69,75.72Z"/><path class="cls-1" d="M243.37,205c7.9.56,12.8,5.9,12.52,13.26A12.09,12.09,0,0,1,243.37,230Z"/><path class="cls-1" d="M230.17,166.61v25.12a12.55,12.55,0,0,1-12.59-12.22C217.39,172.62,222.7,167,230.17,166.61Z"/></g></g></svg>