<svg id="White_Bg_Icons" data-name="White Bg Icons" xmlns="http://www.w3.org/2000/svg" viewBox="0 0 49.24 49.24"><defs><style>.cls-1{fill:#951d26;}</style></defs><title>-icon_manage_red</title><g id="Outer_Circle" data-name="Outer Circle"><path id="path11508" class="cls-1" d="M24.62,1.42a23.2,23.2,0,1,0,23.2,23.2,23.23,23.23,0,0,0-23.2-23.2m0,47.82A24.62,24.62,0,1,1,49.24,24.62,24.65,24.65,0,0,1,24.62,49.24"/></g><g id="Mange"><path class="cls-1" d="M13.44,34.94H24.62v-.86H13.44a1.29,1.29,0,0,1-1.29-1.29V13.87a1.29,1.29,0,0,1,1.29-1.29H32.36a1.29,1.29,0,0,1,1.29,1.29v9.89h.86V13.87a2.15,2.15,0,0,0-2.15-2.15H13.44a2.15,2.15,0,0,0-2.15,2.15V32.79A2.15,2.15,0,0,0,13.44,34.94Z"/><path class="cls-1" d="M13,13.44h.86v.86H13Z"/><path class="cls-1" d="M14.73,13.44h.86v.86h-.86Z"/><path class="cls-1" d="M16.45,13.44h.86v.86h-.86Z"/><path class="cls-1" d="M13,15.16H32.79V16H13Z"/><path class="cls-1" d="M17.44,17l-1.1,1.09a2.16,2.16,0,1,0,.61.61L18,17.61Zm-2.28,4.17a1.29,1.29,0,0,1,0-2.58,1.17,1.17,0,0,1,.55.13l-.85.86.6.6.86-.85a1.31,1.31,0,0,1,.13.55A1.29,1.29,0,0,1,15.16,21.18Z"/><path class="cls-1" d="M18.6,18.6h7.31v.86H18.6Z"/><path class="cls-1" d="M18.6,20.32h3v.86h-3Z"/><path class="cls-1" d="M22.47,20.32h6v.86h-6Z"/><path class="cls-1" d="M26.77,18.6h4.3v.86h-4.3Z"/><path class="cls-1" d="M17.44,22.17l-1.1,1.09a2.16,2.16,0,1,0,.61.61L18,22.77Zm-2.28,4.17a1.29,1.29,0,0,1,0-2.58,1.31,1.31,0,0,1,.55.13l-.85.86.6.6.86-.85a1.31,1.31,0,0,1,.13.55A1.29,1.29,0,0,1,15.16,26.34Z"/><path class="cls-1" d="M18.6,23.76h7.31v.86H18.6Z"/><path class="cls-1" d="M18.6,25.48h3v.86h-3Z"/><path class="cls-1" d="M22.47,25.48h3.44v.86H22.47Z"/><path class="cls-1" d="M26.77,23.76h1.72v.86H26.77Z"/><path class="cls-1" d="M17.44,27.33l-1.1,1.09A2.16,2.16,0,1,0,17,29L18,27.94ZM15.16,31.5a1.29,1.29,0,0,1,0-2.58,1.31,1.31,0,0,1,.55.13l-.85.86.6.61.86-.86a1.31,1.31,0,0,1,.13.55A1.29,1.29,0,0,1,15.16,31.5Z"/><path class="cls-1" d="M18.6,28.92h5.59v.86H18.6Z"/><path class="cls-1" d="M18.6,30.64h3v.86h-3Z"/><path class="cls-1" d="M22.47,30.64h1.72v.86H22.47Z"/><path class="cls-1" d="M31.5,37.52a6.45,6.45,0,1,0-6.45-6.45A6.44,6.44,0,0,0,31.5,37.52Zm0-12a5.59,5.59,0,1,1-5.59,5.59A5.59,5.59,0,0,1,31.5,25.48Z"/><path class="cls-1" d="M28.88,31.31l-.77.38L29,33.41a.42.42,0,0,0,.32.24h.06a.43.43,0,0,0,.31-.12l5.16-5.16-.61-.61L29.47,32.5Z"/></g></svg>