<svg xmlns="http://www.w3.org/2000/svg" width="362" height="362" viewBox="0 0 362 362">
  <g id="Collection_Report_Icon" data-name="Collection Report Icon" transform="translate(-365 -323)">
    <g id="Ellipse_1" data-name="Ellipse 1" transform="translate(365 323)" fill="none" stroke="#951d26" stroke-width="10">
      <circle cx="181" cy="181" r="181" stroke="none"/>
      <circle cx="181" cy="181" r="176" fill="none"/>
    </g>
    <g id="b" transform="translate(440 398)">
      <g id="c" transform="translate(0 0)">
        <path id="Path_19" data-name="Path 19" d="M237.031,178.382v64.535H56.25c1.55-.276,3.111-.5,4.65-.833,6.933-1.5,13.519-3.58,17.027-10.75,8.2,4.291,16.9,5.251,25.924,4.131,5.455-.678,10.7-2.03,15.235-5.323a11.344,11.344,0,0,0,5.041-9.829q-.165-21.611,0-43.228a10.516,10.516,0,0,0-4.38-9.1,31.446,31.446,0,0,0-6.619-3.674c-5.93-2.372-12.179-2.758-18.495-2.5-.723.033-1.451,0-2.322,0v-2.67c0-16.41-.055-32.819.039-49.223,0-3.955-1.379-7.171-4.6-9.156A47.525,47.525,0,0,0,77.5,96.119c-3.089-.993-6.442-1.153-9.724-1.688V69.34c12.924,5.648,25.671,5.588,38.489.033a6.842,6.842,0,0,1,.143.883c0,7.3.033,14.611-.033,21.92a4,4,0,0,1-.949,2.146c-1.925,2.515-4.01,4.915-5.88,7.468a3.31,3.31,0,0,0,.607,4.639c.055.044.116.083.177.127a3.454,3.454,0,0,0,4.677-.463,20.033,20.033,0,0,0,1.407-1.787A96.3,96.3,0,0,1,134.547,79.1a3.391,3.391,0,0,1,2.206-.425,43.956,43.956,0,0,1,4.468,1.528c-2.857,2.67-5.576,5.185-8.274,7.722-2.074,1.953-2.361,3.927-.855,5.576s3.558,1.533,5.621-.375c4.1-3.795,8.163-7.623,12.267-11.407a20.292,20.292,0,0,1,2.328-1.517v3.414c0,2.548-.077,5.108.061,7.65a3.469,3.469,0,0,0,3.53,3.409,1.493,1.493,0,0,0,.16-.006,3.534,3.534,0,0,0,3.309-3.58c.061-1.307,0-2.62,0-3.927V80.041a27.4,27.4,0,0,1,2.427,1.7c4.153,3.861,8.274,7.722,12.416,11.583,1.787,1.655,3.7,1.771,5.179.436,1.627-1.473,1.589-3.7-.226-5.439-2.824-2.714-5.714-5.356-8.726-8.169a20.009,20.009,0,0,0,3.072-1.059c1.655-.877,2.979-.552,4.54.4a97.074,97.074,0,0,1,17.06,13.337C211.217,108.69,221.157,128,226.65,149.739c2.758,10.888,4.413,21.892,2.532,33.139-1.975,11.7-7.772,20.778-18.472,26.371a50.077,50.077,0,0,1-23.519,5.45c-15.72.044-31.44,0-47.155,0a17.372,17.372,0,0,0-2.273.055,3.459,3.459,0,0,0-.778,6.669,8.194,8.194,0,0,0,2.637.314c15.786,0,31.578.138,47.364-.061a67.765,67.765,0,0,0,14.529-1.627c17.1-4.01,28.908-13.983,33.591-31.368C236.005,185.332,236.4,181.824,237.031,178.382ZM152.2,158.057a6.909,6.909,0,0,1-6.955-6.5c-.325-2.8-1.715-4.137-4.01-3.861-2.113.259-3.243,2-3.012,4.622a14.091,14.091,0,0,0,10.712,12.477c1.054.259,2.129.392,3.227.585.4,2.758-.816,6.619,3.519,6.768,4.755.138,3.271-4.082,3.795-6.718,9.294-1.831,14.027-6.751,13.966-14.424-.061-7.584-4.9-12.521-14.1-14.209v-13.7c4-.11,6.465,2.306,7.055,6.707.331,2.477,1.765,3.795,3.911,3.6,2.057-.182,3.177-1.655,3.116-4.1a13.946,13.946,0,0,0-10.359-12.951c-1.175-.309-2.388-.458-3.729-.706,0-1.1.033-2.129,0-3.15-.088-2.245-1.362-3.607-3.37-3.662a3.531,3.531,0,0,0-3.651,3.64c-.066,1.1,0,2.162,0,3.194-8.732,1.407-13.79,6.382-14.087,13.646a13.771,13.771,0,0,0,2.835,9.09c2.758,3.7,6.619,5.428,11.17,5.764l-.028,13.889ZM190.422,207.7c1.831-.281,4.859-.552,7.788-1.247,8.825-2.1,16.266-6.222,20.668-14.633A35.058,35.058,0,0,0,222.9,176.2a3.715,3.715,0,0,0-3.392-3.982,3.787,3.787,0,0,0-3.817,3.348c-.149.877-.061,1.793-.16,2.681-1,8.6-4.545,15.494-12.857,19.2a35.521,35.521,0,0,1-13.6,2.962c-2.835.088-4.517,1.655-4.38,3.861s1.815,3.48,5.725,3.425Z" transform="translate(-25.223 -31.093)" fill="#fff"/>
        <path id="Path_20" data-name="Path 20" d="M211.808,147.289c-.629,3.442-1.026,6.95-1.931,10.315-4.683,17.386-16.487,27.358-33.591,31.368a67.765,67.765,0,0,1-14.529,1.627c-15.786.2-31.578.077-47.364.061a8.194,8.194,0,0,1-2.637-.314,3.449,3.449,0,0,1,.767-6.652,17.372,17.372,0,0,1,2.273-.055c15.72,0,31.44.028,47.155,0a50.01,50.01,0,0,0,23.519-5.45c10.7-5.593,16.5-14.667,18.472-26.371,1.9-11.247.221-22.251-2.532-33.139-5.516-21.738-15.444-41.049-31.539-56.907a97.211,97.211,0,0,0-17.055-13.359c-1.561-.965-2.89-1.274-4.54-.4a19.542,19.542,0,0,1-3.072,1.037c3.012,2.813,5.9,5.455,8.726,8.169,1.815,1.737,1.853,3.966.226,5.439-1.484,1.335-3.392,1.219-5.179-.436-4.153-3.861-8.274-7.722-12.416-11.583a27.4,27.4,0,0,0-2.427-1.7v7.121c0,1.307.039,2.62,0,3.927a3.5,3.5,0,0,1-6.994.336c0-.055-.006-.11-.006-.16-.138-2.543-.05-5.1-.061-7.65v-3.4a20.853,20.853,0,0,0-2.322,1.533c-4.1,3.784-8.169,7.612-12.267,11.407-2.063,1.908-4.12,2.019-5.621.375s-1.219-3.624.855-5.576c2.692-2.537,5.411-5.052,8.274-7.722a43.794,43.794,0,0,0-4.462-1.517,3.391,3.391,0,0,0-2.206.425c-11.142,6.4-20.331,15.047-28.169,25.18A20.032,20.032,0,0,1,79.748,75a3.454,3.454,0,0,1-4.677.463,3.311,3.311,0,0,1-.91-4.589c.039-.061.083-.116.127-.177,1.87-2.554,3.955-4.964,5.88-7.468a4,4,0,0,0,.949-2.146c.066-7.308.039-14.617.033-21.92a6.841,6.841,0,0,0-.143-.883c-12.819,5.554-25.566,5.615-38.489-.033v25.1c3.309.552,6.619.695,9.724,1.688a47.526,47.526,0,0,1,10.248,4.644c3.221,1.969,4.622,5.2,4.6,9.156-.094,16.4-.039,32.814-.039,49.223v2.681c.871,0,1.6.028,2.322,0,6.316-.254,12.565.132,18.495,2.5a31.445,31.445,0,0,1,6.619,3.674,10.475,10.475,0,0,1,4.38,9.1q-.141,21.611,0,43.228a11.294,11.294,0,0,1-5.041,9.829c-4.54,3.309-9.78,4.644-15.235,5.323-9.018,1.1-17.717.16-25.924-4.131-3.508,7.171-10.094,9.245-17.027,10.745-1.539.331-3.1.552-4.65.833H21.925c-2.758-.552-5.554-.921-8.246-1.7C7.722,208.41,2.322,205.84,0,199.414v-21.1c1.572-4.573,5-7.27,9.25-9.123a11.036,11.036,0,0,1,2.5-.943c2.041-.342,2.4-1.489,2.394-3.425-.066-28.4,0-56.813-.1-85.192a12.169,12.169,0,0,1,6.156-11.12A30.281,30.281,0,0,1,33,64.188c1.848-.221,2.322-.877,2.311-2.686-.088-10.684,0-21.368-.072-32.052a10.6,10.6,0,0,1,4.413-9.085,26.841,26.841,0,0,1,5.907-3.354c7.75-3.078,15.814-3.486,23.988-2.278,4.964.734,9.686,2.135,13.79,5.152a11.045,11.045,0,0,1,4.926,9.675c-.16,7.579-.044,15.163-.044,22.742V54.43l15.852-12.008C94.85,32.9,91.866,21.054,91.656,8.224c-.094-6,5.389-9.366,10.728-6.525a27.38,27.38,0,0,1,4.38,3.067c3.453,2.813,8.114,3.309,11.44.552A26.572,26.572,0,0,1,127.829,0h5.378a26.075,26.075,0,0,1,9.636,5.3c3.309,2.725,7.987,2.267,11.445-.524a27.954,27.954,0,0,1,4.749-3.254,7.008,7.008,0,0,1,10.447,6.4,30.283,30.283,0,0,1-.287,4.738c-.281,1.9.232,2.808,2.206,3.569,9.377,3.635,16.057,16.834,6.139,26.873a5.475,5.475,0,0,0-.552.866c1,.276,1.787.48,2.57.712,5.952,1.771,11.495,4.275,15.77,8.974,1.655,1.8,1.655,3.933.165,5.339s-3.541,1.258-5.273-.5c-6.249-6.332-14.341-7.827-22.7-8.632a26.658,26.658,0,0,0,2.67,2.565c.976.872,1.969,1.726,2.918,2.631,19.758,18.754,31.236,41.992,36.653,68.429.91,4.44,1.4,8.958,2.074,13.442ZM60,87.5a44.239,44.239,0,0,1-19.46,4.352A44.534,44.534,0,0,1,21.3,87.575v78.617a43.919,43.919,0,0,1,24.6,4.054c0-8.428.072-16.481,0-24.54-.05-3.607,1.236-6.619,4.087-8.572a48.476,48.476,0,0,1,8.345-4.374c1.285-.552,1.754-1.07,1.726-2.477-.094-5.03-.033-10.061-.033-15.091L60,87.5Zm-7.049,67.061v2.306c0,10.756.055,21.512-.044,32.257a4.788,4.788,0,0,0,2.515,4.584,21.262,21.262,0,0,0,3.122,1.583A38.492,38.492,0,0,0,76.2,197.5,30.31,30.31,0,0,0,88.832,194a5.34,5.34,0,0,0,3.012-5.163c-.127-10.612-.055-21.23-.055-31.843V154.52a45.418,45.418,0,0,1-38.853,0Zm88.6-112.308a14.348,14.348,0,0,0,9.322-3.861c5.985-5.284,9.013-12.218,10.436-19.9.64-3.447.855-6.972,1.263-10.48l-.634-.193c-.932.678-1.908,1.3-2.791,2.035-6.95,5.786-15.3,5.731-22.157-.171-4.093-3.519-8.825-3.53-12.885,0-6.845,5.918-15.2,5.985-22.157.2-.9-.75-1.925-1.357-3.216-2.261.138,9.647,1.837,18.318,7.171,25.952,2.471,3.547,5.45,6.619,9.741,7.959a46.3,46.3,0,0,0,4.672.921c-.645-1.23-1.037-1.87-1.324-2.554-1.947-4.694-3.955-9.377-5.764-14.109a3.324,3.324,0,0,1,2.284-4.413,3.49,3.49,0,0,1,4.335,2.179c.237.552.32,1.208.585,1.76,2.427,5.152,4.893,10.281,7.325,15.444a2.836,2.836,0,0,0,2.973,1.655,2.936,2.936,0,0,0,2.813-1.589A67.868,67.868,0,0,0,141.15,24.4c.728-2.383,2.295-3.492,4.175-3.139,2.3.425,3.536,2.576,2.581,5.119-1.98,5.262-4.17,10.447-6.36,15.88ZM72.362,137.719c-5.907,0-11.1.971-15.053,2.912-1.837.9-4.17,1.754-4.22,4.071s2.273,3.354,4.137,4.115a38.651,38.651,0,0,0,30.287,0c1.87-.767,4.187-1.782,4.137-4.12s-2.383-3.194-4.236-4.065a34.581,34.581,0,0,0-15.053-2.912ZM40.552,70.658c-5.974,0-11.153.976-15.08,2.934-1.837.916-4.175,1.776-4.164,4.126,0,2.206,2.239,3.232,4.06,3.982a38.467,38.467,0,0,0,30.53-.039c1.8-.756,4.016-1.737,3.977-4.027s-2.267-3.133-4.043-3.988C51.01,71.32,45.842,70.647,40.552,70.658ZM26.476,187.075c5.968,0,11.341-1.015,15.24-2.984,1.765-.894,4.01-1.749,4.06-3.977s-2.151-3.276-3.955-4.032a38.369,38.369,0,0,0-30.651,0c-1.793.739-4,1.743-4,4.01s2.267,3.127,4.043,3.982a34.4,34.4,0,0,0,15.262,3Zm35.3-151.8.121.552c4.413-.91,8.892-1.655,13.238-2.819a16.172,16.172,0,0,0,5.1-2.99,2.126,2.126,0,0,0,.044-3.563,13.01,13.01,0,0,0-3.613-2.372,38.8,38.8,0,0,0-29.967.061c-1.864.756-4.187,1.715-4.209,4.087s2.328,3.232,4.164,4.115A34.365,34.365,0,0,0,61.777,35.274ZM7.049,189.987a29.157,29.157,0,0,1-.039,4.622c-.684,4.1,1.578,6.106,4.926,7.479a38.971,38.971,0,0,0,18.423,2.5c4.341-.375,8.627-1.147,12.4-3.458,1.219-.75,2.758-1.964,2.951-3.177.458-2.543.138-5.229.138-7.965-13.045,5.731-25.825,5.654-38.8,0Zm150.532-148.2c6.1,1.655,13.21-.728,16.272-5.174,3.492-5.075,0-13.006-6.178-13.911A42.924,42.924,0,0,1,157.582,41.782Z" transform="translate(0 0)" fill="#951d26"/>
        <path id="Path_21" data-name="Path 21" d="M127.829.03A26.571,26.571,0,0,0,118.2,5.347c-3.31,2.714-7.987,2.245-11.44-.552a27.38,27.38,0,0,0-4.38-3.067c-5.339-2.857-10.822.507-10.728,6.5.21,12.835,3.194,24.683,12.416,34.2L88.22,54.444V52.314c0-7.579-.116-15.163.044-22.742A11,11,0,0,0,83.339,19.9c-4.1-3.017-8.825-4.413-13.79-5.152-8.174-1.208-16.239-.8-23.988,2.278a26.6,26.6,0,0,0-5.9,3.343,10.515,10.515,0,0,0-4.413,9.085c.077,10.684,0,21.368.072,32.052,0,1.809-.463,2.466-2.311,2.686A30.281,30.281,0,0,0,20.2,68.514a12.133,12.133,0,0,0-6.156,11.12c.121,28.4.039,56.813.1,85.192,0,1.936-.353,3.083-2.394,3.425a10.97,10.97,0,0,0-2.5.954C5,171.059,1.572,173.778,0,178.329V.03Z" transform="translate(0 -0.013)" fill="#fff"/>
        <path id="Path_22" data-name="Path 22" d="M320.114,136.96c-.678-4.484-1.164-9-2.074-13.442-5.417-26.437-16.895-49.642-36.653-68.429-.949-.9-1.942-1.76-2.918-2.631a26.656,26.656,0,0,1-2.67-2.565c8.373.805,16.454,2.3,22.7,8.632,1.732,1.754,3.729,1.953,5.273.5s1.467-3.541-.165-5.339c-4.275-4.7-9.818-7.2-15.77-8.974-.783-.232-1.572-.436-2.57-.712a5.475,5.475,0,0,1,.552-.866c9.928-10.039,3.243-23.238-6.139-26.873-1.964-.761-2.477-1.655-2.206-3.569a30.281,30.281,0,0,0,.287-4.738,7.008,7.008,0,0,0-10.447-6.4A27.954,27.954,0,0,0,262.567,4.8c-3.431,2.791-8.092,3.249-11.4.524A26.075,26.075,0,0,0,241.53.03h78.584Z" transform="translate(-108.306 -0.013)" fill="#fff"/>
        <path id="Path_23" data-name="Path 23" d="M0,361.53c2.322,6.426,7.722,9,13.679,10.712,2.692.778,5.516,1.147,8.274,1.7H0Z" transform="translate(0 -162.116)" fill="#fff"/>
        <path id="Path_24" data-name="Path 24" d="M218.8,190.144V176.272a14.6,14.6,0,0,1-11.142-5.781,13.77,13.77,0,0,1-2.857-9.112c.292-7.264,5.356-12.24,14.087-13.646,0-1.031-.055-2.113,0-3.194.132-2.278,1.583-3.7,3.651-3.64s3.282,1.418,3.37,3.663c.044,1.02,0,2.046,0,3.15,1.34.248,2.554.4,3.729.706a13.951,13.951,0,0,1,10.381,12.962c.061,2.444-1.059,3.916-3.116,4.1-2.146.193-3.58-1.1-3.911-3.6-.59-4.413-3.05-6.818-7.055-6.707v13.707c9.206,1.688,14.043,6.619,14.1,14.209.061,7.673-4.672,12.593-13.966,14.424-.524,2.637.96,6.856-3.795,6.718-4.335-.132-3.116-4.027-3.519-6.768-1.1-.193-2.173-.325-3.227-.585A14.091,14.091,0,0,1,204.828,184.4c-.232-2.626.9-4.363,3.012-4.622,2.295-.281,3.685,1.054,4.01,3.861A6.909,6.909,0,0,0,218.8,190.144Zm7.264-13.872v13.79a6.673,6.673,0,0,0,6.906-6.426v-.088C233.13,179.51,230.427,176.564,226.069,176.272Zm-7.281-21.159a6.994,6.994,0,0,0-6.944,7.115,6.923,6.923,0,0,0,6.944,6.74Z" transform="translate(-91.831 -63.181)" fill="#951d26"/>
        <path id="Path_25" data-name="Path 25" d="M294.839,291.331c-3.911.055-5.588-1.214-5.725-3.425s1.544-3.773,4.38-3.861a35.521,35.521,0,0,0,13.6-2.962c8.312-3.707,11.859-10.6,12.857-19.2.1-.888,0-1.8.16-2.681a3.787,3.787,0,0,1,3.817-3.348,3.715,3.715,0,0,1,3.392,3.982,35.059,35.059,0,0,1-4.021,15.615c-4.413,8.412-11.848,12.532-20.668,14.633C299.7,290.785,296.67,291.05,294.839,291.331Z" transform="translate(-129.64 -114.726)" fill="#951d26"/>
        <path id="Path_26" data-name="Path 26" d="M77.3,158.64v27.689c0,5.03-.061,10.061.033,15.091A2.261,2.261,0,0,1,75.6,203.9a48.475,48.475,0,0,0-8.345,4.374,9.67,9.67,0,0,0-4.087,8.572c.1,8.059,0,16.112,0,24.54a43.84,43.84,0,0,0-24.6-4.054V158.712A45.593,45.593,0,0,0,77.3,158.64Z" transform="translate(-17.295 -71.137)" fill="#fff"/>
        <path id="Path_27" data-name="Path 27" d="M95.966,280.22a45.418,45.418,0,0,0,38.853,0V282.7c0,10.612-.072,21.23.055,31.843a5.34,5.34,0,0,1-3.012,5.163,30.242,30.242,0,0,1-12.637,3.5,38.4,38.4,0,0,1-17.651-2.206,21.262,21.262,0,0,1-3.122-1.583,4.788,4.788,0,0,1-2.515-4.584c.1-10.75.044-21.512.044-32.257Z" transform="translate(-43.014 -125.656)" fill="#fff"/>
        <path id="Path_28" data-name="Path 28" d="M221.814,47.991c2.206-5.433,4.38-10.618,6.36-15.88.954-2.543-.281-4.694-2.581-5.119-1.881-.353-3.447.756-4.175,3.139a67.919,67.919,0,0,1-7.628,16.437,2.935,2.935,0,0,1-2.813,1.589A2.829,2.829,0,0,1,208,46.5c-2.432-5.152-4.9-10.281-7.325-15.444-.265-.552-.347-1.191-.585-1.76a3.466,3.466,0,0,0-4.335-2.179,3.32,3.32,0,0,0-2.284,4.413c1.809,4.744,3.817,9.416,5.764,14.109.287.684.678,1.324,1.324,2.554a46.3,46.3,0,0,1-4.672-.921c-4.291-1.346-7.27-4.413-9.741-7.959C180.831,31.675,179.132,23,179,13.357c1.291.9,2.311,1.511,3.216,2.261,6.961,5.781,15.312,5.714,22.157-.2,4.049-3.508,8.792-3.5,12.885,0,6.862,5.9,15.207,5.957,22.157.171.883-.739,1.859-1.357,2.791-2.035l.634.193c-.408,3.492-.623,7.016-1.263,10.48-1.423,7.684-4.451,14.6-10.436,19.918a14.322,14.322,0,0,1-9.327,3.85Z" transform="translate(-80.267 -5.734)" fill="#fff"/>
        <path id="Path_29" data-name="Path 29" d="M115.522,249.68a34.582,34.582,0,0,1,15.053,2.912c1.853.872,4.187,1.76,4.236,4.065s-2.267,3.354-4.137,4.12a38.651,38.651,0,0,1-30.287,0c-1.864-.761-4.187-1.76-4.137-4.115s2.383-3.166,4.22-4.071C104.418,250.651,109.614,249.686,115.522,249.68Z" transform="translate(-43.16 -111.961)" fill="#fff"/>
        <path id="Path_30" data-name="Path 30" d="M57.875,128.1c5.29,0,10.48.662,15.279,2.99,1.776.855,4,1.732,4.043,3.988s-2.173,3.271-3.977,4.027a38.468,38.468,0,0,1-30.53.039c-1.82-.75-4.043-1.754-4.06-3.982,0-2.35,2.328-3.21,4.164-4.126,3.927-1.958,9.107-2.923,15.08-2.934Z" transform="translate(-17.322 -57.442)" fill="#fff"/>
        <path id="Path_31" data-name="Path 31" d="M32.323,327.624c-5.279,0-10.436-.678-15.24-3-1.776-.855-4.01-1.737-4.043-3.982s2.168-3.271,3.977-4.021a38.461,38.461,0,0,1,30.651,0c1.8.756,4.01,1.76,3.955,4.032s-2.295,3.083-4.06,3.977c-3.911,1.98-9.283,3-15.24,3Z" transform="translate(-5.847 -140.55)" fill="#fff"/>
        <path id="Path_32" data-name="Path 32" d="M96.336,52.433c-5.212,0-10.315-.651-15.075-2.929-1.864-.888-4.231-1.732-4.192-4.115s2.344-3.309,4.209-4.087a38.813,38.813,0,0,1,29.951-.061,12.92,12.92,0,0,1,3.585,2.41,2.126,2.126,0,0,1-.044,3.563,16.172,16.172,0,0,1-5.1,2.99c-4.346,1.175-8.825,1.908-13.238,2.819l-.094-.59Z" transform="translate(-34.559 -17.159)" fill="#fff"/>
        <path id="Path_33" data-name="Path 33" d="M12.649,344.44c12.973,5.654,25.753,5.731,38.8,0,0,2.758.32,5.422-.138,7.965-.215,1.213-1.732,2.427-2.951,3.177-3.773,2.311-8.059,3.083-12.4,3.458a38.788,38.788,0,0,1-18.423-2.5c-3.348-1.373-5.61-3.381-4.926-7.479a29.165,29.165,0,0,0,.039-4.622Z" transform="translate(-5.6 -154.453)" fill="#fff"/>
        <path id="Path_34" data-name="Path 34" d="M285.69,60.235a42.99,42.99,0,0,0,10.1-19.085c6.2.9,9.669,8.825,6.178,13.911C298.9,59.507,291.791,61.862,285.69,60.235Z" transform="translate(-128.108 -18.452)" fill="#fff"/>
        <path id="Path_35" data-name="Path 35" d="M243.37,205.03c4.358.309,7.06,3.254,6.906,7.314a6.668,6.668,0,0,1-6.856,6.476h-.05Z" transform="translate(-109.131 -91.939)" fill="#fff"/>
        <path id="Path_36" data-name="Path 36" d="M224.522,166.64V180.5a6.923,6.923,0,0,1-6.944-6.74A6.994,6.994,0,0,1,224.522,166.64Z" transform="translate(-97.564 -74.724)" fill="#fff"/>
      </g>
    </g>
  </g>
</svg>
