<svg id="Nav_Icons" data-name="Nav Icons" xmlns="http://www.w3.org/2000/svg" viewBox="0 0 49.24 49.24"><defs><style>.cls-1{fill:#fff;}</style></defs><title>icon_cards_white</title><g id="Cards"><path class="cls-1" d="M42.31,12.55l-23.46-5A1.84,1.84,0,0,0,16.67,9l-.45,2.87L43.29,17.6l.44-2.86A1.85,1.85,0,0,0,42.31,12.55Z"/><path class="cls-1" d="M32.45,18.21a1.88,1.88,0,0,0-2.3-1.3L25.7,18.15,15.2,15.93l-1.15,5.45-7.22,2a1.86,1.86,0,0,0-1.29,2.29L9.6,40.33a1.87,1.87,0,0,0,2.29,1.3l23.33-6.48a1.86,1.86,0,0,0,1.29-2.29l-.7-2.51,2.62.55a1.85,1.85,0,0,0,2.19-1.42l1.65-7.82-9.42-2ZM7.24,24.85l6.45-1.79,15.23-4.23,1.64-.45h.09a.34.34,0,0,1,.33.25l.2.69.6,2.17-24,6.66L7,25.27A.34.34,0,0,1,7.24,24.85Zm27.81,8.42a.34.34,0,0,1-.24.42L11.49,40.16l-.09,0a.37.37,0,0,1-.34-.26L8.69,31.38l24-6.66L34.14,30Z"/></g></svg>