<svg xmlns="http://www.w3.org/2000/svg" viewBox="0 0 384 384"><defs><style>.cls-1{fill:#fff;}</style></defs><g id="Layer_2" data-name="Layer 2"><g id="Layer_1-2" data-name="Layer 1"><path class="cls-1" d="M6,384H0V104.25a33,33,0,0,1,.71,3.25C5.77,153.29,45,189.9,91.2,191.91a96.31,96.31,0,0,0,99-78c1.11-5.79,1.4-11.73,2.08-17.7h-12c-.81,47.77-38.64,81.82-80,83.71a84,84,0,0,1-85.81-63.6C4.89,77.53,24,37,59.79,20.22c18.33-8.6,37.4-10.7,57-5.58,26.23,6.87,44.79,23.2,56.41,47.73,3.77-1.69,7.23-3.24,10.68-4.77-11.43-27.51-38-49.3-67.14-55.31C112.57,1.44,108.4.76,104.25,0H312V12.11h16.66c-1.1,1.4-1.81,2.37-2.58,3.28-17.16,20-34.62,39.78-51.32,60.17C269.51,82,264.18,85.45,256,84c-4.83-.85-8.08,1.46-11.28,5q-56.56,62.55-113.45,124.84a7.32,7.32,0,0,1-4.73,2.06c-9.25.19-18.5.22-27.74,0a11.31,11.31,0,0,0-8.94,3.68Q59.32,250.34,28.62,280.9c-.87.87-1.69,1.79-2.55,2.71,2.8,2.85,5.47,5.56,8.28,8.4,1.1-1,2.1-2,3.06-2.92Q66.71,259.81,96,230.47a7.79,7.79,0,0,1,6.22-2.53c9.12.15,18.24-.08,27.36.13a10.64,10.64,0,0,0,8.76-4c35.91-39.63,72.08-79,107.71-118.92,6.11-6.84,12.07-10.85,21.27-9.2,3.8.68,6.54-1.07,9-4q28.41-33.4,57-66.64a23,23,0,0,0,1.71-2.68l1.13.73V35.8H348c0-9.17-.15-18.14.07-27.1.08-3.67-.77-6.58-3.82-8.7H384V384h-6V120.18H366V371.73H330.19V60h36V83.81H378c0-7.65,0-15.11,0-22.58C378,52.85,373.12,48,364.7,48c-10.5,0-21,0-31.5,0C322.12,48,318,52.08,318,63.09v308.7H300V134.68c0-10.28-4.34-14.68-14.49-14.68H254.77c-10.52,0-14.76,4.24-14.76,14.77v237H222V367.1q0-74.81,0-149.61c0-8.67-4.8-13.47-13.43-13.48-10.75,0-21.5,0-32.25,0-9.93,0-14.31,4.42-14.31,14.46V371.74H144V367.4q0-39,0-78c0-8.61-4.85-13.39-13.51-13.41H98.24C88.48,276,84,280.45,84,290.17q0,38.81,0,77.62v3.92H66c0-11.66,0-23,0-34.39C66,328.89,61.15,324,52.77,324q-16.68,0-33.37,0C10.73,324,6,328.77,6,337.5Q6,360.75,6,384Zm96-239.89,2.39-.11c16-.39,27.78-12.15,27.57-27.49-.21-15-12.31-26.44-28.16-26.51-5.75,0-11.5.14-17.24,0A15,15,0,0,1,72.94,69.76C75.26,63.48,80.83,60,88.65,60h31.12V47.85H101.89V36.24h-12V47.89c-1,0-1.64.09-2.26.11-16,.38-27.78,12.15-27.57,27.48.2,15,12.3,26.45,28.15,26.52,5.75,0,11.5-.13,17.24,0a14.89,14.89,0,0,1,13.86,19.46c-2.17,6.92-7.85,10.5-16.67,10.5H72.24v12.15H90.11v11.61H102ZM14.21,296.58,2.54,308.25l7.09,7.23,11.85-11.86ZM179.43,84.82l11.83-1.7c-.9-4.37-1.73-8.42-2.63-12.75L177.1,73.65C177.9,77.48,178.63,81,179.43,84.82Zm186.75,23h11.61V96.26H366.18Z"/><path d="M6,384q0-23.25,0-46.5C6,328.77,10.73,324,19.4,324q16.7,0,33.37,0c8.38,0,13.2,4.88,13.23,13.31,0,11.37,0,22.73,0,34.39H84v-3.92q0-38.82,0-77.62C84,280.45,88.48,276,98.24,276h32.25c8.66,0,13.5,4.8,13.51,13.41q0,39,0,78v4.34h18V218.46c0-10,4.38-14.45,14.31-14.46,10.75,0,21.5,0,32.25,0,8.63,0,13.43,4.81,13.43,13.48q0,74.81,0,149.61v4.67h18v-237c0-10.53,4.24-14.77,14.76-14.77h30.75c10.15,0,14.49,4.4,14.49,14.68V371.79h18V63.09c0-11,4.11-15.09,15.19-15.09,10.5,0,21,0,31.5,0C373.12,48,378,52.85,378,61.23c0,7.47,0,14.93,0,22.58H366.15V60h-36V371.73H366V120.18h12V384ZM252.26,132.18V371.71h35.57V132.18ZM209.75,371.83V216.3H174.2V371.83ZM96.3,288.14V371.8h35.48V288.14ZM53.71,371.86V336.2H18.23v35.66Z"/><path d="M104.25,0c4.15.76,8.32,1.44,12.45,2.29,29.14,6,55.71,27.8,67.14,55.31-3.45,1.53-6.91,3.08-10.68,4.77C161.54,37.84,143,21.51,116.75,14.64c-19.56-5.12-38.63-3-57,5.58C24,37,4.89,77.53,14.51,116.29a84,84,0,0,0,85.81,63.6c41.4-1.89,79.23-35.94,80-83.71h12c-.68,6-1,11.91-2.08,17.7a96.31,96.31,0,0,1-99,78C45,189.9,5.77,153.29.71,107.5A33,33,0,0,0,0,104.25V87.75c.25-1.2.55-2.4.74-3.61,5.88-37.81,26.52-64.06,62.13-78C70.75,3,79.44,2,87.75,0Z"/><path d="M344.27,0c3.05,2.12,3.9,5,3.82,8.7-.22,9-.07,17.93-.07,27.1H336.19V23.36l-1.13-.73a23,23,0,0,1-1.71,2.68q-28.53,33.33-57,66.64c-2.5,3-5.24,4.7-9,4-9.2-1.65-15.16,2.36-21.27,9.2-35.63,39.89-71.8,79.29-107.71,118.92a10.64,10.64,0,0,1-8.76,4c-9.12-.21-18.24,0-27.36-.13A7.79,7.79,0,0,0,96,230.47q-29.2,29.39-58.55,58.62c-1,1-2,1.88-3.06,2.92-2.81-2.84-5.48-5.55-8.28-8.4.86-.92,1.68-1.84,2.55-2.71q30.62-30.63,61.19-61.28a11.31,11.31,0,0,1,8.94-3.68c9.24.19,18.49.16,27.74,0a7.32,7.32,0,0,0,4.73-2.06Q188.07,151.54,244.67,89c3.2-3.53,6.45-5.84,11.28-5,8.23,1.43,13.56-2,18.82-8.46,16.7-20.39,34.16-40.16,51.32-60.17.77-.91,1.48-1.88,2.58-3.28H312V0Z"/><path class="cls-1" d="M87.75,0c-8.31,2-17,3-24.88,6.13-35.61,14-56.25,40.2-62.13,78C.55,85.35.25,86.55,0,87.75V0Z"/><path d="M102,144.11v11.65H90.11V144.15H72.24V132H102.6c8.82,0,14.5-3.58,16.67-10.5A14.89,14.89,0,0,0,105.41,102c-5.74-.17-11.49,0-17.24,0C72.32,101.93,60.22,90.52,60,75.48,59.81,60.15,71.62,48.38,87.59,48c.62,0,1.24-.06,2.26-.11V36.24h12V47.85h17.88V60H88.65c-7.82,0-13.39,3.48-15.71,9.76A15,15,0,0,0,86.59,90c5.74.19,11.49,0,17.24,0,15.85.07,28,11.47,28.16,26.51.21,15.34-11.59,27.1-27.57,27.49Z"/><path d="M14.21,296.58l7.27,7L9.63,315.48l-7.09-7.23Z"/><path d="M179.43,84.82c-.8-3.85-1.53-7.34-2.33-11.17l11.53-3.28c.9,4.33,1.73,8.38,2.63,12.75Z"/><path d="M366.18,107.8V96.26h11.61V107.8Z"/><path class="cls-1" d="M252.26,132.18h35.57V371.71H252.26Z"/><path class="cls-1" d="M209.75,371.83H174.2V216.3h35.55Z"/><path class="cls-1" d="M96.3,288.14h35.48V371.8H96.3Z"/><path class="cls-1" d="M53.71,371.86H18.23V336.2H53.71Z"/></g></g></svg>