<svg width="20" height="18" viewBox="0 0 20 18" fill="none" xmlns="http://www.w3.org/2000/svg">
<path d="M6.2918 17.125C13.8371 17.125 17.9652 10.8723 17.9652 5.4516C17.9652 5.27582 17.9613 5.09613 17.9535 4.92035C18.7566 4.3396 19.4496 3.62026 20 2.79613C19.2521 3.12888 18.458 3.3462 17.6449 3.44066C18.5011 2.92747 19.1421 2.12128 19.4492 1.17152C18.6438 1.64885 17.763 1.98556 16.8445 2.16723C16.2257 1.50969 15.4075 1.07431 14.5164 0.928427C13.6253 0.782539 12.711 0.93426 11.9148 1.36013C11.1186 1.786 10.4848 2.46231 10.1115 3.28448C9.73825 4.10665 9.64619 5.0289 9.84961 5.90863C8.21874 5.82679 6.62328 5.40314 5.16665 4.66513C3.71002 3.92713 2.42474 2.89125 1.39414 1.62465C0.870333 2.52775 0.710047 3.59642 0.945859 4.61346C1.18167 5.6305 1.79589 6.51959 2.66367 7.10004C2.01219 7.07936 1.37498 6.90395 0.804688 6.58832V6.6391C0.804104 7.58684 1.13175 8.50554 1.73192 9.23903C2.3321 9.97251 3.16777 10.4755 4.09687 10.6625C3.49338 10.8277 2.85999 10.8517 2.2457 10.7329C2.50788 11.5479 3.01798 12.2608 3.70481 12.772C4.39164 13.2832 5.22093 13.5672 6.07695 13.5844C4.62369 14.726 2.82848 15.3452 0.980469 15.3422C0.652739 15.3417 0.325333 15.3216 0 15.2821C1.87738 16.4865 4.06128 17.1262 6.2918 17.125Z" fill="#FFEBEC"/>
</svg>
