<svg width="332" height="258" viewBox="0 0 332 258" fill="none" xmlns="http://www.w3.org/2000/svg"><circle cx="165.818" cy="113.455" r="113.455" fill="#FFF5F5"/><g filter="url(#a)"><rect x="39.273" y="26.182" width="250.909" height="157.091" rx="13.091" fill="url(#b)"/><rect x="61.09" y="56.727" width="43.636" height="32.727" rx="4.364" fill="#F7A3A5"/><path d="M61.09 160.727a3.636 3.636 0 0 1 3.637-3.636h36.363a3.636 3.636 0 1 1 0 7.273H64.727a3.637 3.637 0 0 1-3.637-3.637m54.546 0a3.636 3.636 0 0 1 3.636-3.636h36.364a3.636 3.636 0 0 1 0 7.273h-36.364a3.637 3.637 0 0 1-3.636-3.637m54.545 0a3.636 3.636 0 0 1 3.637-3.636h36.363a3.636 3.636 0 1 1 0 7.273h-36.363a3.637 3.637 0 0 1-3.637-3.637m54.546 0a3.636 3.636 0 0 1 3.636-3.636h36.364a3.636 3.636 0 0 1 0 7.273h-36.364a3.637 3.637 0 0 1-3.636-3.637" fill="#F7A3A5"/></g><circle cx="45.818" cy="10.909" r="10.909" fill="#F5DADB"/><circle cx="39.273" cy="237.818" r="15.273" fill="#F5DADB"/><circle cx="316.364" cy="76.364" r="15.273" fill="#F5DADB"/><circle cx="292.363" cy="17.454" r="8.727" fill="#F5DADB"/><defs><linearGradient id="b" x1="48.01" y1="181.413" x2="43.447" y2="37.637" gradientUnits="userSpaceOnUse"><stop stop-color="#FDEDED"/><stop offset="1" stop-color="#F9FAFB"/></linearGradient><filter id="a" x="2.909" y="26.182" width="323.637" height="229.818" filterUnits="userSpaceOnUse" color-interpolation-filters="sRGB"><feFlood flood-opacity="0" result="BackgroundImageFix"/><feColorMatrix in="SourceAlpha" values="0 0 0 0 0 0 0 0 0 0 0 0 0 0 0 0 0 0 127 0" result="hardAlpha"/><feMorphology radius="7.273" in="SourceAlpha" result="effect1_dropShadow_367_5456"/><feOffset dy="14.546"/><feGaussianBlur stdDeviation="7.273"/><feColorMatrix values="0 0 0 0 0.0627451 0 0 0 0 0.0941176 0 0 0 0 0.156863 0 0 0 0.04 0"/><feBlend in2="BackgroundImageFix" result="effect1_dropShadow_367_5456"/><feColorMatrix in="SourceAlpha" values="0 0 0 0 0 0 0 0 0 0 0 0 0 0 0 0 0 0 127 0" result="hardAlpha"/><feMorphology radius="7.273" in="SourceAlpha" result="effect2_dropShadow_367_5456"/><feOffset dy="36.364"/><feGaussianBlur stdDeviation="21.818"/><feColorMatrix values="0 0 0 0 0.0627451 0 0 0 0 0.0941176 0 0 0 0 0.156863 0 0 0 0.1 0"/><feBlend in2="effect1_dropShadow_367_5456" result="effect2_dropShadow_367_5456"/><feBlend in="SourceGraphic" in2="effect2_dropShadow_367_5456" result="shape"/></filter></defs></svg>
