<svg id="Layer_1_copy" data-name="Layer 1 copy" xmlns="http://www.w3.org/2000/svg" viewBox="0 0 586.6 85.26"><defs><style>.cls-1{fill:#65666a}.cls-2{fill:#981b2a}</style></defs><path class="cls-1" d="M123.94 74.82H25.53a6.41 6.41 0 0 0-6.34 7.24l2.43 19.59A6.41 6.41 0 0 0 28 107.3h.51l1.43-12.18h-1.4A1.53 1.53 0 0 1 27 93.73l-.5-5A1.52 1.52 0 0 1 28 87h93.41a1.52 1.52 0 0 1 1.59 1.68l-.5 5a1.53 1.53 0 0 1-1.52 1.39h-1.37L121 107.3h.51a6.41 6.41 0 0 0 6.35-5.65l2.43-19.59a6.41 6.41 0 0 0-6.35-7.24z" transform="translate(-19.14 -74.82)"/><path class="cls-2" d="M26.35 158.84a1.23 1.23 0 0 0 1.22 1.23h26.24l.72-69H34.41zM58.65 91.06l.72 69h62.53a1.22 1.22 0 0 0 1.22-1.22l-8.06-67.79z" transform="translate(-19.14 -74.82)"/><path class="cls-2" d="m211.74 29.45.77-2.88h-8.79l-.77 2.85 8.79.03zM191.43 29.38l.75-2.81h-8.79l-.75 2.79 8.79.02z"/><path class="cls-2" d="m221.69 105.69-3.5 13a15.58 15.58 0 0 1-1.13 3.12 7.51 7.51 0 0 1-1.52 2.09 5.72 5.72 0 0 1-4.22 1.66 5 5 0 0 1-3.64-1.21 4.49 4.49 0 0 1-1.25-3.37 9 9 0 0 1 .11-1.48 10.8 10.8 0 0 1 .34-1.48l3.28-12.26h-8.82l-3.13 11.61a18.77 18.77 0 0 0-.53 2.58 17.68 17.68 0 0 0-.18 2.45 10.23 10.23 0 0 0 3.29 8.1q3.3 2.89 9.41 2.89a20.92 20.92 0 0 0 6.55-1 12.6 12.6 0 0 0 5-3.08 20.65 20.65 0 0 0 4.89-9.37l3.83-14.31z" transform="translate(-19.14 -74.82)"/><path class="cls-2" d="M225.36 29.49 224 26.57h-8.12l-.78 2.88 10.26.04zM244.7 29.55l.8-2.98h-8.66l-.8 2.95 8.66.03zM235.7 30.77l-3.57 13.26-6.16-13.23-11.24.04-7.29 27.14h8.66l4.85-18.08 8.48 18.08h7.63l7.32-27.24-8.68.03z"/><path class="cls-2" d="M289.07 104.44a14.49 14.49 0 0 0-3.61-1.93 21.53 21.53 0 0 0-7.54-1.12h-10.14l-.81 3zM266.66 105.55l-7.32 27.25H272a28 28 0 0 0 9.56-1.48 18.52 18.52 0 0 0 6.91-4.31 17.16 17.16 0 0 0 5.17-12.39 12.44 12.44 0 0 0-3.37-9.14zM284 118.93a9.05 9.05 0 0 1-2 3 10 10 0 0 1-3.9 2.38 15.4 15.4 0 0 1-5.07.81h-2.88l4.31-16H277a11.79 11.79 0 0 1 3.78.52 6.25 6.25 0 0 1 2.37 1.41 5.18 5.18 0 0 1 1.17 1.82 7 7 0 0 1 .4 2.49 9.27 9.27 0 0 1-.72 3.57z" transform="translate(-19.14 -74.82)"/><path class="cls-2" d="m172.54 29.32-.46-2.98h-8.53l-2.03 2.95 11.02.03z"/><path class="cls-2" d="m179.47 105.82-13.37 19.35h-10.38l5.16-19.29h-8.76l-7.22 26.9h25.4l3.77-5.61h12.12l.76 5.61h9.16l-4.18-27zm-1 14.59 5.88-9 1.12 9z" transform="translate(-19.14 -74.82)"/><path class="cls-2" d="m142.24 29.23.71-2.66h-8.75l-.71 2.63 8.75.03z"/><path class="cls-2" d="M322.23 104.54a10.24 10.24 0 0 0-4.08-2.3 21.73 21.73 0 0 0-6.6-.85h-11.84l-.83 3.08zM323 105.38l-24.38.07-7.34 27.35H300l2.56-9.51h3.86l4.17 9.51h9.61l-4.85-10.59a12.89 12.89 0 0 0 7.12-4.24 10.93 10.93 0 0 0 2.28-6.89 10.36 10.36 0 0 0-.58-3.52 7.48 7.48 0 0 0-1.17-2.18zm-8.9 9.91a8.38 8.38 0 0 1-4.71 1.17h-5l2.06-7.58h4.71c1.86 0 3.14.36 3.86 1.08a3.1 3.1 0 0 1 .81 2.13 3.65 3.65 0 0 1-1.74 3.2z" transform="translate(-19.14 -74.82)"/><path class="cls-2" d="m335.43 29.82 2.83-3.25h-10.41l-2.6 3.22 10.18.03zM316.13 29.77l-.85-3.2h-9.38l1.04 3.17 9.19.03zM324.69 30.5l-6.31 7.83-2.06-7.81-9.11.03 5.02 15.27-3.27 12.16h8.75l3-11.22 14.16-16.29-10.18.03z"/><path class="cls-1" d="m439.9 105-24 .07L409 131l-4-25.82h-11.91l-14.64 21.2-4.54-4a12.94 12.94 0 0 1-3.1 2.36 7.68 7.68 0 0 1-3.63.83 6.19 6.19 0 0 1-4.51-1.73 6.3 6.3 0 0 1-1.77-4.73 10.4 10.4 0 0 1 .74-3.93 11.44 11.44 0 0 1 2-3.3 9.62 9.62 0 0 1 3-2.29 8.19 8.19 0 0 1 3.68-.85 6.61 6.61 0 0 1 3.86 1.06 7.47 7.47 0 0 1 2.46 3l7.54-4a12.41 12.41 0 0 0-2.09-3.5l-23.4.07a17.09 17.09 0 0 0-1.59 1.48 19.28 19.28 0 0 0-3.91 6.06 18.27 18.27 0 0 0-1.36 6.89 14 14 0 0 0 1.1 5.67 12.33 12.33 0 0 0 3.07 4.23 13.63 13.63 0 0 0 4.69 2.76 17.63 17.63 0 0 0 6 1 16.61 16.61 0 0 0 7.67-1.64c.22-.11.43-.24.64-.36l-1 1.34h9.47l3.77-5.61h12.12l.76 5.61h17.12l2.56-9.51h3.86l4.17 9.51h9.61l-4.85-10.59a12.86 12.86 0 0 0 7.12-4.24 10.93 10.93 0 0 0 2.28-6.89 10.36 10.36 0 0 0-.58-3.52 7.45 7.45 0 0 0-1.51-2.56zm-48.26 15.39 5.88-9 1.12 9zm39.67-5.12a8.38 8.38 0 0 1-4.71 1.17h-5l2.06-7.58h4.71c1.86 0 3.14.36 3.86 1.08a3.1 3.1 0 0 1 .81 2.13 3.65 3.65 0 0 1-1.73 3.22z" transform="translate(-19.14 -74.82)"/><path class="cls-1" d="m385.81 29.98-.56-3.64h-8.53l-2.49 3.6 11.58.04z"/><path class="cls-1" d="m439.8 104.9-.22-.24a10.25 10.25 0 0 0-4.21-2.42 21.73 21.73 0 0 0-6.6-.85h-11.84l-.93 3.44zM381.64 104.73a12.69 12.69 0 0 0-2.16-1.82 14.33 14.33 0 0 0-8.08-2.15 19.4 19.4 0 0 0-8.17 1.66 20.32 20.32 0 0 0-3.8 2.24zM469.81 105.42a13.32 13.32 0 0 0-4.75-2.91 21.53 21.53 0 0 0-7.54-1.12h-10.14l-.95 3.53h12-12l-7.47 27.8h12.65a28 28 0 0 0 9.56-1.48 18.44 18.44 0 0 0 6.91-4.31 17.16 17.16 0 0 0 5.17-12.39 12.42 12.42 0 0 0-3.44-9.12zm-6.23 13.51a9.05 9.05 0 0 1-2 3 10 10 0 0 1-3.9 2.38 15.4 15.4 0 0 1-5.07.81h-2.88l4.31-16h2.52a11.77 11.77 0 0 1 3.77.52 6.18 6.18 0 0 1 2.37 1.41 5.18 5.18 0 0 1 1.17 1.82 7 7 0 0 1 .4 2.49 9.09 9.09 0 0 1-.69 3.57z" transform="translate(-19.14 -74.82)"/><path class="cls-2" d="M497 101.63h7.17l-5 25h15.45l-1.19 5.81h-22.6zM523.56 101.63h7.18l-6.17 30.8h-7.17zM567.43 101.63l-19.49 30.8h-7l-7.17-30.8h7.35l5 22 13.95-22zM575.92 107.35 574.6 114h14.3l-1.1 5.54h-14.34l-1.41 7.13h16.81l-1.19 5.72h-23.85l6.16-30.8h23.28l-1.19 5.72z" transform="translate(-19.14 -74.82)"/><rect x="460.31" y="17.67" width="123.92" height="49.2" rx="8.4" style="fill:none;stroke:#981b2a;stroke-miterlimit:10;stroke-width:2px"/></svg>