<?xml version="1.0" encoding="UTF-8" standalone="no"?>
<!-- Created with Inkscape (http://www.inkscape.org/) -->

<svg
   xmlns:dc="http://purl.org/dc/elements/1.1/"
   xmlns:cc="http://creativecommons.org/ns#"
   xmlns:rdf="http://www.w3.org/1999/02/22-rdf-syntax-ns#"
   xmlns:svg="http://www.w3.org/2000/svg"
   xmlns="http://www.w3.org/2000/svg"
   xmlns:sodipodi="http://sodipodi.sourceforge.net/DTD/sodipodi-0.dtd"
   xmlns:inkscape="http://www.inkscape.org/namespaces/inkscape"
   width="1706.6891"
   height="1066.6805"
   viewBox="0 0 1706.6889 1066.6806"
   version="1.1"
   id="svg475"
   inkscape:version="0.92.3 (2405546, 2018-03-11)"
   sodipodi:docname="launchpage_background.svg">
  <defs
     id="defs469">
    <clipPath
       clipPathUnits="userSpaceOnUse"
       id="clipPath32">
      <path
         d="M 0,800 H 1280 V 0 H 0 Z"
         id="path30"
         inkscape:connector-curvature="0" />
    </clipPath>
    <clipPath
       clipPathUnits="userSpaceOnUse"
       id="clipPath40">
      <path
         d="M 0,650 H 859.255 V 56.7009 H 0 Z"
         id="path38"
         inkscape:connector-curvature="0" />
    </clipPath>
  </defs>
  <sodipodi:namedview
     id="base"
     pagecolor="#f0eff0"
     bordercolor="#666666"
     borderopacity="1.0"
     inkscape:pageopacity="1"
     inkscape:pageshadow="2"
     inkscape:zoom="0.35"
     inkscape:cx="767.12239"
     inkscape:cy="490.92424"
     inkscape:document-units="px"
     inkscape:current-layer="layer1"
     showgrid="false"
     fit-margin-top="0"
     fit-margin-left="0"
     fit-margin-right="0"
     fit-margin-bottom="0"
     units="px"
     viewbox-width="1706.6668"
     inkscape:window-width="1280"
     inkscape:window-height="657"
     inkscape:window-x="-8"
     inkscape:window-y="-8"
     inkscape:window-maximized="1" />
  <metadata
     id="metadata472">
    <rdf:RDF>
      <cc:Work
         rdf:about="">
        <dc:format>image/svg+xml</dc:format>
        <dc:type
           rdf:resource="http://purl.org/dc/dcmitype/StillImage" />
        <dc:title></dc:title>
      </cc:Work>
    </rdf:RDF>
  </metadata>
  <g
     inkscape:label="Layer 1"
     inkscape:groupmode="layer"
     id="layer1"
     transform="translate(219.00845,-44.6605)">
    <g
       id="g26"
       transform="matrix(1.9862429,0,0,-1.797882,-219.00845,1213.2838)">
      <g
         id="g28"
         clip-path="url(#clipPath32)">
        <g
           id="g34">
          <g
             id="g36" />
          <g
             id="g120">
            <g
               clip-path="url(#clipPath40)"
               id="g118"
               style="opacity:0.39999402">
              <g
                 transform="translate(433.8628,218.96)"
                 id="g44">
                <path
                   d="m 0,0 c -16.702,-27.224 -46.368,-43.794 -78.307,-43.739 -39.578,0.092 -74.726,25.318 -87.478,62.786 9.877,1.411 14.815,12.7 19.753,23.28 4.233,9.877 8.466,18.342 15.52,18.342 7.76,0 13.4,-14.815 19.048,-29.63 6.349,-16.931 13.4,-35.273 26.1,-35.273 16.931,0 21.869,27.513 26.1,53.616 3.532,21.165 7.059,43.034 16.23,43.034 9.877,0 13.4,-18.342 17.637,-38.1 4.233,-22.575 9.171,-47.972 25.4,-54.321"
                   style="fill:#f1f1f2;fill-opacity:1;fill-rule:nonzero;stroke:none"
                   id="path42"
                   inkscape:connector-curvature="0" />
              </g>
              <g
                 transform="translate(775.3086,218.96)"
                 id="g48">
                <path
                   d="m 0,0 c -16.702,-27.224 -46.368,-43.794 -78.307,-43.739 -39.578,0.092 -74.726,25.318 -87.478,62.786 9.877,1.411 14.815,12.7 19.753,23.28 4.233,9.877 8.467,18.342 15.52,18.342 7.76,0 13.401,-14.815 19.048,-29.63 6.35,-16.931 13.401,-35.273 26.101,-35.273 16.93,0 21.869,27.513 26.099,53.616 3.533,21.165 7.059,43.034 16.231,43.034 9.877,0 13.399,-18.342 17.637,-38.1 3.527,-22.575 9.17,-47.972 25.399,-54.321"
                   style="fill:#f1f1f2;fill-opacity:1;fill-rule:nonzero;stroke:none"
                   id="path46"
                   inkscape:connector-curvature="0" />
              </g>
              <g
                 transform="translate(433.8628,218.96)"
                 id="g52">
                <path
                   d="m 0,0 c -16.702,-27.224 -46.368,-43.794 -78.307,-43.739 -39.578,0.092 -74.726,25.318 -87.478,62.786 9.877,1.411 14.815,12.7 19.753,23.28 4.233,9.877 8.466,18.342 15.52,18.342 7.76,0 13.4,-14.815 19.048,-29.63 6.349,-16.931 13.4,-35.273 26.1,-35.273 16.931,0 21.869,27.513 26.1,53.616 3.532,21.165 7.059,43.034 16.23,43.034 9.877,0 13.4,-18.342 17.637,-38.1 4.233,-22.575 9.171,-47.972 25.4,-54.321"
                   style="fill:#f0eff0;fill-opacity:1;fill-rule:nonzero;stroke:none"
                   id="path50"
                   inkscape:connector-curvature="0" />
              </g>
              <g
                 transform="translate(775.3086,218.96)"
                 id="g56">
                <path
                   d="m 0,0 c -16.702,-27.224 -46.368,-43.794 -78.307,-43.739 -39.578,0.092 -74.726,25.318 -87.478,62.786 9.877,1.411 14.815,12.7 19.753,23.28 4.233,9.877 8.467,18.342 15.52,18.342 7.76,0 13.401,-14.815 19.048,-29.63 6.35,-16.931 13.401,-35.273 26.101,-35.273 16.93,0 21.869,27.513 26.099,53.616 3.533,21.165 7.059,43.034 16.231,43.034 9.877,0 13.399,-18.342 17.637,-38.1 3.527,-22.575 9.17,-47.972 25.399,-54.321"
                   style="fill:#f0eff0;fill-opacity:1;fill-rule:nonzero;stroke:none"
                   id="path54"
                   inkscape:connector-curvature="0" />
              </g>
              <g
                 transform="translate(797.1777,550.5239)"
                 id="g60">
                <path
                   d="m 0,0 c -7.055,9.171 -9.171,28.924 -9.877,38.1 h -16.93 c -2.116,-4.233 -7.759,-17.637 -9.171,-29.63 -2.116,-14.815 0.706,-28.219 0.706,-29.63 0.705,-5.644 5.643,-10.582 11.288,-10.582 8.465,-0.705 21.869,0 31.041,0.705 4.232,0 7.759,3.527 8.465,7.76 l 1.412,13.4 C 13.404,-10.577 6.347,-8.461 0,0"
                   style="fill:#f0eff0;fill-opacity:1;fill-rule:nonzero;stroke:none"
                   id="path58"
                   inkscape:connector-curvature="0" />
              </g>
              <g
                 transform="translate(43.7388,248.5898)"
                 id="g64">
                <path
                   d="M 0,0 -15.52,-14.814 -31.746,0.705 H 0 Z m 1.411,-5.644 1.411,-26.808 -14.109,14.109 z M 3.528,33.862 C 1.697,30.635 0.725,26.991 0.706,23.28 L 1.411,5.644 h -39.506 l 28.218,28.218 h 13.4 m -40.207,-219.4 c 4.938,5.643 19.045,19.047 21.869,22.571 l 22.576,-22.571 h -44.445 m 138.977,141.093 -1.411,-14.815 -6.349,6.349 z m -112.871,-114.285 31.739,31.746 31.041,-31.041 -27.511,-26.808 H 16.226 Z M 76.9,-182.011 c -3.399,-2.122 -7.285,-3.336 -11.287,-3.527 H 33.161 l 23.986,23.28 z m 13.4,125.573 9.171,-9.17 -5.644,-49.384 -3.527,-3.527 -31.039,31.041 z M 6.349,23.28 c 0.092,4.419 2.165,8.563 5.644,11.287 2.116,2.117 5.644,2.822 9.171,2.822 h 27.513 l 2.822,-5.644 C 46.592,27.484 43.764,21.312 43.739,14.814 l -2.822,-105.82 h -29.63 z m 40.917,-106.526 4.233,-4.233 -2.822,-2.822 h -1.411 z m 44.445,67.02 c 1.411,0.705 7.055,2.822 14.109,5.644 l -2.822,-25.399 -13.4,-12.701 -31.746,31.746 10.582,10.582 c 4.938,-9.17 14.815,-12.7 23.28,-9.876 m -7.763,54.325 6.349,-10.582 17.637,4.938 c -1.411,-12.7 6.349,-23.986 16.226,-28.924 L 122.752,2.822 C 118.519,0.706 110.759,-2.116 102.293,-5.644 100.177,-1.411 95.944,7.057 86.773,9.876 80.987,12.119 74.493,11.6 69.136,8.465 l -13.4,29.63 z M 90.3,-10.583 c -5.644,-2.116 -13.4,0.705 -15.52,6.35 l -2.819,6.349 c 2.116,1.411 7.055,2.822 12.7,0.705 6.349,-2.116 9.877,-7.759 11.288,-11.287 -1.944,-0.526 -3.833,-1.234 -5.644,-2.116 m -3.532,-41.624 -31.041,-31.04 -7.76,7.76 1.411,48.677 6.349,5.642 z m -20.459,51.5 -11.993,-11.993 -4.938,4.938 V 0.705 H 65.609 Z M 50.088,6.35 v 9.876 c 0.033,3.725 1.558,7.283 4.233,9.877 L 63.492,6.35 h -13.4 z m 2.117,-133.334 v 32.451 l 2.822,2.822 32.452,-31.746 -31.041,-31.041 -27.514,27.514 z m 76.19,134.038 c -8.466,2.116 -16.931,13.4 -14.815,26.1 9.877,2.823 14.815,-2.822 17.637,-7.054 2.746,-6.371 1.654,-13.747 -2.822,-19.049 m -36.684,-134.035 0.705,-0.705 -4.233,-35.978 c -0.691,-5.52 -3.467,-10.568 -7.76,-14.108 l -20.462,20.455 z m -86.067,29.63 h 40.211 v -23.28 H 5.644 Z m -6.349,6.348 v -5.643 l -9.877,9.877 14.109,14.105 0.705,-17.637 H -0.705 Z M -43.034,38.8 h 30.336 L -35.273,16.226 c -1.411,1.407 -7.761,7.054 -7.761,7.054 v -7.759 l 3.527,-3.528 -3.527,-3.528 v -7.76 h 3.528 l 19.753,-19.048 -23.281,-23.986 v -7.76 l 27.513,27.513 18.342,-18.342 0.705,-24.69 -17.635,-17.638 -28.925,28.925 v -7.055 l 25.4,-26.1 -25.4,-25.4 v -7.76 l 29.63,28.924 12.7,-12.7 v -21.869 h 14.813 l -28.218,-28.217 -28.925,28.219 v -8.466 l 24.695,-24.691 -24.695,-24.691 v -7.055 H 64.903 c 15.52,0 27.513,10.582 28.924,26.1 l 11.288,91.715 v 1.411 l 7.055,64.2 c 4.233,2.116 9.171,3.527 11.993,4.939 8.466,4.232 18.342,16.225 11.287,31.745 -5.644,11.993 -21.164,11.287 -28.924,8.467 l -13.4,-3.528 -5.648,9.166 H 21.161 C 15.517,43.033 10.579,42.328 6.346,38.8 H -4.939 l 4.234,4.233 h -43.034 z"
                   style="fill:#e0e0e1;fill-opacity:1;fill-rule:nonzero;stroke:none"
                   id="path62"
                   inkscape:connector-curvature="0" />
              </g>
              <g
                 transform="translate(766.8428,615.4321)"
                 id="g68">
                <path
                   d="m 0,0 v 11.993 h 34.568 v -12.7 z M 28.924,17.637 H 7.056 V 29.63 H 28.924 Z M 71.249,-96.648 c -1.411,-6.349 -7.055,-11.993 -14.108,-11.993 H 0 c -8.466,0.705 -15.52,8.466 -16.931,16.931 -3.131,11.479 -4.088,23.442 -2.822,35.273 2.294,18.405 8.814,36.031 19.048,51.5 h 36.684 c 2.822,-0.705 22.575,-9.171 32.453,-26.808 9.877,-19.048 6.348,-46.561 2.821,-64.9 m 1.41,67.013 -0.705,-0.705 0.705,0.705 c -9.877,17.637 -26.808,26.1 -33.157,28.219 V 16.931 H 33.862 V 34.568 H 0.706 V 16.931 H -6.349 V -2.116 c -2.822,-4.233 -16.226,-22.575 -19.756,-53.616 -1.329,-12.298 -0.372,-24.734 2.821,-36.684 2.116,-11.287 11.288,-20.459 21.87,-21.164 h 57.143 c 9.877,0 18.342,7.055 19.753,16.226 4.938,19.048 8.465,47.266 -2.822,67.725"
                   style="fill:#e0e0e1;fill-opacity:1;fill-rule:nonzero;stroke:none"
                   id="path66"
                   inkscape:connector-curvature="0" />
              </g>
              <path
                 d="M 200.353,408.025 H 512.169 V 125.838 H 200.353 Z m -5.644,-287.83 h 322.4 v 293.474 h -322.4 z"
                 style="fill:#e0e0e1;fill-opacity:1;fill-rule:nonzero;stroke:none"
                 id="path70"
                 inkscape:connector-curvature="0" />
              <g
                 transform="translate(200.353,102.5566)"
                 id="g74">
                <path
                   d="m 0,0 v 0 l 311.817,0.705 v -26.1 c -0.023,-7.783 -6.326,-14.085 -14.109,-14.109 H 13.404 c -7.782,0.024 -14.086,6.326 -14.109,14.109 v 25.4 m -4.939,5.64 v -31.747 c -0.02,-10.89 8.793,-19.734 19.684,-19.753 h 0.069 283.6 c 10.891,-0.016 19.731,8.799 19.747,19.69 v 0.063 31.747 z"
                   style="fill:#e0e0e1;fill-opacity:1;fill-rule:nonzero;stroke:none"
                   id="path72"
                   inkscape:connector-curvature="0" />
              </g>
              <g
                 transform="translate(200.353,475.75)"
                 id="g78">
                <path
                   d="M 0,0 C 0.023,7.783 6.326,14.086 14.109,14.109 H 297.002 C 304.785,14.086 311.088,7.783 311.111,0 V -44.447 H 0 Z M 14.109,19.753 C 3.297,19.522 -5.414,10.813 -5.644,0 v -50.088 h 322.4 V 0 c -0.231,10.813 -8.942,19.523 -19.754,19.753 H 14.109"
                   style="fill:#e0e0e1;fill-opacity:1;fill-rule:nonzero;stroke:none"
                   id="path76"
                   inkscape:connector-curvature="0" />
              </g>
              <g
                 transform="translate(409.1709,460.936)"
                 id="g82">
                <path
                   d="m 0,0 c 0,3.117 2.527,5.644 5.644,5.644 3.117,0 5.644,-2.527 5.644,-5.644 0,-3.117 -2.527,-5.644 -5.644,-5.644 C 2.822,-6.349 0,-3.528 0,0 m 6.349,11.287 c -6.234,0 -11.286,-5.055 -11.286,-11.288 0,-6.234 5.055,-11.287 11.288,-11.286 6.233,0 11.286,5.054 11.286,11.287 0.08,6.153 -4.844,11.207 -10.997,11.287 -0.097,10e-4 -0.194,10e-4 -0.291,0"
                   style="fill:#e0e0e1;fill-opacity:1;fill-rule:nonzero;stroke:none"
                   id="path80"
                   inkscape:connector-curvature="0" />
              </g>
              <g
                 transform="translate(439.5059,460.9351)"
                 id="g86">
                <path
                   d="m 0,0 c -0.065,2.662 2.041,4.873 4.703,4.938 0.079,0.002 0.157,0.002 0.235,0 h 37.39 c 2.728,0 4.939,-2.211 4.939,-4.938 0,-2.728 -2.211,-4.939 -4.939,-4.939 H 4.938 C 2.116,-5.644 0,-2.823 0,-0.001 M 4.938,10.582 C -0.847,10.441 -5.502,5.785 -5.644,0 -5.502,-5.785 -0.847,-10.441 4.938,-10.582 h 37.39 C 48.113,-10.441 52.769,-5.785 52.91,0 52.769,5.785 48.113,10.441 42.328,10.582 H 4.938"
                   style="fill:#e0e0e1;fill-opacity:1;fill-rule:nonzero;stroke:none"
                   id="path84"
                   inkscape:connector-curvature="0" />
              </g>
              <g
                 transform="translate(238.4438,282.4521)"
                 id="g90">
                <path
                   d="m 0,0 c 7.76,58.554 57.848,102.293 116.4,102.293 64.9,0 117.813,-52.91 117.813,-117.814 0,-64.902 -52.91,-117.812 -117.813,-117.812 C 55.705,-133.418 4.943,-87.24 -0.7,-26.809 h 20.457 c 5.644,-49.382 47.266,-86.772 96.649,-86.772 53.767,0.173 97.214,43.9 97.041,97.668 -0.173,53.522 -43.518,96.868 -97.041,97.041 C 93.029,81.123 70.456,72.596 52.914,57.143 35.277,42.331 23.99,21.164 20.463,-1.411 H 0 Z m 195.418,-63.492 c -16.702,-27.224 -46.368,-43.794 -78.307,-43.739 -39.578,0.091 -74.726,25.319 -87.478,62.787 9.877,1.411 14.815,12.7 19.753,23.28 4.233,9.877 8.466,18.342 15.52,18.342 7.76,0 13.4,-14.815 19.048,-29.63 6.349,-16.931 13.4,-35.274 26.1,-35.274 16.931,0 21.869,27.514 26.1,53.616 3.527,21.164 7.055,43.034 16.226,43.034 9.877,0 13.4,-18.342 17.637,-38.1 4.233,-22.575 9.171,-47.972 25.4,-54.321 M 32.455,-26.103 v 26.101 h -6.349 c 3.527,21.164 14.815,40.212 31.041,54.321 16.931,14.109 38.1,22.575 59.965,22.575 50.794,0 92.416,-41.623 92.416,-92.416 0,-15.52 -3.527,-30.335 -11.287,-43.739 -14.109,5.644 -19.048,29.63 -23.28,50.794 -4.938,22.574 -8.466,42.328 -22.575,42.328 -13.4,0 -17.637,-23.28 -21.869,-47.266 -4.233,-23.281 -8.466,-49.383 -21.164,-49.383 -9.171,0 -14.815,16.225 -21.164,31.746 -6.349,16.931 -12.7,33.157 -23.986,33.157 -10.582,0 -15.52,-11.287 -20.459,-21.869 -4.233,-9.877 -8.466,-19.753 -16.226,-19.753 -1.277,4.389 -2.22,8.868 -2.822,13.4 h 7.76 z M -2.113,-4.938 h 29.63 v -15.52 H -7.051 v 15.52 z M -13.4,0 v -26.101 h 7.76 c 2.705,-30.435 16.516,-58.811 38.8,-79.717 22.575,-21.164 52.2,-32.452 83.245,-32.452 67.794,0.154 122.628,55.237 122.474,123.031 C 238.726,52.554 183.644,107.388 115.85,107.234 54.161,107.095 2.158,61.194 -5.64,0 Z"
                   style="fill:#e0e0e1;fill-opacity:1;fill-rule:nonzero;stroke:none"
                   id="path88"
                   inkscape:connector-curvature="0" />
              </g>
              <path
                 d="M 541.093,408.025 H 852.91 V 125.838 H 541.093 Z m -4.938,-287.83 H 858.554 V 413.669 H 536.155 Z"
                 style="fill:#e0e0e1;fill-opacity:1;fill-rule:nonzero;stroke:none"
                 id="path92"
                 inkscape:connector-curvature="0" />
              <g
                 transform="translate(541.0933,102.5566)"
                 id="g96">
                <path
                   d="m 0,0 v 0 l 311.817,0.705 v -26.1 c -0.024,-7.783 -6.326,-14.085 -14.109,-14.109 H 14.11 C 6.327,-39.48 0.024,-33.178 0.001,-25.395 v 25.4 m -4.939,5.64 v -31.747 c -0.02,-10.89 8.793,-19.734 19.684,-19.753 h 0.069 283.6 c 10.89,-0.017 19.731,8.798 19.747,19.688 v 0.065 31.747 z"
                   style="fill:#e0e0e1;fill-opacity:1;fill-rule:nonzero;stroke:none"
                   id="path94"
                   inkscape:connector-curvature="0" />
              </g>
              <g
                 transform="translate(541.0933,475.75)"
                 id="g100">
                <path
                   d="M 0,0 C 0.023,7.783 6.327,14.086 14.11,14.109 H 297.001 C 304.785,14.086 311.087,7.783 311.111,0 V -44.447 H 0 Z M 14.815,19.753 C 4.002,19.522 -4.708,10.813 -4.938,0 V -50.088 H 317.461 V 0 c -0.23,10.813 -8.941,19.523 -19.753,19.753 H 14.815"
                   style="fill:#e0e0e1;fill-opacity:1;fill-rule:nonzero;stroke:none"
                   id="path98"
                   inkscape:connector-curvature="0" />
              </g>
              <g
                 transform="translate(750.6172,460.936)"
                 id="g104">
                <path
                   d="m 0,0 c 0,3.117 2.526,5.644 5.644,5.644 3.117,0 5.644,-2.527 5.644,-5.644 0,-3.117 -2.527,-5.644 -5.644,-5.644 C 2.822,-6.349 0,-3.528 0,0 m 6.349,11.287 c -6.234,0 -11.286,-5.055 -11.286,-11.288 0,-6.234 5.054,-11.287 11.288,-11.286 6.233,0 11.286,5.054 11.286,11.287 0.08,6.153 -4.844,11.207 -10.997,11.287 -0.097,10e-4 -0.194,10e-4 -0.291,0"
                   style="fill:#e0e0e1;fill-opacity:1;fill-rule:nonzero;stroke:none"
                   id="path102"
                   inkscape:connector-curvature="0" />
              </g>
              <g
                 transform="translate(780.2461,460.9351)"
                 id="g108">
                <path
                   d="m 0,0 c -0.064,2.662 2.041,4.873 4.703,4.938 0.078,0.002 0.156,0.002 0.234,0 h 37.391 c 2.728,0 4.939,-2.211 4.939,-4.938 0,-2.728 -2.211,-4.939 -4.939,-4.939 H 4.937 C 2.822,-5.644 0,-2.823 0,-0.001 M 5.644,10.582 C -0.141,10.441 -4.797,5.785 -4.938,0 -4.797,-5.785 -0.141,-10.441 5.644,-10.582 h 37.39 C 48.818,-10.441 53.475,-5.785 53.616,0 53.475,5.785 48.818,10.441 43.034,10.582 H 5.644"
                   style="fill:#e0e0e1;fill-opacity:1;fill-rule:nonzero;stroke:none"
                   id="path106"
                   inkscape:connector-curvature="0" />
              </g>
              <g
                 transform="translate(579.8901,282.4521)"
                 id="g112">
                <path
                   d="m 0,0 c 7.76,58.554 57.848,102.293 116.4,102.293 64.9,0 117.812,-52.91 117.812,-117.814 0,-64.902 -52.909,-117.812 -117.812,-117.812 C 55.705,-133.418 4.943,-87.24 -0.7,-26.809 h 20.459 c 5.644,-49.382 47.266,-86.772 96.649,-86.772 53.767,0.173 97.214,43.9 97.041,97.668 C 213.276,37.609 169.93,80.955 116.408,81.128 93.031,81.123 70.458,72.595 52.916,57.142 35.279,42.327 23.992,21.163 20.465,-1.412 H 0 Z m 195.418,-63.492 c -16.702,-27.224 -46.368,-43.794 -78.306,-43.739 -39.578,0.091 -74.726,25.319 -87.478,62.787 9.877,1.411 14.815,12.7 19.753,23.28 4.233,9.877 8.466,18.342 15.52,18.342 7.76,0 13.4,-14.815 19.048,-29.63 6.349,-16.931 13.4,-35.274 26.1,-35.274 16.931,0 21.869,27.514 26.1,53.616 3.527,21.164 7.054,43.034 16.226,43.034 9.877,0 13.4,-18.342 17.637,-38.1 3.526,-22.575 9.171,-47.972 25.399,-54.321 M 32.456,-26.103 v 26.101 h -6.349 c 3.527,21.164 14.815,40.212 31.041,54.321 16.931,14.109 38.1,22.575 59.965,22.575 50.794,0 92.416,-41.623 92.416,-92.416 0,-15.52 -3.528,-30.335 -11.287,-43.739 -14.109,5.644 -19.048,29.63 -23.281,50.794 -4.937,22.574 -8.465,42.328 -22.574,42.328 -13.4,0 -17.637,-23.28 -21.869,-47.266 -4.233,-23.281 -8.466,-49.383 -21.164,-49.383 -9.171,0 -14.815,16.225 -21.164,31.746 -6.349,16.931 -12.7,33.157 -23.986,33.157 -10.582,0 -15.52,-11.287 -20.459,-21.869 -4.233,-9.877 -8.466,-19.753 -16.226,-19.753 -1.277,4.389 -2.22,8.868 -2.822,13.4 h 7.76 z M -2.112,-4.938 h 29.63 v -15.52 H -7.756 v 15.52 z M -13.4,0 v -26.101 h 7.76 c 2.705,-30.435 16.516,-58.811 38.8,-79.717 22.575,-21.164 52.2,-32.452 83.245,-32.452 67.794,0.154 122.628,55.237 122.473,123.031 C 238.725,52.554 183.643,107.388 115.849,107.234 54.161,107.095 2.158,61.194 -5.64,0 Z"
                   style="fill:#e0e0e1;fill-opacity:1;fill-rule:nonzero;stroke:none"
                   id="path110"
                   inkscape:connector-curvature="0" />
              </g>
              <g
                 transform="translate(813.4043,526.5439)"
                 id="g116">
                <path
                   d="m 0,0 c -0.705,-4.233 -4.233,-7.76 -8.466,-7.76 -9.878,-0.705 -22.575,-1.411 -31.041,-0.705 -5.644,0 -10.582,4.938 -11.287,10.582 0,1.411 -2.822,14.109 -0.705,29.63 1.411,12.7 7.055,25.4 9.171,29.63 h 16.931 c 0.705,-9.171 2.822,-28.924 9.876,-38.1 C -9.171,14.811 -2.12,13.4 2.116,12.695 Z m -11.993,27.513 c -8.466,10.582 -8.466,38.8 -8.466,38.8 H -46.56 c 0,0 -9.17,-18.342 -11.287,-33.862 -1.266,-9.855 -1.029,-19.846 0.705,-29.63 1.44,-8.432 8.407,-14.819 16.932,-15.52 h 7.76 c 7.76,0 16.93,0.705 22.575,0.705 7.015,0.599 12.777,5.786 14.108,12.7 L 6.35,19.048 c 0.704,-0.707 -9.874,-2.118 -18.343,8.465"
                   style="fill:#e0e0e1;fill-opacity:1;fill-rule:nonzero;stroke:none"
                   id="path114"
                   inkscape:connector-curvature="0" />
              </g>
            </g>
          </g>
        </g>
      </g>
    </g>
  </g>
</svg>
