<svg xmlns="http://www.w3.org/2000/svg" viewBox="0 0 574.11 82.44"><defs><style>.cls-1{fill:#fff}</style></defs><g id="Layer_2" data-name="Layer 2"><g id="Layer_1_copy" data-name="Layer 1 copy"><path class="cls-1" d="M101.34 0H6.19A6.21 6.21 0 0 0 .05 7L2.4 26a6.21 6.21 0 0 0 6.14 5.46H9l1.37-11.78H9.09a1.48 1.48 0 0 1-1.47-1.34l-.48-4.88a1.47 1.47 0 0 1 1.46-1.68h90.32a1.48 1.48 0 0 1 1.47 1.63l-.48 4.88a1.48 1.48 0 0 1-1.47 1.34h-1.33l1.38 11.78H99a6.21 6.21 0 0 0 6.13-5.41l2.35-19a6.21 6.21 0 0 0-6.14-7z"/><path class="cls-1" d="M7 81.25a1.18 1.18 0 0 0 1.18 1.19h25.35l.7-66.74H14.77zM38.21 15.7l.7 66.74h60.46a1.18 1.18 0 0 0 1.18-1.18l-7.8-65.56zM204.75 28.47l.75-2.78h-8.51l-.74 2.76 8.5.02zM185.11 28.41l.73-2.72h-8.51l-.73 2.7 8.51.02zM195.87 29.85l-3.39 12.55a14.94 14.94 0 0 1-1.09 3 7.36 7.36 0 0 1-1.47 2 5.53 5.53 0 0 1-4.08 1.6 4.87 4.87 0 0 1-3.52-1.17 4.32 4.32 0 0 1-1.21-3.26 8.37 8.37 0 0 1 .11-1.43 11.6 11.6 0 0 1 .32-1.43l3.17-11.86h-8.52l-3 11.23a18.9 18.9 0 0 0-.53 2.5 17.84 17.84 0 0 0-.17 2.36 9.84 9.84 0 0 0 3.19 7.83q3.19 2.81 9.09 2.8a20.17 20.17 0 0 0 6.34-.93 12.15 12.15 0 0 0 4.86-3 20 20 0 0 0 4.73-9.07l3.71-13.83zM217.92 28.51l-1.32-2.82h-7.85l-.75 2.79 9.92.03zM236.62 28.57l.77-2.88h-8.37l-.77 2.86 8.37.02zM227.92 29.75l-3.46 12.82-5.95-12.79-10.87.04-7.05 26.25h8.38l4.68-17.49 8.21 17.49h7.37l7.08-26.34-8.39.02zM261 28.65a13.89 13.89 0 0 0-3.49-1.87 20.67 20.67 0 0 0-7.29-1.09h-9.81l-.78 2.89zM239.35 29.72l-7.08 26.35h12.24a27.18 27.18 0 0 0 9.24-1.43 18.17 18.17 0 0 0 6.69-4.17 17.12 17.12 0 0 0 3.73-5.47 16.73 16.73 0 0 0 1.26-6.47 12 12 0 0 0-3.26-8.84zm16.75 12.94a9 9 0 0 1-1.91 2.86 9.77 9.77 0 0 1-3.78 2.3 14.9 14.9 0 0 1-4.9.78h-2.78l4.17-15.45h2.43a11.29 11.29 0 0 1 3.64.5 6 6 0 0 1 2.3 1.37 5 5 0 0 1 1.13 1.76 6.73 6.73 0 0 1 .39 2.41 8.92 8.92 0 0 1-.69 3.47zM166.84 28.36l-.44-2.89h-8.25l-1.97 2.85 10.66.04zM155 30l-12.89 18.69h-10l5-18.66h-8.47l-7 26h24.56l3.65-5.43h11.72l.73 5.43h8.86l-4-26.13zm-1 14.11 5.69-8.72 1.08 8.72zM137.54 28.27l.69-2.58h-8.46l-.68 2.55 8.45.03zM293.09 28.74a10 10 0 0 0-3.95-2.22 21.06 21.06 0 0 0-6.38-.83h-11.45l-.81 3zM293.82 29.55l-23.57.07-7.1 26.45h8.46l2.47-9.2h3.74l4 9.2h9.29l-4.69-10.24a12.48 12.48 0 0 0 6.89-4.1 10.58 10.58 0 0 0 2.2-6.67 10.19 10.19 0 0 0-.56-3.4 7.36 7.36 0 0 0-1.13-2.11zm-8.61 9.59a8.08 8.08 0 0 1-4.55 1.13h-4.82l2-7.33h4.55c1.8 0 3 .35 3.74 1.05a3 3 0 0 1 .78 2 3.55 3.55 0 0 1-1.7 3.15zM324.35 28.84l2.74-3.15h-10.07l-2.51 3.12 9.84.03zM305.69 28.78l-.82-3.09h-9.07l1.01 3.06 8.88.03zM313.96 29.49l-6.09 7.57-1.99-7.54-8.81.02 4.85 14.77-3.17 11.76h8.47l2.9-10.85 13.7-15.76-9.86.03zM406.87 29.2l-23.18.08-6.71 25-3.86-25h-11.51l-14.16 20.5-4.39-3.78a12.52 12.52 0 0 1-3 2.27 7.4 7.4 0 0 1-3.52.81 6 6 0 0 1-4.36-1.67 6.12 6.12 0 0 1-1.71-4.58 10.14 10.14 0 0 1 .71-3.8 11.05 11.05 0 0 1 1.93-3.19 9.39 9.39 0 0 1 2.89-2.25 7.83 7.83 0 0 1 3.56-.83 6.51 6.51 0 0 1 3.73 1 7.31 7.31 0 0 1 2.38 2.89l7.33-3.89a12 12 0 0 0-2-3.38l-22.63.07a17.25 17.25 0 0 0-1.53 1.43 18.31 18.31 0 0 0-3.84 5.86 17.65 17.65 0 0 0-1.32 6.66 13.68 13.68 0 0 0 1.06 5.49 12.07 12.07 0 0 0 3 4.18 13.17 13.17 0 0 0 4.54 2.67 17 17 0 0 0 5.79.94 16 16 0 0 0 7.42-1.59c.21-.11.41-.23.61-.35l-.91 1.33h9.15l3.66-5.43h11.72l.73 5.43H385l2.47-9.2h3.74l4 9.2h9.29l-4.7-10.24a12.48 12.48 0 0 0 6.89-4.1 10.58 10.58 0 0 0 2.2-6.67 10.19 10.19 0 0 0-.56-3.4 7.5 7.5 0 0 0-1.46-2.46zM360.2 44.09l5.69-8.72 1.11 8.72zm38.36-5a8.08 8.08 0 0 1-4.56 1.18h-4.82l2-7.33h4.55c1.8 0 3 .35 3.73 1.05a2.93 2.93 0 0 1 .79 2 3.55 3.55 0 0 1-1.69 3.15zM373.07 28.99l-.54-3.52h-8.25l-2.4 3.49 11.19.03zM406.77 29.09c-.07-.07-.13-.16-.21-.23a9.93 9.93 0 0 0-4.07-2.34 21.06 21.06 0 0 0-6.38-.83h-11.45l-.9 3.33zM350.53 28.92a11.48 11.48 0 0 0-2.09-1.75 13.78 13.78 0 0 0-7.81-2.09 18.81 18.81 0 0 0-7.9 1.61 20.45 20.45 0 0 0-3.68 2.16zM435.8 29.6a12.75 12.75 0 0 0-4.6-2.82 20.67 20.67 0 0 0-7.29-1.09h-9.81l-.92 3.42h11.6-11.62L405.94 56h12.24a27.18 27.18 0 0 0 9.24-1.43 18.05 18.05 0 0 0 6.68-4.17 17 17 0 0 0 3.74-5.4 16.73 16.73 0 0 0 1.26-6.47 12 12 0 0 0-3.3-8.93zm-6 13.06a9 9 0 0 1-1.91 2.86 9.77 9.77 0 0 1-3.78 2.3 14.9 14.9 0 0 1-4.9.78h-2.81l4.17-15.45H423a11.29 11.29 0 0 1 3.64.5 6 6 0 0 1 2.3 1.37 5 5 0 0 1 1.13 1.76 6.73 6.73 0 0 1 .39 2.41 8.92 8.92 0 0 1-.69 3.47zM463.37 25.42h7.17l-5 25H481l-1.19 5.81h-22.6zM489.94 25.42h7.18L491 56.22h-7.17zM533.82 25.42l-19.5 30.8h-7l-7.17-30.8h7.35l5 21.95 13.95-21.95zM542.3 31.14l-1.3 6.68h14.3l-1.1 5.55h-14.36l-1.41 7.13h16.81l-1.19 5.72H530.2l6.16-30.8h23.28l-1.19 5.72z"/><rect x="445.82" y="16.28" width="123.92" height="49.2" rx="8.4" style="fill:none;stroke:#fff;stroke-miterlimit:10;stroke-width:2px"/></g></g></svg>