<svg width="200" height="52" viewBox="0 0 200 52" fill="none" xmlns="http://www.w3.org/2000/svg"><g clip-path="url(#a)"><path d="M44.81 20.92c.006-.867-.134-1.821-.309-2.593-.211-.94-.127-1.884-.309-2.778a3.7 3.7 0 0 0 1.05-.124c.388-.668.541-2.357.37-3.147l-.37-.31H5.755c-.87 0-2.228-.23-2.468.431-.243.339.119 2.416.245 2.9.111.058.257.208.37.245.318.106.637-.127.804.124-.246.405-.069 1.084-.185 1.605a18.5 18.5 0 0 0-.43 3.639c-4.166-.011-3-5.291-3.764-8.7-.45-1.993-.642-4.089.8-5.114.833-.59 2.26-.494 3.703-.494h41.832c1.002.304 1.816.954 2.16 1.913.282.793.05 1.95-.125 2.714-.341 1.496-.23 3.074-.555 4.504-.344 1.509-.111 3.1-.864 4.133-.468.642-1.35 1.057-2.469 1.049zm109.206-2.839c2.408-.053 4.649.272 5.553 1.665h-9.625v-.06h.061c.457-.564 1.871-1.105 2.653-1.359.402-.13 1.018-.026 1.358-.246m15.857 1.726h-5.058v-.06l.864-1.235.185-.31h3.763v.062h.061zm4.937 0 .43-1.48h6.108c.338.198.962.08 1.358.185.933.251 2.059.634 2.529 1.358-3.527 0-6.92-.06-10.425-.06z" fill="#667085"/><path fill-rule="evenodd" clip-rule="evenodd" d="M199.857 23.015c-.362-1.31-.536-2.14-1.358-2.962-1.969-1.97-5.933-1.77-9.934-1.729l-.37 1.544h1.85s-1.427.071-1.913.06c0 0-2.206 8.133-3.209 12.218 0 0 7.434.124 9.194-.43 2.202-.712 3.835-2.017 4.937-3.825.378-.621.608-1.459.803-2.22.183-.716.191-1.96 0-2.653zm-4.503 3.827c.249-.375.484-.91.616-1.358l.003.002c.124-.42.111-1.258 0-1.665-.534-1.94-1.948-2.13-4.443-2.098l-1.913 7.032h2.159l1.358-.309c.854-.317 1.75-.896 2.22-1.604m-9.191-5.182c-.172-.69-.524-1.177-.804-1.729H174.81s-.466 1.808-.68 2.468c-.645 1.988-1.728 6.171-1.728 6.171l-.616 2.53-.124.184-.494-3.023-.74-4.812-.494-3.454h-5.244l-.43.679s-.812 1.186-1.234 1.789c-1.05 1.496-2.16 3.007-3.209 4.503-.52.743-.914 1.644-1.543 2.284-.153.124-.367-.26-.494-.37-.465-.413-1.137-.775-1.48-1.296-.672.252-1.113.963-1.85 1.235-2.215.814-4.472-.989-3.948-3.333.383-1.718 1.25-3.081 2.714-3.702 1.733-.735 3.821.135 4.196 1.543a32 32 0 0 0 1.974-1.11c.429-.259.939-.354 1.295-.68.14-.2-.716-1.318-.864-1.542H156.3c-.381 0-1.1-.1-1.359.06h-5.491c-.447.19-.827.851-1.11 1.235-.251.335-.576.679-.804 1.049-.869 1.427-1.495 4.379-.679 6.356.711 1.715 2.056 2.859 3.888 3.454.423.137.758.076 1.234.184.544.125 1.615.122 2.159 0 .875-.192 1.794-.171 2.344-.679h.061c-.037.23-.098.323-.246.431v.06h4.197c.158-.102.259-.512.37-.678.394-.59.877-1.163 1.234-1.79h5.367l.31 2.469h5.428l2.098-.06.309-1.174.804-2.963h1.728q.925 2.096 1.85 4.197h4.197c-.275-.975-.904-1.887-1.295-2.778-.257-.581-.865-1.913-.865-1.913s.696-.124.989-.246a7.6 7.6 0 0 0 1.543-.864c.938-.698 2.072-2.82 1.604-4.688zm-19.065 5.058v-.061l.003-.003h.06l-.494-3.824h-.124c-.148.307-.386.537-.555.804-.436.687-.785 1.358-1.234 2.035-.225.335-.539.626-.679 1.049zm10.18-1.726c1.911.05 3.657.074 4.566-.864.265-.27.722-1.14.31-1.665-.362-1.131-2.516-.883-4.012-.864-.135 1.173-.748 2.183-.864 3.393" fill="#667085"/><path d="M6.68 13.76h8.886l-.37 30.418H3.473c-.103-.135-.175-.124-.246-.309-.13-.203.04-1.805.124-2.16.423-1.823.32-3.913.74-5.737L6.684 13.76zm10.675 0h24.866c0 .822.14 1.736.309 2.469.275 1.2.172 2.5.43 3.639q.033.524.061 1.049c.301 1.303.26 2.835.555 4.133l.185 2.098c.457 1.985.35 4.247.804 6.232l.185 2.098c.296 1.3.256 2.833.555 4.133q.032.525.06 1.05c.196.861.473 2.444.31 3.332-.587.283-1.723.185-2.593.185H17.725zm54.665 4.443h3.703v.06h.06l.185 1.235h-4.812v-.125l.864-1.173zm-12.957.124h3.824L62.64 19.5l-3.824-.06.246-1.11zm21.657 0h3.887v.124l-.309 1.11-3.887-.06v-.062l.309-1.11zm8.946 0h3.887v.124l-.31 1.11h-3.887v-.06zm5.367 0h3.64c.065.478.366.777.493 1.234h-4.442v-.124zm13.018 0c-.026.489-.206.859-.309 1.295h-3.824v-.06l.37-1.235zm1.419 0h3.454c.637 0 1.441-.056 1.975.06q.555.033 1.109.061c.553.138 1.161.273 1.665.495.378.163.703.48 1.11.615v.061h-9.625q.156-.647.31-1.295zm14.068 0c3.152-.045 8.496-.426 9.809 1.295h.061v.06h-10.18c.03-.512.236-.882.31-1.358zm11.599 1.358-.431-1.358h4.133v.124l.37 1.234zm9.194-1.358h4.566v.124l-1.173 1.295h-4.503v-.06h.061c.303-.487.777-.841 1.049-1.36m-9.009 1.729h3.948v.061h.061c.031.56.28 1.134.43 1.604.196.603.217 1.179.431 1.729h.061v-.061c.388-.28.637-.785.925-1.174.304-.41.745-.763 1.049-1.173.19-.256.74-.988.74-.988h4.443v.06c-.548.397-1.013 1.126-1.42 1.665-.861 1.145-2.838 3.27-2.838 3.27l-1.665 1.85s-.235.208-.309.37l-.185.924c-.275.851-.529 1.86-.803 2.714-.13.405-.088.864-.31 1.174-.214.135-.785.06-1.11.06h-2.714v-.124l.495-1.85.924-3.332s-.433-1.292-.555-1.665c-.346-1.05-.549-2-.924-3.023-.238-.643-.571-1.356-.68-2.099zm-27.762.122c-.053.996-.574 2.31-.865 3.208-.528 1.63-.703 3.24-1.234 4.873-.367 1.134-.927 2.643-1.049 3.888h-3.393l-3.703-7.897c-.05.064-.02.016-.06.125-.41.613-.376 1.598-.616 2.344a64 64 0 0 0-1.48 5.428h-3.824v-.061l.309-1.173 1.79-6.663 1.11-4.011s3.305-.061 4.936-.061l2.653 5.676h.124v-.124c.254-.351.222-.898.37-1.358.278-.856.526-1.858.804-2.714.148-.46.108-1.063.37-1.42.214-.134.785-.06 1.11-.06h2.653zm-27.334.063h3.887v.061c-.346.46-.425 1.652-.615 2.283-.563 1.858-2.213 5.685.494 6.356.85.212 1.807-.132 2.22-.43 1.014-.733 1.173-1.983 1.604-3.333.504-1.578.999-3.274 1.358-4.937h3.888v.061c-.41.61-.54 2.212-.804 3.023-1.089 3.37-1.525 7.115-4.627 8.452-.775.335-1.66.417-2.593.616-.967.208-2.286-.043-2.962-.246-1.3-.394-2.265-.88-2.9-1.913-.51-.828-.898-2.606-.554-4.012l1.604-5.986zm53.616-.124h-10.799c-.092.928-.473 1.89-.74 2.714-.547 1.689-.829 3.433-1.358 5.058-.378 1.166-.568 2.352-.925 3.454-.09.275-.047.534-.185.74v.061h2.714c.325 0 .896.074 1.11-.06.262-.326.235-.912.37-1.359.254-.832.65-1.792.74-2.714h.061v-.06h1.665q.925 2.095 1.85 4.196h4.196c-.261-.944-.858-1.8-1.234-2.654-.269-.613-.436-1.44-.864-1.913.087-.143 1.906-.827 2.22-1.049 1.824-1.28 2.526-4.136 1.173-6.417zm-8.206 4.873c.116-1.205.737-2.201.864-3.393 1.105 0 2.566-.164 3.393.185.22.093.365.306.555.43.78 2.852-1.968 2.842-4.812 2.778m-4.937-2.529c-.275-.999-.808-1.607-1.295-2.344-3.475.021-10.428.06-10.428.06l-.803 2.9-2.223 8.266-.185.74v.061s6.472.325 8.761-.309c2.529-.7 4.321-2.008 5.428-4.133.653-1.25 1.258-3.37.74-5.244zm-3.887 3.148c-.111.343-.293.803-.494 1.11-.513.785-1.398 1.377-2.344 1.728-.389.143-1.002.09-1.359.31h-2.098l1.913-7.033c2.4-.032 3.777.15 4.382 1.913.174.51.172 1.435 0 1.974zm-39.67 1.85q-.31-2.221-.616-4.443c-.2-.83-.436-1.842-.43-2.777-.37-.008-1.36 0-1.36 0h-4.133s-.367.623-.494.803c-.367.523-.729 1.062-1.11 1.604a3174 3174 0 0 0-4.318 6.171h-4.566c.444-1.953 1.543-5.862 1.543-5.862l.74-2.529v-.124h-3.824s-.452 1.895-.68 2.593c-.644 1.987-1.728 6.17-1.728 6.17l-.803 3.024v.06h11.229l.37-.679 1.234-1.789h5.367l.31 2.468h4.011c-.076-1.443-.415-3.348-.74-4.688zm-3.949-.804v.061H70.17c.138-.404.46-.721.68-1.05.607-.914 1.313-1.854 1.788-2.837.315.195.151.81.246 1.234.183.79.13 1.8.37 2.592z" fill="#D64043"/></g><defs><clipPath id="a"><path fill="#fff" d="M0 0h200v52H0z"/></clipPath></defs></svg>