<svg width="200" height="52" viewBox="0 0 200 52" fill="none" xmlns="http://www.w3.org/2000/svg">
<g clip-path="url(#clip0_581_18326)">
<path d="M44.8104 20.9195C44.8157 20.0527 44.6756 19.0987 44.5012 18.327C44.2898 17.3862 44.3744 16.4427 44.192 15.5495C44.6281 15.5574 44.9505 15.5019 45.2412 15.4253C45.6297 14.7567 45.783 13.068 45.6112 12.2778L45.2412 11.9686H5.75599C4.88653 11.9686 3.52816 11.7387 3.28767 12.3993C3.04454 12.7376 3.4066 14.8148 3.53345 15.2984C3.64444 15.3566 3.78979 15.5072 3.90343 15.5442C4.22056 15.6499 4.54033 15.4174 4.70683 15.6684C4.46105 16.0728 4.63811 16.7519 4.52183 17.2726C4.27342 18.3772 4.10692 19.7092 4.09107 20.9116C-0.073894 20.901 1.09156 15.6208 0.327803 12.2117C-0.121463 10.2191 -0.314383 8.12339 1.12855 7.098C1.96102 6.50867 3.3881 6.60381 4.83103 6.60381H46.663C47.6646 6.90773 48.4785 7.55784 48.8221 8.51716C49.1049 9.30998 48.8723 10.4675 48.6979 11.2313C48.357 12.727 48.468 14.3048 48.1429 15.7345C47.7994 17.2435 48.0319 18.8344 47.2787 19.8677C46.811 20.5099 45.9283 20.9248 44.8104 20.9169V20.9195Z" fill="#D64043"/>
<path d="M154.016 18.0812C156.424 18.0284 158.665 18.3534 159.569 19.7462H149.944V19.6854H150.005C150.462 19.1225 151.876 18.5807 152.658 18.327C153.06 18.1975 153.676 18.3006 154.016 18.0812Z" fill="#D64043"/>
<path d="M169.873 19.8069H164.815V19.7462L165.679 18.512L165.864 18.2028H169.627V18.2636H169.688C169.749 18.7789 169.812 19.2916 169.873 19.8069Z" fill="#D64043"/>
<path d="M174.81 19.8069L175.24 18.327H181.348C181.686 18.5252 182.31 18.4063 182.706 18.512C183.639 18.7631 184.765 19.1463 185.235 19.8704C181.708 19.8704 178.315 19.8096 174.81 19.8096V19.8069Z" fill="#D64043"/>
<path fill-rule="evenodd" clip-rule="evenodd" d="M199.857 23.0152C199.495 21.7044 199.321 20.8746 198.499 20.0527C196.53 18.0839 192.566 18.2821 188.565 18.3244C188.441 18.8397 188.319 19.3524 188.195 19.8677H190.045C190.045 19.8677 188.618 19.9391 188.132 19.9285C188.132 19.9285 185.926 28.0606 184.923 32.1459C184.923 32.1459 192.357 32.2701 194.117 31.7151C196.319 31.0042 197.952 29.6987 199.054 27.8911C199.432 27.27 199.662 26.4323 199.857 25.6712C200.04 24.955 200.048 23.7103 199.857 23.0179V23.0152ZM195.354 26.8419C195.603 26.4667 195.838 25.9328 195.97 25.4836L195.973 25.4862C196.097 25.066 196.084 24.2283 195.973 23.8213C195.439 21.8815 194.025 21.6912 191.53 21.7229C190.893 24.067 190.254 26.4112 189.617 28.7553H191.776C192.23 28.6522 192.682 28.5491 193.134 28.4461C193.988 28.1289 194.884 27.5502 195.354 26.8419Z" fill="#D64043"/>
<path fill-rule="evenodd" clip-rule="evenodd" d="M186.163 21.6595C185.991 20.9698 185.639 20.4835 185.359 19.9312H174.81C174.81 19.9312 174.344 21.7388 174.13 22.3995C173.485 24.3868 172.402 28.5703 172.402 28.5703L171.786 31.0994L171.662 31.2844L171.168 28.2611L170.428 23.4486L169.934 19.9946H164.69L164.26 20.6738C164.26 20.6738 163.448 21.8604 163.026 22.4629C161.976 23.9587 160.866 25.4703 159.817 26.9661C159.297 27.7087 158.903 28.6099 158.274 29.2495C158.121 29.3737 157.907 28.9905 157.78 28.8795C157.315 28.4672 156.643 28.1052 156.3 27.5845C155.628 27.8356 155.187 28.5465 154.45 28.8187C152.235 29.6327 149.978 27.8303 150.502 25.4862C150.885 23.7684 151.752 22.4048 153.216 21.7837C154.949 21.049 157.037 21.9185 157.412 23.3271C158.076 22.9888 158.76 22.595 159.386 22.2171C159.815 21.9581 160.325 21.863 160.681 21.5379C160.821 21.3371 159.965 20.2192 159.817 19.9946H156.3C155.919 19.9946 155.2 19.8942 154.941 20.0554H149.45C149.003 20.2456 148.623 20.9063 148.34 21.2895C148.089 21.6252 147.764 21.9687 147.536 22.3387C146.667 23.7658 146.041 26.7177 146.857 28.6945C147.568 30.4096 148.913 31.5539 150.745 32.1486C151.168 32.286 151.503 32.2252 151.979 32.3335C152.523 32.4578 153.594 32.4551 154.138 32.3335C155.013 32.1406 155.932 32.1618 156.482 31.6544H156.543C156.506 31.8843 156.445 31.9768 156.297 32.0851V32.1459H160.494C160.652 32.0428 160.753 31.6332 160.864 31.4667C161.258 30.8774 161.741 30.3039 162.098 29.6776H167.465C167.568 30.4995 167.671 31.324 167.775 32.1459H173.203L175.301 32.0851L175.61 30.9117L176.414 27.9492H178.142C178.758 29.3472 179.376 30.7453 179.992 32.1459H184.189C183.914 31.1707 183.285 30.259 182.894 29.3684C182.637 28.787 182.029 27.455 182.029 27.455C182.029 27.455 182.725 27.3308 183.018 27.2093C183.549 26.9873 184.115 26.6781 184.561 26.3451C185.499 25.6474 186.633 23.5253 186.165 21.6569L186.163 21.6595ZM167.098 26.7177V26.6569L167.101 26.6543H167.161C166.998 25.3805 166.831 24.104 166.667 22.8302H166.543C166.395 23.1368 166.157 23.3667 165.988 23.6336C165.552 24.3208 165.203 24.992 164.754 25.6686C164.529 26.0042 164.215 26.2949 164.075 26.7177H167.098ZM177.278 24.992C179.189 25.0422 180.935 25.066 181.844 24.1278C182.109 23.8583 182.566 22.9888 182.154 22.4629C181.792 21.3318 179.638 21.5802 178.142 21.5987C178.007 22.7721 177.394 23.7816 177.278 24.992Z" fill="#D64043"/>
<path d="M6.68093 13.7603H15.5658C15.4416 23.8978 15.32 34.0406 15.1958 44.1782H3.47264C3.36957 44.0434 3.29822 44.054 3.22687 43.869C3.09737 43.6655 3.26651 42.064 3.35107 41.7099C3.77391 39.8864 3.67085 37.796 4.09104 35.9725C4.95522 28.5702 5.8194 21.1652 6.68357 13.7603H6.68093Z" fill="white"/>
<path d="M17.355 13.7603H42.2205C42.2205 14.5821 42.3606 15.4965 42.5297 16.2286C42.8046 17.4284 42.7015 18.7286 42.9605 19.8676C42.9816 20.2165 43.0028 20.568 43.0213 20.9168C43.3225 22.2197 43.2802 23.7525 43.5762 25.05C43.637 25.7504 43.7004 26.4481 43.7612 27.1484C44.2184 29.1331 44.1101 31.3953 44.5646 33.38C44.6254 34.0803 44.6888 34.778 44.7496 35.4783C45.0456 36.7785 45.006 38.3113 45.3046 39.6115C45.3257 39.9604 45.3469 40.3119 45.3654 40.6607C45.5609 41.5223 45.8384 43.1053 45.6746 43.9932C45.0879 44.276 43.9515 44.1782 43.082 44.1782H17.7249C17.6007 34.0406 17.4792 23.8978 17.355 13.7603Z" fill="white"/>
<path d="M72.0201 18.2027H75.7225V18.2635H75.7833L75.9683 19.4976H71.1559V19.3734L72.0201 18.2001V18.2027Z" fill="white"/>
<path d="M59.0627 18.3269H62.8867C62.8048 18.718 62.7229 19.1092 62.641 19.5003C61.3672 19.4791 60.0907 19.458 58.8169 19.4395C58.8988 19.0695 58.9808 18.6995 59.0627 18.3296V18.3269Z" fill="white"/>
<path d="M80.72 18.3269H84.6074V18.4511L84.2982 19.5611L80.4108 19.5003V19.4395L80.72 18.3296V18.3269Z" fill="white"/>
<path d="M89.6656 18.3269H93.5531V18.4511L93.2439 19.5611H89.3564V19.5003L89.6656 18.3269Z" fill="white"/>
<path d="M95.033 18.3269H98.6721C98.7382 18.8052 99.0394 19.1039 99.1663 19.5611H94.7238V19.4369L95.033 18.3269Z" fill="white"/>
<path d="M108.051 18.3269C108.025 18.8158 107.845 19.1858 107.742 19.6219H103.918V19.5611L104.288 18.3269H108.051Z" fill="white"/>
<path d="M109.47 18.3269H112.924C113.561 18.3269 114.365 18.2714 114.899 18.3877C115.269 18.4088 115.638 18.43 116.008 18.4485C116.561 18.5859 117.169 18.7207 117.673 18.9427C118.051 19.1065 118.376 19.4236 118.783 19.5584V19.6192H109.158C109.262 19.1884 109.365 18.755 109.468 18.3243L109.47 18.3269Z" fill="white"/>
<path d="M123.538 18.3269C126.69 18.282 132.034 17.9014 133.347 19.6219H133.408V19.6826H123.228C123.258 19.1699 123.464 18.8 123.538 18.3243V18.3269Z" fill="white"/>
<path d="M135.137 19.6853L134.706 18.3269H138.839V18.4511L139.209 19.6853H135.137Z" fill="white"/>
<path d="M144.331 18.3269H148.897V18.4511L147.724 19.7461H143.221V19.6853H143.282C143.585 19.199 144.059 18.8449 144.331 18.3269Z" fill="white"/>
<path d="M135.322 20.0553H139.27V20.116H139.331C139.362 20.6763 139.611 21.2498 139.761 21.7202C139.957 22.3227 139.978 22.8989 140.192 23.4485H140.253V23.3878C140.641 23.1076 140.89 22.6029 141.178 22.2144C141.482 21.8048 141.923 21.4506 142.227 21.041C142.417 20.7847 142.967 20.0526 142.967 20.0526H147.41V20.1134C146.862 20.5098 146.397 21.2392 145.99 21.7783C145.129 22.9226 143.152 25.0474 143.152 25.0474L141.487 26.8973C141.487 26.8973 141.252 27.1061 141.178 27.2673C141.117 27.5765 141.054 27.8831 140.993 28.1923C140.718 29.0432 140.464 30.0528 140.19 30.9064C140.06 31.3107 140.102 31.7705 139.88 32.0797C139.666 32.2145 139.095 32.1405 138.77 32.1405H136.056V32.0163L136.551 30.1664L137.475 26.8339C137.475 26.8339 137.042 25.5416 136.92 25.169C136.574 24.1198 136.371 23.1684 135.996 22.1457C135.758 21.5035 135.425 20.7899 135.316 20.0473L135.322 20.0553Z" fill="white"/>
<path d="M107.56 20.1768C107.507 21.1731 106.986 22.4866 106.695 23.3851C106.167 25.0157 105.992 26.6251 105.461 28.2583C105.094 29.3921 104.534 30.9011 104.412 32.1458H101.019C99.7847 29.5136 98.5505 26.8815 97.3164 24.2493C97.2662 24.3127 97.2952 24.2652 97.2556 24.3735C96.846 24.9866 96.8803 25.9724 96.6398 26.7176C96.0769 28.4539 95.5748 30.325 95.1599 32.1458H91.3358V32.085L91.645 30.9116L93.4342 24.2493L94.5441 20.2376C94.5441 20.2376 97.8502 20.1768 99.4808 20.1768C100.366 22.069 101.249 23.9612 102.134 25.8534H102.258V25.7292C102.512 25.3777 102.48 24.8307 102.628 24.3709C102.906 23.5146 103.154 22.513 103.432 21.6568C103.58 21.1969 103.54 20.5944 103.802 20.2376C104.016 20.1028 104.587 20.1768 104.912 20.1768H107.565H107.56Z" fill="white"/>
<path d="M80.2258 20.2403H84.1132V20.301C83.767 20.7609 83.6878 21.9528 83.4975 22.5844C82.9346 24.4422 81.2855 28.2689 83.9917 28.9402C84.8426 29.1516 85.7993 28.808 86.2116 28.5094C87.2264 27.7774 87.385 26.5273 87.8157 25.1769C88.3205 23.5992 88.8147 21.9025 89.1741 20.2403H93.0616V20.301C92.6519 20.9115 92.5224 22.513 92.2582 23.3243C91.1694 26.6938 90.7333 30.4386 87.6307 31.7758C86.8564 32.1114 85.9711 32.1934 85.0382 32.3916C84.071 32.6004 82.7522 32.3493 82.0757 32.1458C80.7755 31.752 79.8109 31.2658 79.1766 30.2325C78.6666 29.4053 78.2781 27.6267 78.6216 26.2208C79.1555 24.2255 79.6919 22.2302 80.2258 20.235V20.2403Z" fill="white"/>
<path d="M133.842 20.116H123.043C122.951 21.0436 122.57 22.0056 122.303 22.8301C121.756 24.5189 121.474 26.2631 120.945 27.8883C120.567 29.0538 120.377 30.2404 120.02 31.3424C119.93 31.6173 119.973 31.8762 119.835 32.0824V32.1432H122.549C122.874 32.1432 123.445 32.2172 123.659 32.0824C123.921 31.7573 123.894 31.1706 124.029 30.724C124.283 29.8915 124.679 28.9322 124.769 28.0099H124.83V27.9491H126.495C127.111 29.3471 127.729 30.7452 128.345 32.1458H132.541C132.28 31.2023 131.683 30.3461 131.307 29.4925C131.038 28.8794 130.871 28.0522 130.443 27.5791C130.53 27.4364 132.349 26.752 132.663 26.53C134.487 25.2509 135.189 22.3941 133.836 20.1134L133.842 20.116ZM125.636 24.9893C125.752 23.7842 126.373 22.7879 126.5 21.596C127.605 21.596 129.066 21.4321 129.893 21.781C130.113 21.8735 130.258 22.0875 130.448 22.2117C131.228 25.0633 128.48 25.0527 125.636 24.9893Z" fill="white"/>
<path d="M120.699 22.4602C120.424 21.4612 119.891 20.8534 119.404 20.116C115.929 20.1372 108.976 20.1768 108.976 20.1768L108.173 23.0759L105.95 31.3424L105.765 32.0824V32.1432C105.765 32.1432 112.237 32.4682 114.526 31.834C117.055 31.1336 118.847 29.8255 119.954 27.7007C120.607 26.4507 121.212 24.3312 120.694 22.4575L120.699 22.4602ZM116.812 25.6077C116.701 25.9512 116.519 26.4111 116.318 26.7176C115.805 27.5025 114.92 28.0945 113.974 28.446C113.585 28.5887 112.972 28.5358 112.615 28.7552H110.517C111.154 26.4111 111.793 24.0669 112.43 21.7228C114.83 21.6911 116.207 21.8735 116.812 23.6362C116.986 24.1462 116.984 25.0712 116.812 25.6103V25.6077Z" fill="white"/>
<path d="M77.1417 27.4576C76.9355 25.9776 76.7294 24.4951 76.5259 23.0151C76.3251 22.1853 76.0899 21.1731 76.0952 20.2376C75.7252 20.2297 74.7368 20.2376 74.7368 20.2376H70.6035C70.6035 20.2376 70.2362 20.8613 70.1094 21.041C69.742 21.5643 69.38 22.1034 68.9994 22.6452C67.5723 24.6748 64.6812 28.816 64.6812 28.816H60.1145C60.5585 26.863 61.6579 22.9544 61.6579 22.9544L62.3978 20.4252V20.301H58.5738C58.5738 20.301 58.1219 22.1959 57.8946 22.8936C57.2498 24.8809 56.1663 29.0644 56.1663 29.0644L55.3629 32.0877V32.1484H66.5919L66.9618 31.4693L68.196 29.6801H73.5634C73.6665 30.502 73.7695 31.3266 73.8726 32.1484H77.8843C77.8076 30.7055 77.4694 28.8001 77.1443 27.4602L77.1417 27.4576ZM73.1934 26.6542V26.715H70.1701C70.3076 26.3106 70.63 25.9935 70.8493 25.6658C71.4571 24.7514 72.1628 23.8106 72.6385 22.8275C72.9529 23.0231 72.7891 23.6388 72.8842 24.0617C73.0666 24.8518 73.0137 25.8614 73.2542 26.6542H73.1934Z" fill="white"/>
</g>
<defs>
<clipPath id="clip0_581_18326">
<rect width="200" height="52" fill="white"/>
</clipPath>
</defs>
</svg>
