<?xml version="1.0" encoding="iso-8859-1"?>
<!-- Generator: Adobe Illustrator 19.0.0, SVG Export Plug-In . SVG Version: 6.00 Build 0)  -->
<svg version="1.1" id="Capa_1" xmlns="http://www.w3.org/2000/svg" xmlns:xlink="http://www.w3.org/1999/xlink" x="0px" y="0px"
	 viewBox="0 0 449.2 449.2" style="enable-background:new 0 0 449.2 449.2;" xml:space="preserve">
<g>
	<g>
		<path d="M321.48,279.84c10.324-0.197,18.538-8.716,18.36-19.04V19.04C340.018,8.716,331.804,0.197,321.48,0H127.72
			c-10.324,0.197-18.538,8.716-18.36,19.04V260.8c-0.178,10.324,8.036,18.843,18.36,19.04h10.36v121.72h-5.28
			c-13.155,1.62-22.507,13.598-20.886,26.754c1.346,10.929,9.957,19.54,20.886,20.886h183.6
			c13.155-1.62,22.507-13.598,20.886-26.754c-1.346-10.929-9.957-19.54-20.886-20.886h-5.28V279.84H321.48z M316.4,409.12
			c8.991,0.004,16.276,7.297,16.272,16.288c-0.004,8.985-7.287,16.268-16.272,16.272H132.8c-8.991-0.004-16.276-7.297-16.272-16.288
			c0.004-8.985,7.287-16.268,16.272-16.272H316.4z M145.36,401.56V279.84h158.48v121.72H145.36z M127.72,272.28
			c-6.236-0.11-11.209-5.243-11.12-11.48V19.04c-0.089-6.221,4.859-11.349,11.08-11.48h193.8c6.236,0.11,11.209,5.243,11.12,11.48
			V260.8c0.089,6.221-4.859,11.349-11.08,11.48H127.72z"/>
	</g>
</g>
<g>
	<g>
		<path d="M284.28,39.04H164.92c-7.142,0.131-12.831,6.017-12.72,13.16v125.6c-0.111,7.143,5.578,13.029,12.72,13.16h119.36
			c7.142-0.131,12.831-6.017,12.72-13.16V52.2C297.111,45.057,291.422,39.171,284.28,39.04z M289.72,177.8
			c0.045,3.055-2.385,5.574-5.44,5.64H164.92c-3.055-0.066-5.485-2.584-5.44-5.64V52.2c-0.045-3.055,2.385-5.574,5.44-5.64h119.36
			c3.055,0.066,5.485,2.584,5.44,5.64V177.8z"/>
	</g>
</g>
<g>
	<g>
		<path d="M135.64,55.229c-6.951-0.331-12.854,5.035-13.186,11.986c-0.009,0.195-0.014,0.39-0.014,0.586
			c-0.113,6.773,5.23,12.382,12,12.6c6.951,0.331,12.854-5.035,13.186-11.986C147.957,61.463,142.591,55.56,135.64,55.229z
			 M134.84,72.872c-2.803,0.11-5.166-2.073-5.276-4.876c-0.003-0.065-0.004-0.131-0.004-0.196c-0.045-2.746,2.134-5.014,4.88-5.08
			c2.803-0.11,5.166,2.073,5.276,4.876C139.827,70.4,137.643,72.762,134.84,72.872z"/>
	</g>
</g>
<g>
	<g>
		<path d="M135.64,102.429c-6.951-0.331-12.854,5.035-13.186,11.986c-0.009,0.195-0.014,0.39-0.014,0.586
			c-0.113,6.773,5.23,12.382,12,12.6c6.951,0.331,12.854-5.035,13.186-11.986C147.957,108.663,142.591,102.76,135.64,102.429z
			 M134.84,120.072c-2.803,0.11-5.166-2.073-5.276-4.876c-0.003-0.065-0.004-0.131-0.004-0.196c-0.045-2.746,2.134-5.014,4.88-5.08
			c2.803-0.11,5.166,2.073,5.276,4.876C139.827,117.6,137.643,119.962,134.84,120.072z"/>
	</g>
</g>
<g>
	<g>
		<path d="M135.64,149.629c-6.951-0.331-12.854,5.035-13.186,11.986c-0.009,0.195-0.014,0.39-0.014,0.586
			c-0.113,6.773,5.23,12.382,12,12.6c6.951,0.331,12.854-5.035,13.186-11.986C147.957,155.863,142.591,149.96,135.64,149.629z
			 M134.84,167.272c-2.803,0.11-5.166-2.073-5.276-4.876c-0.003-0.065-0.004-0.131-0.004-0.196c-0.023-2.731,2.15-4.975,4.88-5.04
			v-0.04c2.803-0.11,5.166,2.073,5.276,4.876C139.827,164.799,137.643,167.162,134.84,167.272z"/>
	</g>
</g>
<g>
	<g>
		<path d="M315.96,55.229c-6.951-0.331-12.854,5.035-13.186,11.986c-0.009,0.195-0.014,0.39-0.014,0.586
			c-0.113,6.773,5.23,12.382,12,12.6c6.951,0.331,12.854-5.035,13.186-11.986C328.277,61.463,322.911,55.56,315.96,55.229z
			 M315.16,72.872c-2.803,0.11-5.166-2.073-5.276-4.876c-0.003-0.065-0.004-0.131-0.004-0.196c-0.045-2.746,2.134-5.014,4.88-5.08
			c2.803-0.11,5.166,2.073,5.276,4.876C320.147,70.4,317.963,72.762,315.16,72.872z"/>
	</g>
</g>
<g>
	<g>
		<path d="M315.96,102.429c-6.951-0.331-12.854,5.035-13.186,11.986c-0.009,0.195-0.014,0.39-0.014,0.586
			c-0.113,6.773,5.23,12.382,12,12.6c6.951,0.331,12.854-5.035,13.186-11.986C328.277,108.663,322.911,102.76,315.96,102.429z
			 M315.16,120.072c-2.803,0.11-5.166-2.073-5.276-4.876c-0.003-0.065-0.004-0.131-0.004-0.196c-0.045-2.746,2.134-5.014,4.88-5.08
			c2.803-0.11,5.166,2.073,5.276,4.876C320.147,117.6,317.963,119.962,315.16,120.072z"/>
	</g>
</g>
<g>
	<g>
		<path d="M315.96,149.629c-6.951-0.331-12.854,5.035-13.186,11.986c-0.009,0.195-0.014,0.39-0.014,0.586
			c-0.113,6.773,5.23,12.382,12,12.6c6.951,0.331,12.854-5.035,13.186-11.986C328.277,155.863,322.911,149.96,315.96,149.629z
			 M315.16,167.272c-2.803,0.11-5.166-2.073-5.276-4.876c-0.003-0.065-0.004-0.131-0.004-0.196c-0.023-2.731,2.15-4.975,4.88-5.04
			v-0.04c2.803-0.11,5.166,2.073,5.276,4.876C320.147,164.799,317.963,167.162,315.16,167.272z"/>
	</g>
</g>
<g>
	<g>
		<path d="M269,245.56h-88.8c-5.987,0.005-10.836,4.862-10.831,10.849c0.005,5.98,4.851,10.826,10.831,10.831H269
			c5.987-0.005,10.836-4.862,10.831-10.849C279.826,250.411,274.98,245.565,269,245.56z M271.936,256.744
			c-0.17,1.546-1.391,2.766-2.936,2.936h-88.8c-1.823-0.201-3.137-1.841-2.936-3.664c0.17-1.546,1.391-2.766,2.936-2.936H269
			C270.823,253.281,272.137,254.921,271.936,256.744z"/>
	</g>
</g>
<g>
	<g>
		<path d="M312.16,201.6H269.8c-5.987,0.005-10.836,4.862-10.831,10.849c0.005,5.98,4.851,10.826,10.831,10.831h42.36
			c5.987-0.005,10.836-4.862,10.831-10.849C322.986,206.451,318.14,201.605,312.16,201.6z M315.096,212.784
			c-0.17,1.546-1.391,2.766-2.936,2.936H269.8c-1.823-0.201-3.137-1.841-2.936-3.664c0.17-1.545,1.391-2.766,2.936-2.936h42.36
			C313.983,209.321,315.297,210.961,315.096,212.784z"/>
	</g>
</g>
<g>
	<g>
		<path d="M179.44,201.76h-42.4c-5.987,0.005-10.836,4.862-10.831,10.849c0.005,5.98,4.851,10.826,10.831,10.831h42.4
			c5.867-0.131,10.529-4.972,10.44-10.84C189.969,206.732,185.307,201.891,179.44,201.76z M182.376,212.984
			c-0.17,1.546-1.391,2.766-2.936,2.936h-42.4c-1.823-0.201-3.137-1.841-2.936-3.664c0.17-1.545,1.391-2.766,2.936-2.936h42.4
			C181.263,209.521,182.577,211.161,182.376,212.984z"/>
	</g>
</g>
<g>
</g>
<g>
</g>
<g>
</g>
<g>
</g>
<g>
</g>
<g>
</g>
<g>
</g>
<g>
</g>
<g>
</g>
<g>
</g>
<g>
</g>
<g>
</g>
<g>
</g>
<g>
</g>
<g>
</g>
</svg>
