<svg id="Layer_3" enable-background="new 0 0 64 64" height="512" viewBox="0 0 64 64" width="512" xmlns="http://www.w3.org/2000/svg"><path d="m63 17v-7h-.009c0-.26-.092-.516-.284-.707l-8-8c-.187-.188-.442-.293-.707-.293h-44c-.265 0-.52.105-.707.293l-8 8c-.191.191-.283.447-.284.707h-.009v7c0 1.771.776 3.36 2 4.46v35.54h-1c-.552 0-1 .447-1 1v4c0 .553.448 1 1 1h60c.552 0 1-.447 1-1v-4c0-.553-.448-1-1-1h-1v-35.54c1.224-1.1 2-2.689 2-4.46zm-6 4c-2.206 0-4-1.794-4-4v-6h8v6c0 2.206-1.794 4-4 4zm-54-4v-6h8v6c0 2.206-1.794 4-4 4s-4-1.794-4-4zm10-6h8v6c0 2.206-1.794 4-4 4s-4-1.794-4-4zm10 0h8v6c0 2.206-1.794 4-4 4s-4-1.794-4-4zm10 0h8v6c0 2.206-1.794 4-4 4s-4-1.794-4-4zm10 0h8v6c0 2.206-1.794 4-4 4s-4-1.794-4-4zm-32.586-8h43.172l6 6h-55.172zm50.586 58h-58v-2h58zm-20-24h14v4h-14zm12 14v-1c0-2.757-2.243-5-5-5s-5 2.243-5 5v1h-2v-8h14v8zm-2 0h-6v-1c0-1.654 1.346-3 3-3s3 1.346 3 3zm-16 0h-6v-1c0-1.654 1.346-3 3-3s3 1.346 3 3zm-3-6c-2.757 0-5 2.243-5 5v1h-2v-8h14v8h-2v-1c0-2.757-2.243-5-5-5zm7-4h-14v-4h14zm-16-5v16 5h-14v-22h14zm2 21v-4h34v4zm34-6h-2v-15c0-.553-.448-1-1-1h-16-15v-1c0-.553-.448-1-1-1h-16c-.552 0-1 .447-1 1v23h-2v-34.35c.627.222 1.298.35 2 .35 2.086 0 3.924-1.071 5-2.69 1.076 1.62 2.914 2.69 5 2.69s3.924-1.071 5-2.69c1.076 1.62 2.914 2.69 5 2.69s3.924-1.071 5-2.69c1.076 1.62 2.914 2.69 5 2.69s3.924-1.071 5-2.69c1.076 1.62 2.914 2.69 5 2.69s3.924-1.071 5-2.69c1.076 1.62 2.914 2.69 5 2.69.702 0 1.373-.128 2-.35z"/><path d="m11 43h2v6h-2z"/><path d="m54 25h-26c-.552 0-1 .447-1 1v6c0 .553.448 1 1 1h26c.552 0 1-.447 1-1v-6c0-.553-.448-1-1-1zm-1 6h-24v-4h24z"/></svg>